M48
; DRILL file {KiCad 8.0.1} date 2024-04-16T15:40:30+0530
; FORMAT={-:-/ absolute / inch / decimal}
; #@! TF.CreationDate,2024-04-16T15:40:30+05:30
; #@! TF.GenerationSoftware,Kicad,Pcbnew,8.0.1
; #@! TF.FileFunction,Plated,1,2,PTH
FMAT,2
INCH
; #@! TA.AperFunction,Plated,PTH,ViaDrill
T1C0.0157
; #@! TA.AperFunction,Plated,PTH,ComponentDrill
T2C0.0394
%
G90
G05
T1
X1.6Y0.35
X1.75Y1.0
X1.75Y0.4
X1.95Y1.0
T2
X0.151Y2.0
X0.251Y2.0
X0.351Y2.0
X0.451Y2.0
X0.74Y2.0
X0.84Y2.0
X0.94Y2.0
X1.04Y2.0
X1.1Y0.1
X1.14Y2.0
X1.2Y0.1
X1.24Y2.0
X1.299Y0.75
X1.299Y0.65
X1.299Y0.55
X1.3Y0.1
X1.34Y2.0
X1.4Y0.1
X1.44Y2.0
X1.5Y0.1
X1.54Y2.0
X1.5743Y0.75
X1.5743Y0.65
X1.5743Y0.55
X1.6Y0.1
X1.64Y2.0
X1.7Y0.1
X1.8Y2.0
X1.8Y0.1
X1.8495Y0.75
X1.8495Y0.65
X1.8495Y0.55
X1.9Y2.0
X2.0Y2.0
X2.0Y0.1
X2.1Y2.0
X2.1Y0.1
X2.1248Y0.75
X2.1248Y0.65
X2.1248Y0.55
X2.2Y2.0
X2.2Y0.1
X2.3Y2.0
X2.3Y0.1
X2.4Y2.0
X2.4Y0.85
X2.4Y0.75
X2.4Y0.65
X2.4Y0.55
X2.4Y0.1
X2.5Y2.0
X2.5Y0.1
M30
