%TF.GenerationSoftware,KiCad,Pcbnew,8.0.1*%
%TF.CreationDate,2024-04-16T15:40:23+05:30*%
%TF.ProjectId,uno shield,756e6f20-7368-4696-956c-642e6b696361,rev?*%
%TF.SameCoordinates,PX5f5e100PY5f5e100*%
%TF.FileFunction,Legend,Top*%
%TF.FilePolarity,Positive*%
%FSLAX46Y46*%
G04 Gerber Fmt 4.6, Leading zero omitted, Abs format (unit mm)*
G04 Created by KiCad (PCBNEW 8.0.1) date 2024-04-16 15:40:23*
%MOMM*%
%LPD*%
G01*
G04 APERTURE LIST*
%ADD10C,0.100000*%
%ADD11C,0.150000*%
%ADD12C,0.300000*%
%ADD13C,0.400000*%
%ADD14C,0.350000*%
%ADD15C,0.250000*%
%ADD16C,0.120000*%
G04 APERTURE END LIST*
D10*
D11*
X77002200Y-66007200D02*
X185002200Y-66007200D01*
X185002200Y-98007200D01*
X77002200Y-98007200D01*
X77002200Y-66007200D01*
D10*
D11*
X-90000000Y90000000D02*
X187002200Y90000000D01*
X187002200Y-100007200D01*
X-90000000Y-100007200D01*
X-90000000Y90000000D01*
D10*
D11*
X-88000000Y88000000D02*
X185002200Y88000000D01*
X185002200Y-98007200D01*
X-88000000Y-98007200D01*
X-88000000Y88000000D01*
D10*
D11*
X-40000000Y88000000D02*
X-40000000Y90000000D01*
D10*
D11*
X10000000Y88000000D02*
X10000000Y90000000D01*
D10*
D11*
X60000000Y88000000D02*
X60000000Y90000000D01*
D10*
D11*
X110000000Y88000000D02*
X110000000Y90000000D01*
D10*
D11*
X160000000Y88000000D02*
X160000000Y90000000D01*
D10*
D11*
X-63910840Y88406396D02*
X-64653697Y88406396D01*
X-64282269Y88406396D02*
X-64282269Y89706396D01*
X-64282269Y89706396D02*
X-64406078Y89520681D01*
X-64406078Y89520681D02*
X-64529888Y89396872D01*
X-64529888Y89396872D02*
X-64653697Y89334967D01*
D10*
D11*
X-14653697Y89582586D02*
X-14591793Y89644491D01*
X-14591793Y89644491D02*
X-14467983Y89706396D01*
X-14467983Y89706396D02*
X-14158459Y89706396D01*
X-14158459Y89706396D02*
X-14034650Y89644491D01*
X-14034650Y89644491D02*
X-13972745Y89582586D01*
X-13972745Y89582586D02*
X-13910840Y89458777D01*
X-13910840Y89458777D02*
X-13910840Y89334967D01*
X-13910840Y89334967D02*
X-13972745Y89149253D01*
X-13972745Y89149253D02*
X-14715602Y88406396D01*
X-14715602Y88406396D02*
X-13910840Y88406396D01*
D10*
D11*
X35284398Y89706396D02*
X36089160Y89706396D01*
X36089160Y89706396D02*
X35655826Y89211158D01*
X35655826Y89211158D02*
X35841541Y89211158D01*
X35841541Y89211158D02*
X35965350Y89149253D01*
X35965350Y89149253D02*
X36027255Y89087348D01*
X36027255Y89087348D02*
X36089160Y88963539D01*
X36089160Y88963539D02*
X36089160Y88654015D01*
X36089160Y88654015D02*
X36027255Y88530205D01*
X36027255Y88530205D02*
X35965350Y88468300D01*
X35965350Y88468300D02*
X35841541Y88406396D01*
X35841541Y88406396D02*
X35470112Y88406396D01*
X35470112Y88406396D02*
X35346303Y88468300D01*
X35346303Y88468300D02*
X35284398Y88530205D01*
D10*
D11*
X85965350Y89273062D02*
X85965350Y88406396D01*
X85655826Y89768300D02*
X85346303Y88839729D01*
X85346303Y88839729D02*
X86151064Y88839729D01*
D10*
D11*
X136027255Y89706396D02*
X135408207Y89706396D01*
X135408207Y89706396D02*
X135346303Y89087348D01*
X135346303Y89087348D02*
X135408207Y89149253D01*
X135408207Y89149253D02*
X135532017Y89211158D01*
X135532017Y89211158D02*
X135841541Y89211158D01*
X135841541Y89211158D02*
X135965350Y89149253D01*
X135965350Y89149253D02*
X136027255Y89087348D01*
X136027255Y89087348D02*
X136089160Y88963539D01*
X136089160Y88963539D02*
X136089160Y88654015D01*
X136089160Y88654015D02*
X136027255Y88530205D01*
X136027255Y88530205D02*
X135965350Y88468300D01*
X135965350Y88468300D02*
X135841541Y88406396D01*
X135841541Y88406396D02*
X135532017Y88406396D01*
X135532017Y88406396D02*
X135408207Y88468300D01*
X135408207Y88468300D02*
X135346303Y88530205D01*
D10*
D11*
X185965350Y89706396D02*
X185717731Y89706396D01*
X185717731Y89706396D02*
X185593922Y89644491D01*
X185593922Y89644491D02*
X185532017Y89582586D01*
X185532017Y89582586D02*
X185408207Y89396872D01*
X185408207Y89396872D02*
X185346303Y89149253D01*
X185346303Y89149253D02*
X185346303Y88654015D01*
X185346303Y88654015D02*
X185408207Y88530205D01*
X185408207Y88530205D02*
X185470112Y88468300D01*
X185470112Y88468300D02*
X185593922Y88406396D01*
X185593922Y88406396D02*
X185841541Y88406396D01*
X185841541Y88406396D02*
X185965350Y88468300D01*
X185965350Y88468300D02*
X186027255Y88530205D01*
X186027255Y88530205D02*
X186089160Y88654015D01*
X186089160Y88654015D02*
X186089160Y88963539D01*
X186089160Y88963539D02*
X186027255Y89087348D01*
X186027255Y89087348D02*
X185965350Y89149253D01*
X185965350Y89149253D02*
X185841541Y89211158D01*
X185841541Y89211158D02*
X185593922Y89211158D01*
X185593922Y89211158D02*
X185470112Y89149253D01*
X185470112Y89149253D02*
X185408207Y89087348D01*
X185408207Y89087348D02*
X185346303Y88963539D01*
D10*
D11*
X-40000000Y-98007200D02*
X-40000000Y-100007200D01*
D10*
D11*
X10000000Y-98007200D02*
X10000000Y-100007200D01*
D10*
D11*
X60000000Y-98007200D02*
X60000000Y-100007200D01*
D10*
D11*
X110000000Y-98007200D02*
X110000000Y-100007200D01*
D10*
D11*
X160000000Y-98007200D02*
X160000000Y-100007200D01*
D10*
D11*
X-63910840Y-99600804D02*
X-64653697Y-99600804D01*
X-64282269Y-99600804D02*
X-64282269Y-98300804D01*
X-64282269Y-98300804D02*
X-64406078Y-98486519D01*
X-64406078Y-98486519D02*
X-64529888Y-98610328D01*
X-64529888Y-98610328D02*
X-64653697Y-98672233D01*
D10*
D11*
X-14653697Y-98424614D02*
X-14591793Y-98362709D01*
X-14591793Y-98362709D02*
X-14467983Y-98300804D01*
X-14467983Y-98300804D02*
X-14158459Y-98300804D01*
X-14158459Y-98300804D02*
X-14034650Y-98362709D01*
X-14034650Y-98362709D02*
X-13972745Y-98424614D01*
X-13972745Y-98424614D02*
X-13910840Y-98548423D01*
X-13910840Y-98548423D02*
X-13910840Y-98672233D01*
X-13910840Y-98672233D02*
X-13972745Y-98857947D01*
X-13972745Y-98857947D02*
X-14715602Y-99600804D01*
X-14715602Y-99600804D02*
X-13910840Y-99600804D01*
D10*
D11*
X35284398Y-98300804D02*
X36089160Y-98300804D01*
X36089160Y-98300804D02*
X35655826Y-98796042D01*
X35655826Y-98796042D02*
X35841541Y-98796042D01*
X35841541Y-98796042D02*
X35965350Y-98857947D01*
X35965350Y-98857947D02*
X36027255Y-98919852D01*
X36027255Y-98919852D02*
X36089160Y-99043661D01*
X36089160Y-99043661D02*
X36089160Y-99353185D01*
X36089160Y-99353185D02*
X36027255Y-99476995D01*
X36027255Y-99476995D02*
X35965350Y-99538900D01*
X35965350Y-99538900D02*
X35841541Y-99600804D01*
X35841541Y-99600804D02*
X35470112Y-99600804D01*
X35470112Y-99600804D02*
X35346303Y-99538900D01*
X35346303Y-99538900D02*
X35284398Y-99476995D01*
D10*
D11*
X85965350Y-98734138D02*
X85965350Y-99600804D01*
X85655826Y-98238900D02*
X85346303Y-99167471D01*
X85346303Y-99167471D02*
X86151064Y-99167471D01*
D10*
D11*
X136027255Y-98300804D02*
X135408207Y-98300804D01*
X135408207Y-98300804D02*
X135346303Y-98919852D01*
X135346303Y-98919852D02*
X135408207Y-98857947D01*
X135408207Y-98857947D02*
X135532017Y-98796042D01*
X135532017Y-98796042D02*
X135841541Y-98796042D01*
X135841541Y-98796042D02*
X135965350Y-98857947D01*
X135965350Y-98857947D02*
X136027255Y-98919852D01*
X136027255Y-98919852D02*
X136089160Y-99043661D01*
X136089160Y-99043661D02*
X136089160Y-99353185D01*
X136089160Y-99353185D02*
X136027255Y-99476995D01*
X136027255Y-99476995D02*
X135965350Y-99538900D01*
X135965350Y-99538900D02*
X135841541Y-99600804D01*
X135841541Y-99600804D02*
X135532017Y-99600804D01*
X135532017Y-99600804D02*
X135408207Y-99538900D01*
X135408207Y-99538900D02*
X135346303Y-99476995D01*
D10*
D11*
X185965350Y-98300804D02*
X185717731Y-98300804D01*
X185717731Y-98300804D02*
X185593922Y-98362709D01*
X185593922Y-98362709D02*
X185532017Y-98424614D01*
X185532017Y-98424614D02*
X185408207Y-98610328D01*
X185408207Y-98610328D02*
X185346303Y-98857947D01*
X185346303Y-98857947D02*
X185346303Y-99353185D01*
X185346303Y-99353185D02*
X185408207Y-99476995D01*
X185408207Y-99476995D02*
X185470112Y-99538900D01*
X185470112Y-99538900D02*
X185593922Y-99600804D01*
X185593922Y-99600804D02*
X185841541Y-99600804D01*
X185841541Y-99600804D02*
X185965350Y-99538900D01*
X185965350Y-99538900D02*
X186027255Y-99476995D01*
X186027255Y-99476995D02*
X186089160Y-99353185D01*
X186089160Y-99353185D02*
X186089160Y-99043661D01*
X186089160Y-99043661D02*
X186027255Y-98919852D01*
X186027255Y-98919852D02*
X185965350Y-98857947D01*
X185965350Y-98857947D02*
X185841541Y-98796042D01*
X185841541Y-98796042D02*
X185593922Y-98796042D01*
X185593922Y-98796042D02*
X185470112Y-98857947D01*
X185470112Y-98857947D02*
X185408207Y-98919852D01*
X185408207Y-98919852D02*
X185346303Y-99043661D01*
D10*
D11*
X-90000000Y40000000D02*
X-88000000Y40000000D01*
D10*
D11*
X-90000000Y-10000000D02*
X-88000000Y-10000000D01*
D10*
D11*
X-90000000Y-60000000D02*
X-88000000Y-60000000D01*
D10*
D11*
X-89309524Y64777824D02*
X-88690477Y64777824D01*
X-89433334Y64406396D02*
X-89000001Y65706396D01*
X-89000001Y65706396D02*
X-88566667Y64406396D01*
D10*
D11*
X-88907143Y15087348D02*
X-88721429Y15025443D01*
X-88721429Y15025443D02*
X-88659524Y14963539D01*
X-88659524Y14963539D02*
X-88597620Y14839729D01*
X-88597620Y14839729D02*
X-88597620Y14654015D01*
X-88597620Y14654015D02*
X-88659524Y14530205D01*
X-88659524Y14530205D02*
X-88721429Y14468300D01*
X-88721429Y14468300D02*
X-88845239Y14406396D01*
X-88845239Y14406396D02*
X-89340477Y14406396D01*
X-89340477Y14406396D02*
X-89340477Y15706396D01*
X-89340477Y15706396D02*
X-88907143Y15706396D01*
X-88907143Y15706396D02*
X-88783334Y15644491D01*
X-88783334Y15644491D02*
X-88721429Y15582586D01*
X-88721429Y15582586D02*
X-88659524Y15458777D01*
X-88659524Y15458777D02*
X-88659524Y15334967D01*
X-88659524Y15334967D02*
X-88721429Y15211158D01*
X-88721429Y15211158D02*
X-88783334Y15149253D01*
X-88783334Y15149253D02*
X-88907143Y15087348D01*
X-88907143Y15087348D02*
X-89340477Y15087348D01*
D10*
D11*
X-88597620Y-35469795D02*
X-88659524Y-35531700D01*
X-88659524Y-35531700D02*
X-88845239Y-35593604D01*
X-88845239Y-35593604D02*
X-88969048Y-35593604D01*
X-88969048Y-35593604D02*
X-89154762Y-35531700D01*
X-89154762Y-35531700D02*
X-89278572Y-35407890D01*
X-89278572Y-35407890D02*
X-89340477Y-35284080D01*
X-89340477Y-35284080D02*
X-89402381Y-35036461D01*
X-89402381Y-35036461D02*
X-89402381Y-34850747D01*
X-89402381Y-34850747D02*
X-89340477Y-34603128D01*
X-89340477Y-34603128D02*
X-89278572Y-34479319D01*
X-89278572Y-34479319D02*
X-89154762Y-34355509D01*
X-89154762Y-34355509D02*
X-88969048Y-34293604D01*
X-88969048Y-34293604D02*
X-88845239Y-34293604D01*
X-88845239Y-34293604D02*
X-88659524Y-34355509D01*
X-88659524Y-34355509D02*
X-88597620Y-34417414D01*
D10*
D11*
X-89340477Y-85593604D02*
X-89340477Y-84293604D01*
X-89340477Y-84293604D02*
X-89030953Y-84293604D01*
X-89030953Y-84293604D02*
X-88845239Y-84355509D01*
X-88845239Y-84355509D02*
X-88721429Y-84479319D01*
X-88721429Y-84479319D02*
X-88659524Y-84603128D01*
X-88659524Y-84603128D02*
X-88597620Y-84850747D01*
X-88597620Y-84850747D02*
X-88597620Y-85036461D01*
X-88597620Y-85036461D02*
X-88659524Y-85284080D01*
X-88659524Y-85284080D02*
X-88721429Y-85407890D01*
X-88721429Y-85407890D02*
X-88845239Y-85531700D01*
X-88845239Y-85531700D02*
X-89030953Y-85593604D01*
X-89030953Y-85593604D02*
X-89340477Y-85593604D01*
D10*
D11*
X187002200Y40000000D02*
X185002200Y40000000D01*
D10*
D11*
X187002200Y-10000000D02*
X185002200Y-10000000D01*
D10*
D11*
X187002200Y-60000000D02*
X185002200Y-60000000D01*
D10*
D11*
X185692676Y64777824D02*
X186311723Y64777824D01*
X185568866Y64406396D02*
X186002199Y65706396D01*
X186002199Y65706396D02*
X186435533Y64406396D01*
D10*
D11*
X186095057Y15087348D02*
X186280771Y15025443D01*
X186280771Y15025443D02*
X186342676Y14963539D01*
X186342676Y14963539D02*
X186404580Y14839729D01*
X186404580Y14839729D02*
X186404580Y14654015D01*
X186404580Y14654015D02*
X186342676Y14530205D01*
X186342676Y14530205D02*
X186280771Y14468300D01*
X186280771Y14468300D02*
X186156961Y14406396D01*
X186156961Y14406396D02*
X185661723Y14406396D01*
X185661723Y14406396D02*
X185661723Y15706396D01*
X185661723Y15706396D02*
X186095057Y15706396D01*
X186095057Y15706396D02*
X186218866Y15644491D01*
X186218866Y15644491D02*
X186280771Y15582586D01*
X186280771Y15582586D02*
X186342676Y15458777D01*
X186342676Y15458777D02*
X186342676Y15334967D01*
X186342676Y15334967D02*
X186280771Y15211158D01*
X186280771Y15211158D02*
X186218866Y15149253D01*
X186218866Y15149253D02*
X186095057Y15087348D01*
X186095057Y15087348D02*
X185661723Y15087348D01*
D10*
D11*
X186404580Y-35469795D02*
X186342676Y-35531700D01*
X186342676Y-35531700D02*
X186156961Y-35593604D01*
X186156961Y-35593604D02*
X186033152Y-35593604D01*
X186033152Y-35593604D02*
X185847438Y-35531700D01*
X185847438Y-35531700D02*
X185723628Y-35407890D01*
X185723628Y-35407890D02*
X185661723Y-35284080D01*
X185661723Y-35284080D02*
X185599819Y-35036461D01*
X185599819Y-35036461D02*
X185599819Y-34850747D01*
X185599819Y-34850747D02*
X185661723Y-34603128D01*
X185661723Y-34603128D02*
X185723628Y-34479319D01*
X185723628Y-34479319D02*
X185847438Y-34355509D01*
X185847438Y-34355509D02*
X186033152Y-34293604D01*
X186033152Y-34293604D02*
X186156961Y-34293604D01*
X186156961Y-34293604D02*
X186342676Y-34355509D01*
X186342676Y-34355509D02*
X186404580Y-34417414D01*
D10*
D11*
X185661723Y-85593604D02*
X185661723Y-84293604D01*
X185661723Y-84293604D02*
X185971247Y-84293604D01*
X185971247Y-84293604D02*
X186156961Y-84355509D01*
X186156961Y-84355509D02*
X186280771Y-84479319D01*
X186280771Y-84479319D02*
X186342676Y-84603128D01*
X186342676Y-84603128D02*
X186404580Y-84850747D01*
X186404580Y-84850747D02*
X186404580Y-85036461D01*
X186404580Y-85036461D02*
X186342676Y-85284080D01*
X186342676Y-85284080D02*
X186280771Y-85407890D01*
X186280771Y-85407890D02*
X186156961Y-85531700D01*
X186156961Y-85531700D02*
X185971247Y-85593604D01*
X185971247Y-85593604D02*
X185661723Y-85593604D01*
D10*
D11*
X100458026Y-93793328D02*
X100458026Y-92293328D01*
X100458026Y-92293328D02*
X100815169Y-92293328D01*
X100815169Y-92293328D02*
X101029455Y-92364757D01*
X101029455Y-92364757D02*
X101172312Y-92507614D01*
X101172312Y-92507614D02*
X101243741Y-92650471D01*
X101243741Y-92650471D02*
X101315169Y-92936185D01*
X101315169Y-92936185D02*
X101315169Y-93150471D01*
X101315169Y-93150471D02*
X101243741Y-93436185D01*
X101243741Y-93436185D02*
X101172312Y-93579042D01*
X101172312Y-93579042D02*
X101029455Y-93721900D01*
X101029455Y-93721900D02*
X100815169Y-93793328D01*
X100815169Y-93793328D02*
X100458026Y-93793328D01*
X102600884Y-93793328D02*
X102600884Y-93007614D01*
X102600884Y-93007614D02*
X102529455Y-92864757D01*
X102529455Y-92864757D02*
X102386598Y-92793328D01*
X102386598Y-92793328D02*
X102100884Y-92793328D01*
X102100884Y-92793328D02*
X101958026Y-92864757D01*
X102600884Y-93721900D02*
X102458026Y-93793328D01*
X102458026Y-93793328D02*
X102100884Y-93793328D01*
X102100884Y-93793328D02*
X101958026Y-93721900D01*
X101958026Y-93721900D02*
X101886598Y-93579042D01*
X101886598Y-93579042D02*
X101886598Y-93436185D01*
X101886598Y-93436185D02*
X101958026Y-93293328D01*
X101958026Y-93293328D02*
X102100884Y-93221900D01*
X102100884Y-93221900D02*
X102458026Y-93221900D01*
X102458026Y-93221900D02*
X102600884Y-93150471D01*
X103100884Y-92793328D02*
X103672312Y-92793328D01*
X103315169Y-92293328D02*
X103315169Y-93579042D01*
X103315169Y-93579042D02*
X103386598Y-93721900D01*
X103386598Y-93721900D02*
X103529455Y-93793328D01*
X103529455Y-93793328D02*
X103672312Y-93793328D01*
X104743741Y-93721900D02*
X104600884Y-93793328D01*
X104600884Y-93793328D02*
X104315170Y-93793328D01*
X104315170Y-93793328D02*
X104172312Y-93721900D01*
X104172312Y-93721900D02*
X104100884Y-93579042D01*
X104100884Y-93579042D02*
X104100884Y-93007614D01*
X104100884Y-93007614D02*
X104172312Y-92864757D01*
X104172312Y-92864757D02*
X104315170Y-92793328D01*
X104315170Y-92793328D02*
X104600884Y-92793328D01*
X104600884Y-92793328D02*
X104743741Y-92864757D01*
X104743741Y-92864757D02*
X104815170Y-93007614D01*
X104815170Y-93007614D02*
X104815170Y-93150471D01*
X104815170Y-93150471D02*
X104100884Y-93293328D01*
X105458026Y-93650471D02*
X105529455Y-93721900D01*
X105529455Y-93721900D02*
X105458026Y-93793328D01*
X105458026Y-93793328D02*
X105386598Y-93721900D01*
X105386598Y-93721900D02*
X105458026Y-93650471D01*
X105458026Y-93650471D02*
X105458026Y-93793328D01*
X105458026Y-92864757D02*
X105529455Y-92936185D01*
X105529455Y-92936185D02*
X105458026Y-93007614D01*
X105458026Y-93007614D02*
X105386598Y-92936185D01*
X105386598Y-92936185D02*
X105458026Y-92864757D01*
X105458026Y-92864757D02*
X105458026Y-93007614D01*
X107315169Y-93793328D02*
X107315169Y-92793328D01*
X107315169Y-92936185D02*
X107386598Y-92864757D01*
X107386598Y-92864757D02*
X107529455Y-92793328D01*
X107529455Y-92793328D02*
X107743741Y-92793328D01*
X107743741Y-92793328D02*
X107886598Y-92864757D01*
X107886598Y-92864757D02*
X107958027Y-93007614D01*
X107958027Y-93007614D02*
X107958027Y-93793328D01*
X107958027Y-93007614D02*
X108029455Y-92864757D01*
X108029455Y-92864757D02*
X108172312Y-92793328D01*
X108172312Y-92793328D02*
X108386598Y-92793328D01*
X108386598Y-92793328D02*
X108529455Y-92864757D01*
X108529455Y-92864757D02*
X108600884Y-93007614D01*
X108600884Y-93007614D02*
X108600884Y-93793328D01*
X109958027Y-93793328D02*
X109958027Y-93007614D01*
X109958027Y-93007614D02*
X109886598Y-92864757D01*
X109886598Y-92864757D02*
X109743741Y-92793328D01*
X109743741Y-92793328D02*
X109458027Y-92793328D01*
X109458027Y-92793328D02*
X109315169Y-92864757D01*
X109958027Y-93721900D02*
X109815169Y-93793328D01*
X109815169Y-93793328D02*
X109458027Y-93793328D01*
X109458027Y-93793328D02*
X109315169Y-93721900D01*
X109315169Y-93721900D02*
X109243741Y-93579042D01*
X109243741Y-93579042D02*
X109243741Y-93436185D01*
X109243741Y-93436185D02*
X109315169Y-93293328D01*
X109315169Y-93293328D02*
X109458027Y-93221900D01*
X109458027Y-93221900D02*
X109815169Y-93221900D01*
X109815169Y-93221900D02*
X109958027Y-93150471D01*
X110672312Y-93793328D02*
X110672312Y-92793328D01*
X110672312Y-93079042D02*
X110743741Y-92936185D01*
X110743741Y-92936185D02*
X110815170Y-92864757D01*
X110815170Y-92864757D02*
X110958027Y-92793328D01*
X110958027Y-92793328D02*
X111100884Y-92793328D01*
X111600883Y-93650471D02*
X111672312Y-93721900D01*
X111672312Y-93721900D02*
X111600883Y-93793328D01*
X111600883Y-93793328D02*
X111529455Y-93721900D01*
X111529455Y-93721900D02*
X111600883Y-93650471D01*
X111600883Y-93650471D02*
X111600883Y-93793328D01*
X113315169Y-92293328D02*
X114243741Y-92293328D01*
X114243741Y-92293328D02*
X113743741Y-92864757D01*
X113743741Y-92864757D02*
X113958026Y-92864757D01*
X113958026Y-92864757D02*
X114100884Y-92936185D01*
X114100884Y-92936185D02*
X114172312Y-93007614D01*
X114172312Y-93007614D02*
X114243741Y-93150471D01*
X114243741Y-93150471D02*
X114243741Y-93507614D01*
X114243741Y-93507614D02*
X114172312Y-93650471D01*
X114172312Y-93650471D02*
X114100884Y-93721900D01*
X114100884Y-93721900D02*
X113958026Y-93793328D01*
X113958026Y-93793328D02*
X113529455Y-93793328D01*
X113529455Y-93793328D02*
X113386598Y-93721900D01*
X113386598Y-93721900D02*
X113315169Y-93650471D01*
X115672312Y-93793328D02*
X114815169Y-93793328D01*
X115243740Y-93793328D02*
X115243740Y-92293328D01*
X115243740Y-92293328D02*
X115100883Y-92507614D01*
X115100883Y-92507614D02*
X114958026Y-92650471D01*
X114958026Y-92650471D02*
X114815169Y-92721900D01*
X117458025Y-93793328D02*
X117458025Y-92793328D01*
X117458025Y-92936185D02*
X117529454Y-92864757D01*
X117529454Y-92864757D02*
X117672311Y-92793328D01*
X117672311Y-92793328D02*
X117886597Y-92793328D01*
X117886597Y-92793328D02*
X118029454Y-92864757D01*
X118029454Y-92864757D02*
X118100883Y-93007614D01*
X118100883Y-93007614D02*
X118100883Y-93793328D01*
X118100883Y-93007614D02*
X118172311Y-92864757D01*
X118172311Y-92864757D02*
X118315168Y-92793328D01*
X118315168Y-92793328D02*
X118529454Y-92793328D01*
X118529454Y-92793328D02*
X118672311Y-92864757D01*
X118672311Y-92864757D02*
X118743740Y-93007614D01*
X118743740Y-93007614D02*
X118743740Y-93793328D01*
X120100883Y-93793328D02*
X120100883Y-93007614D01*
X120100883Y-93007614D02*
X120029454Y-92864757D01*
X120029454Y-92864757D02*
X119886597Y-92793328D01*
X119886597Y-92793328D02*
X119600883Y-92793328D01*
X119600883Y-92793328D02*
X119458025Y-92864757D01*
X120100883Y-93721900D02*
X119958025Y-93793328D01*
X119958025Y-93793328D02*
X119600883Y-93793328D01*
X119600883Y-93793328D02*
X119458025Y-93721900D01*
X119458025Y-93721900D02*
X119386597Y-93579042D01*
X119386597Y-93579042D02*
X119386597Y-93436185D01*
X119386597Y-93436185D02*
X119458025Y-93293328D01*
X119458025Y-93293328D02*
X119600883Y-93221900D01*
X119600883Y-93221900D02*
X119958025Y-93221900D01*
X119958025Y-93221900D02*
X120100883Y-93150471D01*
X120815168Y-93793328D02*
X120815168Y-92793328D01*
X120815168Y-93079042D02*
X120886597Y-92936185D01*
X120886597Y-92936185D02*
X120958026Y-92864757D01*
X120958026Y-92864757D02*
X121100883Y-92793328D01*
X121100883Y-92793328D02*
X121243740Y-92793328D01*
X121672311Y-93721900D02*
X121815168Y-93793328D01*
X121815168Y-93793328D02*
X122100882Y-93793328D01*
X122100882Y-93793328D02*
X122243739Y-93721900D01*
X122243739Y-93721900D02*
X122315168Y-93579042D01*
X122315168Y-93579042D02*
X122315168Y-93507614D01*
X122315168Y-93507614D02*
X122243739Y-93364757D01*
X122243739Y-93364757D02*
X122100882Y-93293328D01*
X122100882Y-93293328D02*
X121886597Y-93293328D01*
X121886597Y-93293328D02*
X121743739Y-93221900D01*
X121743739Y-93221900D02*
X121672311Y-93079042D01*
X121672311Y-93079042D02*
X121672311Y-93007614D01*
X121672311Y-93007614D02*
X121743739Y-92864757D01*
X121743739Y-92864757D02*
X121886597Y-92793328D01*
X121886597Y-92793328D02*
X122100882Y-92793328D01*
X122100882Y-92793328D02*
X122243739Y-92864757D01*
X124029454Y-92436185D02*
X124100882Y-92364757D01*
X124100882Y-92364757D02*
X124243740Y-92293328D01*
X124243740Y-92293328D02*
X124600882Y-92293328D01*
X124600882Y-92293328D02*
X124743740Y-92364757D01*
X124743740Y-92364757D02*
X124815168Y-92436185D01*
X124815168Y-92436185D02*
X124886597Y-92579042D01*
X124886597Y-92579042D02*
X124886597Y-92721900D01*
X124886597Y-92721900D02*
X124815168Y-92936185D01*
X124815168Y-92936185D02*
X123958025Y-93793328D01*
X123958025Y-93793328D02*
X124886597Y-93793328D01*
X125815168Y-92293328D02*
X125958025Y-92293328D01*
X125958025Y-92293328D02*
X126100882Y-92364757D01*
X126100882Y-92364757D02*
X126172311Y-92436185D01*
X126172311Y-92436185D02*
X126243739Y-92579042D01*
X126243739Y-92579042D02*
X126315168Y-92864757D01*
X126315168Y-92864757D02*
X126315168Y-93221900D01*
X126315168Y-93221900D02*
X126243739Y-93507614D01*
X126243739Y-93507614D02*
X126172311Y-93650471D01*
X126172311Y-93650471D02*
X126100882Y-93721900D01*
X126100882Y-93721900D02*
X125958025Y-93793328D01*
X125958025Y-93793328D02*
X125815168Y-93793328D01*
X125815168Y-93793328D02*
X125672311Y-93721900D01*
X125672311Y-93721900D02*
X125600882Y-93650471D01*
X125600882Y-93650471D02*
X125529453Y-93507614D01*
X125529453Y-93507614D02*
X125458025Y-93221900D01*
X125458025Y-93221900D02*
X125458025Y-92864757D01*
X125458025Y-92864757D02*
X125529453Y-92579042D01*
X125529453Y-92579042D02*
X125600882Y-92436185D01*
X125600882Y-92436185D02*
X125672311Y-92364757D01*
X125672311Y-92364757D02*
X125815168Y-92293328D01*
X127743739Y-93793328D02*
X126886596Y-93793328D01*
X127315167Y-93793328D02*
X127315167Y-92293328D01*
X127315167Y-92293328D02*
X127172310Y-92507614D01*
X127172310Y-92507614D02*
X127029453Y-92650471D01*
X127029453Y-92650471D02*
X126886596Y-92721900D01*
X129100881Y-92293328D02*
X128386595Y-92293328D01*
X128386595Y-92293328D02*
X128315167Y-93007614D01*
X128315167Y-93007614D02*
X128386595Y-92936185D01*
X128386595Y-92936185D02*
X128529453Y-92864757D01*
X128529453Y-92864757D02*
X128886595Y-92864757D01*
X128886595Y-92864757D02*
X129029453Y-92936185D01*
X129029453Y-92936185D02*
X129100881Y-93007614D01*
X129100881Y-93007614D02*
X129172310Y-93150471D01*
X129172310Y-93150471D02*
X129172310Y-93507614D01*
X129172310Y-93507614D02*
X129100881Y-93650471D01*
X129100881Y-93650471D02*
X129029453Y-93721900D01*
X129029453Y-93721900D02*
X128886595Y-93793328D01*
X128886595Y-93793328D02*
X128529453Y-93793328D01*
X128529453Y-93793328D02*
X128386595Y-93721900D01*
X128386595Y-93721900D02*
X128315167Y-93650471D01*
D10*
D11*
X77002200Y-94507200D02*
X185002200Y-94507200D01*
D10*
D11*
X78458026Y-96593328D02*
X78458026Y-95093328D01*
X79315169Y-96593328D02*
X78672312Y-95736185D01*
X79315169Y-95093328D02*
X78458026Y-95950471D01*
X79958026Y-96593328D02*
X79958026Y-95593328D01*
X79958026Y-95093328D02*
X79886598Y-95164757D01*
X79886598Y-95164757D02*
X79958026Y-95236185D01*
X79958026Y-95236185D02*
X80029455Y-95164757D01*
X80029455Y-95164757D02*
X79958026Y-95093328D01*
X79958026Y-95093328D02*
X79958026Y-95236185D01*
X81529455Y-96450471D02*
X81458027Y-96521900D01*
X81458027Y-96521900D02*
X81243741Y-96593328D01*
X81243741Y-96593328D02*
X81100884Y-96593328D01*
X81100884Y-96593328D02*
X80886598Y-96521900D01*
X80886598Y-96521900D02*
X80743741Y-96379042D01*
X80743741Y-96379042D02*
X80672312Y-96236185D01*
X80672312Y-96236185D02*
X80600884Y-95950471D01*
X80600884Y-95950471D02*
X80600884Y-95736185D01*
X80600884Y-95736185D02*
X80672312Y-95450471D01*
X80672312Y-95450471D02*
X80743741Y-95307614D01*
X80743741Y-95307614D02*
X80886598Y-95164757D01*
X80886598Y-95164757D02*
X81100884Y-95093328D01*
X81100884Y-95093328D02*
X81243741Y-95093328D01*
X81243741Y-95093328D02*
X81458027Y-95164757D01*
X81458027Y-95164757D02*
X81529455Y-95236185D01*
X82815170Y-96593328D02*
X82815170Y-95807614D01*
X82815170Y-95807614D02*
X82743741Y-95664757D01*
X82743741Y-95664757D02*
X82600884Y-95593328D01*
X82600884Y-95593328D02*
X82315170Y-95593328D01*
X82315170Y-95593328D02*
X82172312Y-95664757D01*
X82815170Y-96521900D02*
X82672312Y-96593328D01*
X82672312Y-96593328D02*
X82315170Y-96593328D01*
X82315170Y-96593328D02*
X82172312Y-96521900D01*
X82172312Y-96521900D02*
X82100884Y-96379042D01*
X82100884Y-96379042D02*
X82100884Y-96236185D01*
X82100884Y-96236185D02*
X82172312Y-96093328D01*
X82172312Y-96093328D02*
X82315170Y-96021900D01*
X82315170Y-96021900D02*
X82672312Y-96021900D01*
X82672312Y-96021900D02*
X82815170Y-95950471D01*
X84172313Y-96593328D02*
X84172313Y-95093328D01*
X84172313Y-96521900D02*
X84029455Y-96593328D01*
X84029455Y-96593328D02*
X83743741Y-96593328D01*
X83743741Y-96593328D02*
X83600884Y-96521900D01*
X83600884Y-96521900D02*
X83529455Y-96450471D01*
X83529455Y-96450471D02*
X83458027Y-96307614D01*
X83458027Y-96307614D02*
X83458027Y-95879042D01*
X83458027Y-95879042D02*
X83529455Y-95736185D01*
X83529455Y-95736185D02*
X83600884Y-95664757D01*
X83600884Y-95664757D02*
X83743741Y-95593328D01*
X83743741Y-95593328D02*
X84029455Y-95593328D01*
X84029455Y-95593328D02*
X84172313Y-95664757D01*
X86029455Y-95807614D02*
X86529455Y-95807614D01*
X86743741Y-96593328D02*
X86029455Y-96593328D01*
X86029455Y-96593328D02*
X86029455Y-95093328D01*
X86029455Y-95093328D02*
X86743741Y-95093328D01*
X87386598Y-96450471D02*
X87458027Y-96521900D01*
X87458027Y-96521900D02*
X87386598Y-96593328D01*
X87386598Y-96593328D02*
X87315170Y-96521900D01*
X87315170Y-96521900D02*
X87386598Y-96450471D01*
X87386598Y-96450471D02*
X87386598Y-96593328D01*
X88100884Y-96593328D02*
X88100884Y-95093328D01*
X88100884Y-95093328D02*
X88458027Y-95093328D01*
X88458027Y-95093328D02*
X88672313Y-95164757D01*
X88672313Y-95164757D02*
X88815170Y-95307614D01*
X88815170Y-95307614D02*
X88886599Y-95450471D01*
X88886599Y-95450471D02*
X88958027Y-95736185D01*
X88958027Y-95736185D02*
X88958027Y-95950471D01*
X88958027Y-95950471D02*
X88886599Y-96236185D01*
X88886599Y-96236185D02*
X88815170Y-96379042D01*
X88815170Y-96379042D02*
X88672313Y-96521900D01*
X88672313Y-96521900D02*
X88458027Y-96593328D01*
X88458027Y-96593328D02*
X88100884Y-96593328D01*
X89600884Y-96450471D02*
X89672313Y-96521900D01*
X89672313Y-96521900D02*
X89600884Y-96593328D01*
X89600884Y-96593328D02*
X89529456Y-96521900D01*
X89529456Y-96521900D02*
X89600884Y-96450471D01*
X89600884Y-96450471D02*
X89600884Y-96593328D01*
X90243742Y-96164757D02*
X90958028Y-96164757D01*
X90100885Y-96593328D02*
X90600885Y-95093328D01*
X90600885Y-95093328D02*
X91100885Y-96593328D01*
X91600884Y-96450471D02*
X91672313Y-96521900D01*
X91672313Y-96521900D02*
X91600884Y-96593328D01*
X91600884Y-96593328D02*
X91529456Y-96521900D01*
X91529456Y-96521900D02*
X91600884Y-96450471D01*
X91600884Y-96450471D02*
X91600884Y-96593328D01*
X93672313Y-95736185D02*
X93529456Y-95664757D01*
X93529456Y-95664757D02*
X93458027Y-95593328D01*
X93458027Y-95593328D02*
X93386599Y-95450471D01*
X93386599Y-95450471D02*
X93386599Y-95379042D01*
X93386599Y-95379042D02*
X93458027Y-95236185D01*
X93458027Y-95236185D02*
X93529456Y-95164757D01*
X93529456Y-95164757D02*
X93672313Y-95093328D01*
X93672313Y-95093328D02*
X93958027Y-95093328D01*
X93958027Y-95093328D02*
X94100885Y-95164757D01*
X94100885Y-95164757D02*
X94172313Y-95236185D01*
X94172313Y-95236185D02*
X94243742Y-95379042D01*
X94243742Y-95379042D02*
X94243742Y-95450471D01*
X94243742Y-95450471D02*
X94172313Y-95593328D01*
X94172313Y-95593328D02*
X94100885Y-95664757D01*
X94100885Y-95664757D02*
X93958027Y-95736185D01*
X93958027Y-95736185D02*
X93672313Y-95736185D01*
X93672313Y-95736185D02*
X93529456Y-95807614D01*
X93529456Y-95807614D02*
X93458027Y-95879042D01*
X93458027Y-95879042D02*
X93386599Y-96021900D01*
X93386599Y-96021900D02*
X93386599Y-96307614D01*
X93386599Y-96307614D02*
X93458027Y-96450471D01*
X93458027Y-96450471D02*
X93529456Y-96521900D01*
X93529456Y-96521900D02*
X93672313Y-96593328D01*
X93672313Y-96593328D02*
X93958027Y-96593328D01*
X93958027Y-96593328D02*
X94100885Y-96521900D01*
X94100885Y-96521900D02*
X94172313Y-96450471D01*
X94172313Y-96450471D02*
X94243742Y-96307614D01*
X94243742Y-96307614D02*
X94243742Y-96021900D01*
X94243742Y-96021900D02*
X94172313Y-95879042D01*
X94172313Y-95879042D02*
X94100885Y-95807614D01*
X94100885Y-95807614D02*
X93958027Y-95736185D01*
X94886598Y-96450471D02*
X94958027Y-96521900D01*
X94958027Y-96521900D02*
X94886598Y-96593328D01*
X94886598Y-96593328D02*
X94815170Y-96521900D01*
X94815170Y-96521900D02*
X94886598Y-96450471D01*
X94886598Y-96450471D02*
X94886598Y-96593328D01*
X95886599Y-95093328D02*
X96029456Y-95093328D01*
X96029456Y-95093328D02*
X96172313Y-95164757D01*
X96172313Y-95164757D02*
X96243742Y-95236185D01*
X96243742Y-95236185D02*
X96315170Y-95379042D01*
X96315170Y-95379042D02*
X96386599Y-95664757D01*
X96386599Y-95664757D02*
X96386599Y-96021900D01*
X96386599Y-96021900D02*
X96315170Y-96307614D01*
X96315170Y-96307614D02*
X96243742Y-96450471D01*
X96243742Y-96450471D02*
X96172313Y-96521900D01*
X96172313Y-96521900D02*
X96029456Y-96593328D01*
X96029456Y-96593328D02*
X95886599Y-96593328D01*
X95886599Y-96593328D02*
X95743742Y-96521900D01*
X95743742Y-96521900D02*
X95672313Y-96450471D01*
X95672313Y-96450471D02*
X95600884Y-96307614D01*
X95600884Y-96307614D02*
X95529456Y-96021900D01*
X95529456Y-96021900D02*
X95529456Y-95664757D01*
X95529456Y-95664757D02*
X95600884Y-95379042D01*
X95600884Y-95379042D02*
X95672313Y-95236185D01*
X95672313Y-95236185D02*
X95743742Y-95164757D01*
X95743742Y-95164757D02*
X95886599Y-95093328D01*
X97029455Y-96450471D02*
X97100884Y-96521900D01*
X97100884Y-96521900D02*
X97029455Y-96593328D01*
X97029455Y-96593328D02*
X96958027Y-96521900D01*
X96958027Y-96521900D02*
X97029455Y-96450471D01*
X97029455Y-96450471D02*
X97029455Y-96593328D01*
X98529456Y-96593328D02*
X97672313Y-96593328D01*
X98100884Y-96593328D02*
X98100884Y-95093328D01*
X98100884Y-95093328D02*
X97958027Y-95307614D01*
X97958027Y-95307614D02*
X97815170Y-95450471D01*
X97815170Y-95450471D02*
X97672313Y-95521900D01*
D10*
D11*
X77002200Y-91507200D02*
X185002200Y-91507200D01*
D10*
D12*
X164413853Y-93785528D02*
X163913853Y-93071242D01*
X163556710Y-93785528D02*
X163556710Y-92285528D01*
X163556710Y-92285528D02*
X164128139Y-92285528D01*
X164128139Y-92285528D02*
X164270996Y-92356957D01*
X164270996Y-92356957D02*
X164342425Y-92428385D01*
X164342425Y-92428385D02*
X164413853Y-92571242D01*
X164413853Y-92571242D02*
X164413853Y-92785528D01*
X164413853Y-92785528D02*
X164342425Y-92928385D01*
X164342425Y-92928385D02*
X164270996Y-92999814D01*
X164270996Y-92999814D02*
X164128139Y-93071242D01*
X164128139Y-93071242D02*
X163556710Y-93071242D01*
X165628139Y-93714100D02*
X165485282Y-93785528D01*
X165485282Y-93785528D02*
X165199568Y-93785528D01*
X165199568Y-93785528D02*
X165056710Y-93714100D01*
X165056710Y-93714100D02*
X164985282Y-93571242D01*
X164985282Y-93571242D02*
X164985282Y-92999814D01*
X164985282Y-92999814D02*
X165056710Y-92856957D01*
X165056710Y-92856957D02*
X165199568Y-92785528D01*
X165199568Y-92785528D02*
X165485282Y-92785528D01*
X165485282Y-92785528D02*
X165628139Y-92856957D01*
X165628139Y-92856957D02*
X165699568Y-92999814D01*
X165699568Y-92999814D02*
X165699568Y-93142671D01*
X165699568Y-93142671D02*
X164985282Y-93285528D01*
X166199567Y-92785528D02*
X166556710Y-93785528D01*
X166556710Y-93785528D02*
X166913853Y-92785528D01*
X167485281Y-93642671D02*
X167556710Y-93714100D01*
X167556710Y-93714100D02*
X167485281Y-93785528D01*
X167485281Y-93785528D02*
X167413853Y-93714100D01*
X167413853Y-93714100D02*
X167485281Y-93642671D01*
X167485281Y-93642671D02*
X167485281Y-93785528D01*
X167485281Y-92856957D02*
X167556710Y-92928385D01*
X167556710Y-92928385D02*
X167485281Y-92999814D01*
X167485281Y-92999814D02*
X167413853Y-92928385D01*
X167413853Y-92928385D02*
X167485281Y-92856957D01*
X167485281Y-92856957D02*
X167485281Y-92999814D01*
D10*
D11*
X78386598Y-93721900D02*
X78600884Y-93793328D01*
X78600884Y-93793328D02*
X78958026Y-93793328D01*
X78958026Y-93793328D02*
X79100884Y-93721900D01*
X79100884Y-93721900D02*
X79172312Y-93650471D01*
X79172312Y-93650471D02*
X79243741Y-93507614D01*
X79243741Y-93507614D02*
X79243741Y-93364757D01*
X79243741Y-93364757D02*
X79172312Y-93221900D01*
X79172312Y-93221900D02*
X79100884Y-93150471D01*
X79100884Y-93150471D02*
X78958026Y-93079042D01*
X78958026Y-93079042D02*
X78672312Y-93007614D01*
X78672312Y-93007614D02*
X78529455Y-92936185D01*
X78529455Y-92936185D02*
X78458026Y-92864757D01*
X78458026Y-92864757D02*
X78386598Y-92721900D01*
X78386598Y-92721900D02*
X78386598Y-92579042D01*
X78386598Y-92579042D02*
X78458026Y-92436185D01*
X78458026Y-92436185D02*
X78529455Y-92364757D01*
X78529455Y-92364757D02*
X78672312Y-92293328D01*
X78672312Y-92293328D02*
X79029455Y-92293328D01*
X79029455Y-92293328D02*
X79243741Y-92364757D01*
X79886597Y-93793328D02*
X79886597Y-92793328D01*
X79886597Y-92293328D02*
X79815169Y-92364757D01*
X79815169Y-92364757D02*
X79886597Y-92436185D01*
X79886597Y-92436185D02*
X79958026Y-92364757D01*
X79958026Y-92364757D02*
X79886597Y-92293328D01*
X79886597Y-92293328D02*
X79886597Y-92436185D01*
X80458026Y-92793328D02*
X81243741Y-92793328D01*
X81243741Y-92793328D02*
X80458026Y-93793328D01*
X80458026Y-93793328D02*
X81243741Y-93793328D01*
X82386598Y-93721900D02*
X82243741Y-93793328D01*
X82243741Y-93793328D02*
X81958027Y-93793328D01*
X81958027Y-93793328D02*
X81815169Y-93721900D01*
X81815169Y-93721900D02*
X81743741Y-93579042D01*
X81743741Y-93579042D02*
X81743741Y-93007614D01*
X81743741Y-93007614D02*
X81815169Y-92864757D01*
X81815169Y-92864757D02*
X81958027Y-92793328D01*
X81958027Y-92793328D02*
X82243741Y-92793328D01*
X82243741Y-92793328D02*
X82386598Y-92864757D01*
X82386598Y-92864757D02*
X82458027Y-93007614D01*
X82458027Y-93007614D02*
X82458027Y-93150471D01*
X82458027Y-93150471D02*
X81743741Y-93293328D01*
X83100883Y-93650471D02*
X83172312Y-93721900D01*
X83172312Y-93721900D02*
X83100883Y-93793328D01*
X83100883Y-93793328D02*
X83029455Y-93721900D01*
X83029455Y-93721900D02*
X83100883Y-93650471D01*
X83100883Y-93650471D02*
X83100883Y-93793328D01*
X83100883Y-92864757D02*
X83172312Y-92936185D01*
X83172312Y-92936185D02*
X83100883Y-93007614D01*
X83100883Y-93007614D02*
X83029455Y-92936185D01*
X83029455Y-92936185D02*
X83100883Y-92864757D01*
X83100883Y-92864757D02*
X83100883Y-93007614D01*
X84886598Y-93364757D02*
X85600884Y-93364757D01*
X84743741Y-93793328D02*
X85243741Y-92293328D01*
X85243741Y-92293328D02*
X85743741Y-93793328D01*
X86886598Y-92793328D02*
X86886598Y-93793328D01*
X86529455Y-92221900D02*
X86172312Y-93293328D01*
X86172312Y-93293328D02*
X87100883Y-93293328D01*
D10*
D11*
X163458026Y-96593328D02*
X163458026Y-95093328D01*
X164815170Y-96593328D02*
X164815170Y-95093328D01*
X164815170Y-96521900D02*
X164672312Y-96593328D01*
X164672312Y-96593328D02*
X164386598Y-96593328D01*
X164386598Y-96593328D02*
X164243741Y-96521900D01*
X164243741Y-96521900D02*
X164172312Y-96450471D01*
X164172312Y-96450471D02*
X164100884Y-96307614D01*
X164100884Y-96307614D02*
X164100884Y-95879042D01*
X164100884Y-95879042D02*
X164172312Y-95736185D01*
X164172312Y-95736185D02*
X164243741Y-95664757D01*
X164243741Y-95664757D02*
X164386598Y-95593328D01*
X164386598Y-95593328D02*
X164672312Y-95593328D01*
X164672312Y-95593328D02*
X164815170Y-95664757D01*
X165529455Y-96450471D02*
X165600884Y-96521900D01*
X165600884Y-96521900D02*
X165529455Y-96593328D01*
X165529455Y-96593328D02*
X165458027Y-96521900D01*
X165458027Y-96521900D02*
X165529455Y-96450471D01*
X165529455Y-96450471D02*
X165529455Y-96593328D01*
X165529455Y-95664757D02*
X165600884Y-95736185D01*
X165600884Y-95736185D02*
X165529455Y-95807614D01*
X165529455Y-95807614D02*
X165458027Y-95736185D01*
X165458027Y-95736185D02*
X165529455Y-95664757D01*
X165529455Y-95664757D02*
X165529455Y-95807614D01*
X168172313Y-96593328D02*
X167315170Y-96593328D01*
X167743741Y-96593328D02*
X167743741Y-95093328D01*
X167743741Y-95093328D02*
X167600884Y-95307614D01*
X167600884Y-95307614D02*
X167458027Y-95450471D01*
X167458027Y-95450471D02*
X167315170Y-95521900D01*
X169886598Y-95021900D02*
X168600884Y-96950471D01*
X171172313Y-96593328D02*
X170315170Y-96593328D01*
X170743741Y-96593328D02*
X170743741Y-95093328D01*
X170743741Y-95093328D02*
X170600884Y-95307614D01*
X170600884Y-95307614D02*
X170458027Y-95450471D01*
X170458027Y-95450471D02*
X170315170Y-95521900D01*
D10*
D11*
X77002200Y-87507200D02*
X185002200Y-87507200D01*
D10*
D13*
X78693928Y-88211638D02*
X79836785Y-88211638D01*
X79015357Y-90211638D02*
X79265357Y-88211638D01*
X80253452Y-90211638D02*
X80420119Y-88878304D01*
X80503452Y-88211638D02*
X80396309Y-88306876D01*
X80396309Y-88306876D02*
X80479643Y-88402114D01*
X80479643Y-88402114D02*
X80586786Y-88306876D01*
X80586786Y-88306876D02*
X80503452Y-88211638D01*
X80503452Y-88211638D02*
X80479643Y-88402114D01*
X81086786Y-88878304D02*
X81848690Y-88878304D01*
X81455833Y-88211638D02*
X81241548Y-89925923D01*
X81241548Y-89925923D02*
X81312976Y-90116400D01*
X81312976Y-90116400D02*
X81491548Y-90211638D01*
X81491548Y-90211638D02*
X81682024Y-90211638D01*
X82634405Y-90211638D02*
X82455833Y-90116400D01*
X82455833Y-90116400D02*
X82384405Y-89925923D01*
X82384405Y-89925923D02*
X82598690Y-88211638D01*
X84170119Y-90116400D02*
X83967738Y-90211638D01*
X83967738Y-90211638D02*
X83586785Y-90211638D01*
X83586785Y-90211638D02*
X83408214Y-90116400D01*
X83408214Y-90116400D02*
X83336785Y-89925923D01*
X83336785Y-89925923D02*
X83432024Y-89164019D01*
X83432024Y-89164019D02*
X83551071Y-88973542D01*
X83551071Y-88973542D02*
X83753452Y-88878304D01*
X83753452Y-88878304D02*
X84134404Y-88878304D01*
X84134404Y-88878304D02*
X84312976Y-88973542D01*
X84312976Y-88973542D02*
X84384404Y-89164019D01*
X84384404Y-89164019D02*
X84360595Y-89354495D01*
X84360595Y-89354495D02*
X83384404Y-89544971D01*
X85134405Y-90021161D02*
X85217738Y-90116400D01*
X85217738Y-90116400D02*
X85110595Y-90211638D01*
X85110595Y-90211638D02*
X85027262Y-90116400D01*
X85027262Y-90116400D02*
X85134405Y-90021161D01*
X85134405Y-90021161D02*
X85110595Y-90211638D01*
X85265357Y-88973542D02*
X85348690Y-89068780D01*
X85348690Y-89068780D02*
X85241548Y-89164019D01*
X85241548Y-89164019D02*
X85158214Y-89068780D01*
X85158214Y-89068780D02*
X85265357Y-88973542D01*
X85265357Y-88973542D02*
X85241548Y-89164019D01*
X87551072Y-88211638D02*
X87967739Y-90211638D01*
X87967739Y-90211638D02*
X88884405Y-88211638D01*
X89301072Y-90211638D02*
X89467739Y-88878304D01*
X89551072Y-88211638D02*
X89443929Y-88306876D01*
X89443929Y-88306876D02*
X89527263Y-88402114D01*
X89527263Y-88402114D02*
X89634406Y-88306876D01*
X89634406Y-88306876D02*
X89551072Y-88211638D01*
X89551072Y-88211638D02*
X89527263Y-88402114D01*
X90420120Y-88878304D02*
X90253453Y-90211638D01*
X90396310Y-89068780D02*
X90503453Y-88973542D01*
X90503453Y-88973542D02*
X90705834Y-88878304D01*
X90705834Y-88878304D02*
X90991548Y-88878304D01*
X90991548Y-88878304D02*
X91170120Y-88973542D01*
X91170120Y-88973542D02*
X91241548Y-89164019D01*
X91241548Y-89164019D02*
X91110596Y-90211638D01*
X92920120Y-90211638D02*
X93051072Y-89164019D01*
X93051072Y-89164019D02*
X92979644Y-88973542D01*
X92979644Y-88973542D02*
X92801072Y-88878304D01*
X92801072Y-88878304D02*
X92420120Y-88878304D01*
X92420120Y-88878304D02*
X92217739Y-88973542D01*
X92932025Y-90116400D02*
X92729644Y-90211638D01*
X92729644Y-90211638D02*
X92253453Y-90211638D01*
X92253453Y-90211638D02*
X92074882Y-90116400D01*
X92074882Y-90116400D02*
X92003453Y-89925923D01*
X92003453Y-89925923D02*
X92027263Y-89735447D01*
X92027263Y-89735447D02*
X92146311Y-89544971D01*
X92146311Y-89544971D02*
X92348692Y-89449733D01*
X92348692Y-89449733D02*
X92824882Y-89449733D01*
X92824882Y-89449733D02*
X93027263Y-89354495D01*
X93848692Y-88878304D02*
X94158216Y-90211638D01*
X94801073Y-88878304D02*
X94158216Y-90211638D01*
X94158216Y-90211638D02*
X93908216Y-90687828D01*
X93908216Y-90687828D02*
X93801073Y-90783066D01*
X93801073Y-90783066D02*
X93598692Y-90878304D01*
X97741550Y-88211638D02*
X97562978Y-89640209D01*
X97562978Y-89640209D02*
X97432026Y-89925923D01*
X97432026Y-89925923D02*
X97217740Y-90116400D01*
X97217740Y-90116400D02*
X96920121Y-90211638D01*
X96920121Y-90211638D02*
X96729645Y-90211638D01*
X99301074Y-90211638D02*
X99432026Y-89164019D01*
X99432026Y-89164019D02*
X99360598Y-88973542D01*
X99360598Y-88973542D02*
X99182026Y-88878304D01*
X99182026Y-88878304D02*
X98801074Y-88878304D01*
X98801074Y-88878304D02*
X98598693Y-88973542D01*
X99312979Y-90116400D02*
X99110598Y-90211638D01*
X99110598Y-90211638D02*
X98634407Y-90211638D01*
X98634407Y-90211638D02*
X98455836Y-90116400D01*
X98455836Y-90116400D02*
X98384407Y-89925923D01*
X98384407Y-89925923D02*
X98408217Y-89735447D01*
X98408217Y-89735447D02*
X98527265Y-89544971D01*
X98527265Y-89544971D02*
X98729646Y-89449733D01*
X98729646Y-89449733D02*
X99205836Y-89449733D01*
X99205836Y-89449733D02*
X99408217Y-89354495D01*
X100420122Y-88878304D02*
X100253455Y-90211638D01*
X100396312Y-89068780D02*
X100503455Y-88973542D01*
X100503455Y-88973542D02*
X100705836Y-88878304D01*
X100705836Y-88878304D02*
X100991550Y-88878304D01*
X100991550Y-88878304D02*
X101170122Y-88973542D01*
X101170122Y-88973542D02*
X101241550Y-89164019D01*
X101241550Y-89164019D02*
X101110598Y-90211638D01*
X103086789Y-88878304D02*
X102884408Y-90497352D01*
X102884408Y-90497352D02*
X102765360Y-90687828D01*
X102765360Y-90687828D02*
X102658217Y-90783066D01*
X102658217Y-90783066D02*
X102455836Y-90878304D01*
X102455836Y-90878304D02*
X102170122Y-90878304D01*
X102170122Y-90878304D02*
X101991551Y-90783066D01*
X102932027Y-90116400D02*
X102729646Y-90211638D01*
X102729646Y-90211638D02*
X102348694Y-90211638D01*
X102348694Y-90211638D02*
X102170122Y-90116400D01*
X102170122Y-90116400D02*
X102086789Y-90021161D01*
X102086789Y-90021161D02*
X102015360Y-89830685D01*
X102015360Y-89830685D02*
X102086789Y-89259257D01*
X102086789Y-89259257D02*
X102205836Y-89068780D01*
X102205836Y-89068780D02*
X102312979Y-88973542D01*
X102312979Y-88973542D02*
X102515360Y-88878304D01*
X102515360Y-88878304D02*
X102896313Y-88878304D01*
X102896313Y-88878304D02*
X103074884Y-88973542D01*
X103872503Y-90211638D02*
X104039170Y-88878304D01*
X104122503Y-88211638D02*
X104015360Y-88306876D01*
X104015360Y-88306876D02*
X104098694Y-88402114D01*
X104098694Y-88402114D02*
X104205837Y-88306876D01*
X104205837Y-88306876D02*
X104122503Y-88211638D01*
X104122503Y-88211638D02*
X104098694Y-88402114D01*
X105682027Y-90211638D02*
X105932027Y-88211638D01*
X105693932Y-90116400D02*
X105491551Y-90211638D01*
X105491551Y-90211638D02*
X105110599Y-90211638D01*
X105110599Y-90211638D02*
X104932027Y-90116400D01*
X104932027Y-90116400D02*
X104848694Y-90021161D01*
X104848694Y-90021161D02*
X104777265Y-89830685D01*
X104777265Y-89830685D02*
X104848694Y-89259257D01*
X104848694Y-89259257D02*
X104967741Y-89068780D01*
X104967741Y-89068780D02*
X105074884Y-88973542D01*
X105074884Y-88973542D02*
X105277265Y-88878304D01*
X105277265Y-88878304D02*
X105658218Y-88878304D01*
X105658218Y-88878304D02*
X105836789Y-88973542D01*
D10*
D11*
X78958026Y-85607614D02*
X78458026Y-85607614D01*
X78458026Y-86393328D02*
X78458026Y-84893328D01*
X78458026Y-84893328D02*
X79172312Y-84893328D01*
X79743740Y-86393328D02*
X79743740Y-85393328D01*
X79743740Y-84893328D02*
X79672312Y-84964757D01*
X79672312Y-84964757D02*
X79743740Y-85036185D01*
X79743740Y-85036185D02*
X79815169Y-84964757D01*
X79815169Y-84964757D02*
X79743740Y-84893328D01*
X79743740Y-84893328D02*
X79743740Y-85036185D01*
X80672312Y-86393328D02*
X80529455Y-86321900D01*
X80529455Y-86321900D02*
X80458026Y-86179042D01*
X80458026Y-86179042D02*
X80458026Y-84893328D01*
X81815169Y-86321900D02*
X81672312Y-86393328D01*
X81672312Y-86393328D02*
X81386598Y-86393328D01*
X81386598Y-86393328D02*
X81243740Y-86321900D01*
X81243740Y-86321900D02*
X81172312Y-86179042D01*
X81172312Y-86179042D02*
X81172312Y-85607614D01*
X81172312Y-85607614D02*
X81243740Y-85464757D01*
X81243740Y-85464757D02*
X81386598Y-85393328D01*
X81386598Y-85393328D02*
X81672312Y-85393328D01*
X81672312Y-85393328D02*
X81815169Y-85464757D01*
X81815169Y-85464757D02*
X81886598Y-85607614D01*
X81886598Y-85607614D02*
X81886598Y-85750471D01*
X81886598Y-85750471D02*
X81172312Y-85893328D01*
X82529454Y-86250471D02*
X82600883Y-86321900D01*
X82600883Y-86321900D02*
X82529454Y-86393328D01*
X82529454Y-86393328D02*
X82458026Y-86321900D01*
X82458026Y-86321900D02*
X82529454Y-86250471D01*
X82529454Y-86250471D02*
X82529454Y-86393328D01*
X82529454Y-85464757D02*
X82600883Y-85536185D01*
X82600883Y-85536185D02*
X82529454Y-85607614D01*
X82529454Y-85607614D02*
X82458026Y-85536185D01*
X82458026Y-85536185D02*
X82529454Y-85464757D01*
X82529454Y-85464757D02*
X82529454Y-85607614D01*
X85029455Y-85393328D02*
X85029455Y-86393328D01*
X84386597Y-85393328D02*
X84386597Y-86179042D01*
X84386597Y-86179042D02*
X84458026Y-86321900D01*
X84458026Y-86321900D02*
X84600883Y-86393328D01*
X84600883Y-86393328D02*
X84815169Y-86393328D01*
X84815169Y-86393328D02*
X84958026Y-86321900D01*
X84958026Y-86321900D02*
X85029455Y-86250471D01*
X85743740Y-85393328D02*
X85743740Y-86393328D01*
X85743740Y-85536185D02*
X85815169Y-85464757D01*
X85815169Y-85464757D02*
X85958026Y-85393328D01*
X85958026Y-85393328D02*
X86172312Y-85393328D01*
X86172312Y-85393328D02*
X86315169Y-85464757D01*
X86315169Y-85464757D02*
X86386598Y-85607614D01*
X86386598Y-85607614D02*
X86386598Y-86393328D01*
X87315169Y-86393328D02*
X87172312Y-86321900D01*
X87172312Y-86321900D02*
X87100883Y-86250471D01*
X87100883Y-86250471D02*
X87029455Y-86107614D01*
X87029455Y-86107614D02*
X87029455Y-85679042D01*
X87029455Y-85679042D02*
X87100883Y-85536185D01*
X87100883Y-85536185D02*
X87172312Y-85464757D01*
X87172312Y-85464757D02*
X87315169Y-85393328D01*
X87315169Y-85393328D02*
X87529455Y-85393328D01*
X87529455Y-85393328D02*
X87672312Y-85464757D01*
X87672312Y-85464757D02*
X87743741Y-85536185D01*
X87743741Y-85536185D02*
X87815169Y-85679042D01*
X87815169Y-85679042D02*
X87815169Y-86107614D01*
X87815169Y-86107614D02*
X87743741Y-86250471D01*
X87743741Y-86250471D02*
X87672312Y-86321900D01*
X87672312Y-86321900D02*
X87529455Y-86393328D01*
X87529455Y-86393328D02*
X87315169Y-86393328D01*
X89529455Y-86321900D02*
X89672312Y-86393328D01*
X89672312Y-86393328D02*
X89958026Y-86393328D01*
X89958026Y-86393328D02*
X90100883Y-86321900D01*
X90100883Y-86321900D02*
X90172312Y-86179042D01*
X90172312Y-86179042D02*
X90172312Y-86107614D01*
X90172312Y-86107614D02*
X90100883Y-85964757D01*
X90100883Y-85964757D02*
X89958026Y-85893328D01*
X89958026Y-85893328D02*
X89743741Y-85893328D01*
X89743741Y-85893328D02*
X89600883Y-85821900D01*
X89600883Y-85821900D02*
X89529455Y-85679042D01*
X89529455Y-85679042D02*
X89529455Y-85607614D01*
X89529455Y-85607614D02*
X89600883Y-85464757D01*
X89600883Y-85464757D02*
X89743741Y-85393328D01*
X89743741Y-85393328D02*
X89958026Y-85393328D01*
X89958026Y-85393328D02*
X90100883Y-85464757D01*
X90815169Y-86393328D02*
X90815169Y-84893328D01*
X91458027Y-86393328D02*
X91458027Y-85607614D01*
X91458027Y-85607614D02*
X91386598Y-85464757D01*
X91386598Y-85464757D02*
X91243741Y-85393328D01*
X91243741Y-85393328D02*
X91029455Y-85393328D01*
X91029455Y-85393328D02*
X90886598Y-85464757D01*
X90886598Y-85464757D02*
X90815169Y-85536185D01*
X92172312Y-86393328D02*
X92172312Y-85393328D01*
X92172312Y-84893328D02*
X92100884Y-84964757D01*
X92100884Y-84964757D02*
X92172312Y-85036185D01*
X92172312Y-85036185D02*
X92243741Y-84964757D01*
X92243741Y-84964757D02*
X92172312Y-84893328D01*
X92172312Y-84893328D02*
X92172312Y-85036185D01*
X93458027Y-86321900D02*
X93315170Y-86393328D01*
X93315170Y-86393328D02*
X93029456Y-86393328D01*
X93029456Y-86393328D02*
X92886598Y-86321900D01*
X92886598Y-86321900D02*
X92815170Y-86179042D01*
X92815170Y-86179042D02*
X92815170Y-85607614D01*
X92815170Y-85607614D02*
X92886598Y-85464757D01*
X92886598Y-85464757D02*
X93029456Y-85393328D01*
X93029456Y-85393328D02*
X93315170Y-85393328D01*
X93315170Y-85393328D02*
X93458027Y-85464757D01*
X93458027Y-85464757D02*
X93529456Y-85607614D01*
X93529456Y-85607614D02*
X93529456Y-85750471D01*
X93529456Y-85750471D02*
X92815170Y-85893328D01*
X94386598Y-86393328D02*
X94243741Y-86321900D01*
X94243741Y-86321900D02*
X94172312Y-86179042D01*
X94172312Y-86179042D02*
X94172312Y-84893328D01*
X95600884Y-86393328D02*
X95600884Y-84893328D01*
X95600884Y-86321900D02*
X95458026Y-86393328D01*
X95458026Y-86393328D02*
X95172312Y-86393328D01*
X95172312Y-86393328D02*
X95029455Y-86321900D01*
X95029455Y-86321900D02*
X94958026Y-86250471D01*
X94958026Y-86250471D02*
X94886598Y-86107614D01*
X94886598Y-86107614D02*
X94886598Y-85679042D01*
X94886598Y-85679042D02*
X94958026Y-85536185D01*
X94958026Y-85536185D02*
X95029455Y-85464757D01*
X95029455Y-85464757D02*
X95172312Y-85393328D01*
X95172312Y-85393328D02*
X95458026Y-85393328D01*
X95458026Y-85393328D02*
X95600884Y-85464757D01*
X96315169Y-86250471D02*
X96386598Y-86321900D01*
X96386598Y-86321900D02*
X96315169Y-86393328D01*
X96315169Y-86393328D02*
X96243741Y-86321900D01*
X96243741Y-86321900D02*
X96315169Y-86250471D01*
X96315169Y-86250471D02*
X96315169Y-86393328D01*
X97029455Y-86393328D02*
X97029455Y-84893328D01*
X97172313Y-85821900D02*
X97600884Y-86393328D01*
X97600884Y-85393328D02*
X97029455Y-85964757D01*
X98243741Y-86393328D02*
X98243741Y-85393328D01*
X98243741Y-84893328D02*
X98172313Y-84964757D01*
X98172313Y-84964757D02*
X98243741Y-85036185D01*
X98243741Y-85036185D02*
X98315170Y-84964757D01*
X98315170Y-84964757D02*
X98243741Y-84893328D01*
X98243741Y-84893328D02*
X98243741Y-85036185D01*
X99600885Y-86321900D02*
X99458027Y-86393328D01*
X99458027Y-86393328D02*
X99172313Y-86393328D01*
X99172313Y-86393328D02*
X99029456Y-86321900D01*
X99029456Y-86321900D02*
X98958027Y-86250471D01*
X98958027Y-86250471D02*
X98886599Y-86107614D01*
X98886599Y-86107614D02*
X98886599Y-85679042D01*
X98886599Y-85679042D02*
X98958027Y-85536185D01*
X98958027Y-85536185D02*
X99029456Y-85464757D01*
X99029456Y-85464757D02*
X99172313Y-85393328D01*
X99172313Y-85393328D02*
X99458027Y-85393328D01*
X99458027Y-85393328D02*
X99600885Y-85464757D01*
X100886599Y-86393328D02*
X100886599Y-85607614D01*
X100886599Y-85607614D02*
X100815170Y-85464757D01*
X100815170Y-85464757D02*
X100672313Y-85393328D01*
X100672313Y-85393328D02*
X100386599Y-85393328D01*
X100386599Y-85393328D02*
X100243741Y-85464757D01*
X100886599Y-86321900D02*
X100743741Y-86393328D01*
X100743741Y-86393328D02*
X100386599Y-86393328D01*
X100386599Y-86393328D02*
X100243741Y-86321900D01*
X100243741Y-86321900D02*
X100172313Y-86179042D01*
X100172313Y-86179042D02*
X100172313Y-86036185D01*
X100172313Y-86036185D02*
X100243741Y-85893328D01*
X100243741Y-85893328D02*
X100386599Y-85821900D01*
X100386599Y-85821900D02*
X100743741Y-85821900D01*
X100743741Y-85821900D02*
X100886599Y-85750471D01*
X102243742Y-86393328D02*
X102243742Y-84893328D01*
X102243742Y-86321900D02*
X102100884Y-86393328D01*
X102100884Y-86393328D02*
X101815170Y-86393328D01*
X101815170Y-86393328D02*
X101672313Y-86321900D01*
X101672313Y-86321900D02*
X101600884Y-86250471D01*
X101600884Y-86250471D02*
X101529456Y-86107614D01*
X101529456Y-86107614D02*
X101529456Y-85679042D01*
X101529456Y-85679042D02*
X101600884Y-85536185D01*
X101600884Y-85536185D02*
X101672313Y-85464757D01*
X101672313Y-85464757D02*
X101815170Y-85393328D01*
X101815170Y-85393328D02*
X102100884Y-85393328D01*
X102100884Y-85393328D02*
X102243742Y-85464757D01*
X102600885Y-86536185D02*
X103743742Y-86536185D01*
X104100884Y-85393328D02*
X104100884Y-86893328D01*
X104100884Y-85464757D02*
X104243742Y-85393328D01*
X104243742Y-85393328D02*
X104529456Y-85393328D01*
X104529456Y-85393328D02*
X104672313Y-85464757D01*
X104672313Y-85464757D02*
X104743742Y-85536185D01*
X104743742Y-85536185D02*
X104815170Y-85679042D01*
X104815170Y-85679042D02*
X104815170Y-86107614D01*
X104815170Y-86107614D02*
X104743742Y-86250471D01*
X104743742Y-86250471D02*
X104672313Y-86321900D01*
X104672313Y-86321900D02*
X104529456Y-86393328D01*
X104529456Y-86393328D02*
X104243742Y-86393328D01*
X104243742Y-86393328D02*
X104100884Y-86321900D01*
X106100885Y-86321900D02*
X105958027Y-86393328D01*
X105958027Y-86393328D02*
X105672313Y-86393328D01*
X105672313Y-86393328D02*
X105529456Y-86321900D01*
X105529456Y-86321900D02*
X105458027Y-86250471D01*
X105458027Y-86250471D02*
X105386599Y-86107614D01*
X105386599Y-86107614D02*
X105386599Y-85679042D01*
X105386599Y-85679042D02*
X105458027Y-85536185D01*
X105458027Y-85536185D02*
X105529456Y-85464757D01*
X105529456Y-85464757D02*
X105672313Y-85393328D01*
X105672313Y-85393328D02*
X105958027Y-85393328D01*
X105958027Y-85393328D02*
X106100885Y-85464757D01*
X106743741Y-86393328D02*
X106743741Y-84893328D01*
X106743741Y-85464757D02*
X106886599Y-85393328D01*
X106886599Y-85393328D02*
X107172313Y-85393328D01*
X107172313Y-85393328D02*
X107315170Y-85464757D01*
X107315170Y-85464757D02*
X107386599Y-85536185D01*
X107386599Y-85536185D02*
X107458027Y-85679042D01*
X107458027Y-85679042D02*
X107458027Y-86107614D01*
X107458027Y-86107614D02*
X107386599Y-86250471D01*
X107386599Y-86250471D02*
X107315170Y-86321900D01*
X107315170Y-86321900D02*
X107172313Y-86393328D01*
X107172313Y-86393328D02*
X106886599Y-86393328D01*
X106886599Y-86393328D02*
X106743741Y-86321900D01*
D10*
D11*
X77002200Y-81507200D02*
X185002200Y-81507200D01*
D10*
D11*
X78386598Y-83621900D02*
X78600884Y-83693328D01*
X78600884Y-83693328D02*
X78958026Y-83693328D01*
X78958026Y-83693328D02*
X79100884Y-83621900D01*
X79100884Y-83621900D02*
X79172312Y-83550471D01*
X79172312Y-83550471D02*
X79243741Y-83407614D01*
X79243741Y-83407614D02*
X79243741Y-83264757D01*
X79243741Y-83264757D02*
X79172312Y-83121900D01*
X79172312Y-83121900D02*
X79100884Y-83050471D01*
X79100884Y-83050471D02*
X78958026Y-82979042D01*
X78958026Y-82979042D02*
X78672312Y-82907614D01*
X78672312Y-82907614D02*
X78529455Y-82836185D01*
X78529455Y-82836185D02*
X78458026Y-82764757D01*
X78458026Y-82764757D02*
X78386598Y-82621900D01*
X78386598Y-82621900D02*
X78386598Y-82479042D01*
X78386598Y-82479042D02*
X78458026Y-82336185D01*
X78458026Y-82336185D02*
X78529455Y-82264757D01*
X78529455Y-82264757D02*
X78672312Y-82193328D01*
X78672312Y-82193328D02*
X79029455Y-82193328D01*
X79029455Y-82193328D02*
X79243741Y-82264757D01*
X79886597Y-83693328D02*
X79886597Y-82193328D01*
X80529455Y-83693328D02*
X80529455Y-82907614D01*
X80529455Y-82907614D02*
X80458026Y-82764757D01*
X80458026Y-82764757D02*
X80315169Y-82693328D01*
X80315169Y-82693328D02*
X80100883Y-82693328D01*
X80100883Y-82693328D02*
X79958026Y-82764757D01*
X79958026Y-82764757D02*
X79886597Y-82836185D01*
X81815169Y-83621900D02*
X81672312Y-83693328D01*
X81672312Y-83693328D02*
X81386598Y-83693328D01*
X81386598Y-83693328D02*
X81243740Y-83621900D01*
X81243740Y-83621900D02*
X81172312Y-83479042D01*
X81172312Y-83479042D02*
X81172312Y-82907614D01*
X81172312Y-82907614D02*
X81243740Y-82764757D01*
X81243740Y-82764757D02*
X81386598Y-82693328D01*
X81386598Y-82693328D02*
X81672312Y-82693328D01*
X81672312Y-82693328D02*
X81815169Y-82764757D01*
X81815169Y-82764757D02*
X81886598Y-82907614D01*
X81886598Y-82907614D02*
X81886598Y-83050471D01*
X81886598Y-83050471D02*
X81172312Y-83193328D01*
X83100883Y-83621900D02*
X82958026Y-83693328D01*
X82958026Y-83693328D02*
X82672312Y-83693328D01*
X82672312Y-83693328D02*
X82529454Y-83621900D01*
X82529454Y-83621900D02*
X82458026Y-83479042D01*
X82458026Y-83479042D02*
X82458026Y-82907614D01*
X82458026Y-82907614D02*
X82529454Y-82764757D01*
X82529454Y-82764757D02*
X82672312Y-82693328D01*
X82672312Y-82693328D02*
X82958026Y-82693328D01*
X82958026Y-82693328D02*
X83100883Y-82764757D01*
X83100883Y-82764757D02*
X83172312Y-82907614D01*
X83172312Y-82907614D02*
X83172312Y-83050471D01*
X83172312Y-83050471D02*
X82458026Y-83193328D01*
X83600883Y-82693328D02*
X84172311Y-82693328D01*
X83815168Y-82193328D02*
X83815168Y-83479042D01*
X83815168Y-83479042D02*
X83886597Y-83621900D01*
X83886597Y-83621900D02*
X84029454Y-83693328D01*
X84029454Y-83693328D02*
X84172311Y-83693328D01*
X84672311Y-83550471D02*
X84743740Y-83621900D01*
X84743740Y-83621900D02*
X84672311Y-83693328D01*
X84672311Y-83693328D02*
X84600883Y-83621900D01*
X84600883Y-83621900D02*
X84672311Y-83550471D01*
X84672311Y-83550471D02*
X84672311Y-83693328D01*
X84672311Y-82764757D02*
X84743740Y-82836185D01*
X84743740Y-82836185D02*
X84672311Y-82907614D01*
X84672311Y-82907614D02*
X84600883Y-82836185D01*
X84600883Y-82836185D02*
X84672311Y-82764757D01*
X84672311Y-82764757D02*
X84672311Y-82907614D01*
D10*
D12*
D10*
D11*
D10*
D11*
D10*
D11*
D10*
D11*
D10*
D11*
X97002200Y-91507200D02*
X97002200Y-94507200D01*
D10*
D11*
X161002200Y-91507200D02*
X161002200Y-98007200D01*
D14*
X29210000Y23495000D02*
X64770000Y23495000D01*
X64770000Y10160000D01*
X29210000Y10160000D01*
X29210000Y23495000D01*
X1270000Y48577500D02*
X19685000Y48577500D01*
X19685000Y635000D01*
X1270000Y635000D01*
X1270000Y48577500D01*
D11*
X39659160Y11829943D02*
X39706779Y11877562D01*
X39706779Y11877562D02*
X39802017Y11925181D01*
X39802017Y11925181D02*
X40040112Y11925181D01*
X40040112Y11925181D02*
X40135350Y11877562D01*
X40135350Y11877562D02*
X40182969Y11829943D01*
X40182969Y11829943D02*
X40230588Y11734705D01*
X40230588Y11734705D02*
X40230588Y11639467D01*
X40230588Y11639467D02*
X40182969Y11496610D01*
X40182969Y11496610D02*
X39611541Y10925181D01*
X39611541Y10925181D02*
X40230588Y10925181D01*
X54105350Y11591848D02*
X54105350Y10925181D01*
X53867255Y11972800D02*
X53629160Y11258515D01*
X53629160Y11258515D02*
X54248207Y11258515D01*
X46596541Y11925181D02*
X47215588Y11925181D01*
X47215588Y11925181D02*
X46882255Y11544229D01*
X46882255Y11544229D02*
X47025112Y11544229D01*
X47025112Y11544229D02*
X47120350Y11496610D01*
X47120350Y11496610D02*
X47167969Y11448991D01*
X47167969Y11448991D02*
X47215588Y11353753D01*
X47215588Y11353753D02*
X47215588Y11115658D01*
X47215588Y11115658D02*
X47167969Y11020420D01*
X47167969Y11020420D02*
X47120350Y10972800D01*
X47120350Y10972800D02*
X47025112Y10925181D01*
X47025112Y10925181D02*
X46739398Y10925181D01*
X46739398Y10925181D02*
X46644160Y10972800D01*
X46644160Y10972800D02*
X46596541Y11020420D01*
D12*
X18850828Y15310226D02*
X18850828Y14453083D01*
X18850828Y14881654D02*
X17350828Y14881654D01*
X17350828Y14881654D02*
X17565114Y14738797D01*
X17565114Y14738797D02*
X17707971Y14595940D01*
X17707971Y14595940D02*
X17779400Y14453083D01*
X17350828Y16595939D02*
X17350828Y16310225D01*
X17350828Y16310225D02*
X17422257Y16167368D01*
X17422257Y16167368D02*
X17493685Y16095939D01*
X17493685Y16095939D02*
X17707971Y15953082D01*
X17707971Y15953082D02*
X17993685Y15881654D01*
X17993685Y15881654D02*
X18565114Y15881654D01*
X18565114Y15881654D02*
X18707971Y15953082D01*
X18707971Y15953082D02*
X18779400Y16024511D01*
X18779400Y16024511D02*
X18850828Y16167368D01*
X18850828Y16167368D02*
X18850828Y16453082D01*
X18850828Y16453082D02*
X18779400Y16595939D01*
X18779400Y16595939D02*
X18707971Y16667368D01*
X18707971Y16667368D02*
X18565114Y16738797D01*
X18565114Y16738797D02*
X18207971Y16738797D01*
X18207971Y16738797D02*
X18065114Y16667368D01*
X18065114Y16667368D02*
X17993685Y16595939D01*
X17993685Y16595939D02*
X17922257Y16453082D01*
X17922257Y16453082D02*
X17922257Y16167368D01*
X17922257Y16167368D02*
X17993685Y16024511D01*
X17993685Y16024511D02*
X18065114Y15953082D01*
X18065114Y15953082D02*
X18207971Y15881654D01*
X18850828Y17238796D02*
X17850828Y18024510D01*
X17850828Y17238796D02*
X18850828Y18024510D01*
X17493685Y18524511D02*
X17422257Y18595939D01*
X17422257Y18595939D02*
X17350828Y18738796D01*
X17350828Y18738796D02*
X17350828Y19095939D01*
X17350828Y19095939D02*
X17422257Y19238796D01*
X17422257Y19238796D02*
X17493685Y19310225D01*
X17493685Y19310225D02*
X17636542Y19381654D01*
X17636542Y19381654D02*
X17779400Y19381654D01*
X17779400Y19381654D02*
X17993685Y19310225D01*
X17993685Y19310225D02*
X18850828Y18453082D01*
X18850828Y18453082D02*
X18850828Y19381654D01*
X18850828Y21167367D02*
X17350828Y21167367D01*
X17493685Y21810225D02*
X17422257Y21881653D01*
X17422257Y21881653D02*
X17350828Y22024510D01*
X17350828Y22024510D02*
X17350828Y22381653D01*
X17350828Y22381653D02*
X17422257Y22524510D01*
X17422257Y22524510D02*
X17493685Y22595939D01*
X17493685Y22595939D02*
X17636542Y22667368D01*
X17636542Y22667368D02*
X17779400Y22667368D01*
X17779400Y22667368D02*
X17993685Y22595939D01*
X17993685Y22595939D02*
X18850828Y21738796D01*
X18850828Y21738796D02*
X18850828Y22667368D01*
X18707971Y24167367D02*
X18779400Y24095939D01*
X18779400Y24095939D02*
X18850828Y23881653D01*
X18850828Y23881653D02*
X18850828Y23738796D01*
X18850828Y23738796D02*
X18779400Y23524510D01*
X18779400Y23524510D02*
X18636542Y23381653D01*
X18636542Y23381653D02*
X18493685Y23310224D01*
X18493685Y23310224D02*
X18207971Y23238796D01*
X18207971Y23238796D02*
X17993685Y23238796D01*
X17993685Y23238796D02*
X17707971Y23310224D01*
X17707971Y23310224D02*
X17565114Y23381653D01*
X17565114Y23381653D02*
X17422257Y23524510D01*
X17422257Y23524510D02*
X17350828Y23738796D01*
X17350828Y23738796D02*
X17350828Y23881653D01*
X17350828Y23881653D02*
X17422257Y24095939D01*
X17422257Y24095939D02*
X17493685Y24167367D01*
X18850828Y26667367D02*
X18850828Y25953081D01*
X18850828Y25953081D02*
X17350828Y25953081D01*
X18707971Y28024510D02*
X18779400Y27953082D01*
X18779400Y27953082D02*
X18850828Y27738796D01*
X18850828Y27738796D02*
X18850828Y27595939D01*
X18850828Y27595939D02*
X18779400Y27381653D01*
X18779400Y27381653D02*
X18636542Y27238796D01*
X18636542Y27238796D02*
X18493685Y27167367D01*
X18493685Y27167367D02*
X18207971Y27095939D01*
X18207971Y27095939D02*
X17993685Y27095939D01*
X17993685Y27095939D02*
X17707971Y27167367D01*
X17707971Y27167367D02*
X17565114Y27238796D01*
X17565114Y27238796D02*
X17422257Y27381653D01*
X17422257Y27381653D02*
X17350828Y27595939D01*
X17350828Y27595939D02*
X17350828Y27738796D01*
X17350828Y27738796D02*
X17422257Y27953082D01*
X17422257Y27953082D02*
X17493685Y28024510D01*
X18850828Y28667367D02*
X17350828Y28667367D01*
X17350828Y28667367D02*
X17350828Y29024510D01*
X17350828Y29024510D02*
X17422257Y29238796D01*
X17422257Y29238796D02*
X17565114Y29381653D01*
X17565114Y29381653D02*
X17707971Y29453082D01*
X17707971Y29453082D02*
X17993685Y29524510D01*
X17993685Y29524510D02*
X18207971Y29524510D01*
X18207971Y29524510D02*
X18493685Y29453082D01*
X18493685Y29453082D02*
X18636542Y29381653D01*
X18636542Y29381653D02*
X18779400Y29238796D01*
X18779400Y29238796D02*
X18850828Y29024510D01*
X18850828Y29024510D02*
X18850828Y28667367D01*
X52793937Y32868083D02*
X52722509Y32939511D01*
X52722509Y32939511D02*
X52651080Y33082368D01*
X52651080Y33082368D02*
X52651080Y33439511D01*
X52651080Y33439511D02*
X52722509Y33582368D01*
X52722509Y33582368D02*
X52793937Y33653797D01*
X52793937Y33653797D02*
X52936794Y33725226D01*
X52936794Y33725226D02*
X53079652Y33725226D01*
X53079652Y33725226D02*
X53293937Y33653797D01*
X53293937Y33653797D02*
X54151080Y32796654D01*
X54151080Y32796654D02*
X54151080Y33725226D01*
X54151080Y35153797D02*
X54151080Y34296654D01*
X54151080Y34725225D02*
X52651080Y34725225D01*
X52651080Y34725225D02*
X52865366Y34582368D01*
X52865366Y34582368D02*
X53008223Y34439511D01*
X53008223Y34439511D02*
X53079652Y34296654D01*
X53365366Y36296653D02*
X53436794Y36510939D01*
X53436794Y36510939D02*
X53508223Y36582368D01*
X53508223Y36582368D02*
X53651080Y36653796D01*
X53651080Y36653796D02*
X53865366Y36653796D01*
X53865366Y36653796D02*
X54008223Y36582368D01*
X54008223Y36582368D02*
X54079652Y36510939D01*
X54079652Y36510939D02*
X54151080Y36368082D01*
X54151080Y36368082D02*
X54151080Y35796653D01*
X54151080Y35796653D02*
X52651080Y35796653D01*
X52651080Y35796653D02*
X52651080Y36296653D01*
X52651080Y36296653D02*
X52722509Y36439510D01*
X52722509Y36439510D02*
X52793937Y36510939D01*
X52793937Y36510939D02*
X52936794Y36582368D01*
X52936794Y36582368D02*
X53079652Y36582368D01*
X53079652Y36582368D02*
X53222509Y36510939D01*
X53222509Y36510939D02*
X53293937Y36439510D01*
X53293937Y36439510D02*
X53365366Y36296653D01*
X53365366Y36296653D02*
X53365366Y35796653D01*
X53365366Y37296653D02*
X53365366Y37796653D01*
X54151080Y38010939D02*
X54151080Y37296653D01*
X54151080Y37296653D02*
X52651080Y37296653D01*
X52651080Y37296653D02*
X52651080Y38010939D01*
X54008223Y39510939D02*
X54079652Y39439511D01*
X54079652Y39439511D02*
X54151080Y39225225D01*
X54151080Y39225225D02*
X54151080Y39082368D01*
X54151080Y39082368D02*
X54079652Y38868082D01*
X54079652Y38868082D02*
X53936794Y38725225D01*
X53936794Y38725225D02*
X53793937Y38653796D01*
X53793937Y38653796D02*
X53508223Y38582368D01*
X53508223Y38582368D02*
X53293937Y38582368D01*
X53293937Y38582368D02*
X53008223Y38653796D01*
X53008223Y38653796D02*
X52865366Y38725225D01*
X52865366Y38725225D02*
X52722509Y38868082D01*
X52722509Y38868082D02*
X52651080Y39082368D01*
X52651080Y39082368D02*
X52651080Y39225225D01*
X52651080Y39225225D02*
X52722509Y39439511D01*
X52722509Y39439511D02*
X52793937Y39510939D01*
X54151080Y40939511D02*
X54151080Y40082368D01*
X54151080Y40510939D02*
X52651080Y40510939D01*
X52651080Y40510939D02*
X52865366Y40368082D01*
X52865366Y40368082D02*
X53008223Y40225225D01*
X53008223Y40225225D02*
X53079652Y40082368D01*
X52651080Y41868082D02*
X52651080Y42010939D01*
X52651080Y42010939D02*
X52722509Y42153796D01*
X52722509Y42153796D02*
X52793937Y42225224D01*
X52793937Y42225224D02*
X52936794Y42296653D01*
X52936794Y42296653D02*
X53222509Y42368082D01*
X53222509Y42368082D02*
X53579652Y42368082D01*
X53579652Y42368082D02*
X53865366Y42296653D01*
X53865366Y42296653D02*
X54008223Y42225224D01*
X54008223Y42225224D02*
X54079652Y42153796D01*
X54079652Y42153796D02*
X54151080Y42010939D01*
X54151080Y42010939D02*
X54151080Y41868082D01*
X54151080Y41868082D02*
X54079652Y41725224D01*
X54079652Y41725224D02*
X54008223Y41653796D01*
X54008223Y41653796D02*
X53865366Y41582367D01*
X53865366Y41582367D02*
X53579652Y41510939D01*
X53579652Y41510939D02*
X53222509Y41510939D01*
X53222509Y41510939D02*
X52936794Y41582367D01*
X52936794Y41582367D02*
X52793937Y41653796D01*
X52793937Y41653796D02*
X52722509Y41725224D01*
X52722509Y41725224D02*
X52651080Y41868082D01*
X54151080Y43796653D02*
X54151080Y42939510D01*
X54151080Y43368081D02*
X52651080Y43368081D01*
X52651080Y43368081D02*
X52865366Y43225224D01*
X52865366Y43225224D02*
X53008223Y43082367D01*
X53008223Y43082367D02*
X53079652Y42939510D01*
X52651080Y44296652D02*
X52651080Y45296652D01*
X52651080Y45296652D02*
X54151080Y44653795D01*
X55208853Y32868083D02*
X55137425Y32939511D01*
X55137425Y32939511D02*
X55065996Y33082368D01*
X55065996Y33082368D02*
X55065996Y33439511D01*
X55065996Y33439511D02*
X55137425Y33582368D01*
X55137425Y33582368D02*
X55208853Y33653797D01*
X55208853Y33653797D02*
X55351710Y33725226D01*
X55351710Y33725226D02*
X55494568Y33725226D01*
X55494568Y33725226D02*
X55708853Y33653797D01*
X55708853Y33653797D02*
X56565996Y32796654D01*
X56565996Y32796654D02*
X56565996Y33725226D01*
X56565996Y35153797D02*
X56565996Y34296654D01*
X56565996Y34725225D02*
X55065996Y34725225D01*
X55065996Y34725225D02*
X55280282Y34582368D01*
X55280282Y34582368D02*
X55423139Y34439511D01*
X55423139Y34439511D02*
X55494568Y34296654D01*
X55780282Y36296653D02*
X55851710Y36510939D01*
X55851710Y36510939D02*
X55923139Y36582368D01*
X55923139Y36582368D02*
X56065996Y36653796D01*
X56065996Y36653796D02*
X56280282Y36653796D01*
X56280282Y36653796D02*
X56423139Y36582368D01*
X56423139Y36582368D02*
X56494568Y36510939D01*
X56494568Y36510939D02*
X56565996Y36368082D01*
X56565996Y36368082D02*
X56565996Y35796653D01*
X56565996Y35796653D02*
X55065996Y35796653D01*
X55065996Y35796653D02*
X55065996Y36296653D01*
X55065996Y36296653D02*
X55137425Y36439510D01*
X55137425Y36439510D02*
X55208853Y36510939D01*
X55208853Y36510939D02*
X55351710Y36582368D01*
X55351710Y36582368D02*
X55494568Y36582368D01*
X55494568Y36582368D02*
X55637425Y36510939D01*
X55637425Y36510939D02*
X55708853Y36439510D01*
X55708853Y36439510D02*
X55780282Y36296653D01*
X55780282Y36296653D02*
X55780282Y35796653D01*
X55780282Y37296653D02*
X55780282Y37796653D01*
X56565996Y38010939D02*
X56565996Y37296653D01*
X56565996Y37296653D02*
X55065996Y37296653D01*
X55065996Y37296653D02*
X55065996Y38010939D01*
X56423139Y39510939D02*
X56494568Y39439511D01*
X56494568Y39439511D02*
X56565996Y39225225D01*
X56565996Y39225225D02*
X56565996Y39082368D01*
X56565996Y39082368D02*
X56494568Y38868082D01*
X56494568Y38868082D02*
X56351710Y38725225D01*
X56351710Y38725225D02*
X56208853Y38653796D01*
X56208853Y38653796D02*
X55923139Y38582368D01*
X55923139Y38582368D02*
X55708853Y38582368D01*
X55708853Y38582368D02*
X55423139Y38653796D01*
X55423139Y38653796D02*
X55280282Y38725225D01*
X55280282Y38725225D02*
X55137425Y38868082D01*
X55137425Y38868082D02*
X55065996Y39082368D01*
X55065996Y39082368D02*
X55065996Y39225225D01*
X55065996Y39225225D02*
X55137425Y39439511D01*
X55137425Y39439511D02*
X55208853Y39510939D01*
X56565996Y40939511D02*
X56565996Y40082368D01*
X56565996Y40510939D02*
X55065996Y40510939D01*
X55065996Y40510939D02*
X55280282Y40368082D01*
X55280282Y40368082D02*
X55423139Y40225225D01*
X55423139Y40225225D02*
X55494568Y40082368D01*
X55065996Y41868082D02*
X55065996Y42010939D01*
X55065996Y42010939D02*
X55137425Y42153796D01*
X55137425Y42153796D02*
X55208853Y42225224D01*
X55208853Y42225224D02*
X55351710Y42296653D01*
X55351710Y42296653D02*
X55637425Y42368082D01*
X55637425Y42368082D02*
X55994568Y42368082D01*
X55994568Y42368082D02*
X56280282Y42296653D01*
X56280282Y42296653D02*
X56423139Y42225224D01*
X56423139Y42225224D02*
X56494568Y42153796D01*
X56494568Y42153796D02*
X56565996Y42010939D01*
X56565996Y42010939D02*
X56565996Y41868082D01*
X56565996Y41868082D02*
X56494568Y41725224D01*
X56494568Y41725224D02*
X56423139Y41653796D01*
X56423139Y41653796D02*
X56280282Y41582367D01*
X56280282Y41582367D02*
X55994568Y41510939D01*
X55994568Y41510939D02*
X55637425Y41510939D01*
X55637425Y41510939D02*
X55351710Y41582367D01*
X55351710Y41582367D02*
X55208853Y41653796D01*
X55208853Y41653796D02*
X55137425Y41725224D01*
X55137425Y41725224D02*
X55065996Y41868082D01*
X56565996Y43796653D02*
X56565996Y42939510D01*
X56565996Y43368081D02*
X55065996Y43368081D01*
X55065996Y43368081D02*
X55280282Y43225224D01*
X55280282Y43225224D02*
X55423139Y43082367D01*
X55423139Y43082367D02*
X55494568Y42939510D01*
X55065996Y45153795D02*
X55065996Y44439509D01*
X55065996Y44439509D02*
X55780282Y44368081D01*
X55780282Y44368081D02*
X55708853Y44439509D01*
X55708853Y44439509D02*
X55637425Y44582366D01*
X55637425Y44582366D02*
X55637425Y44939509D01*
X55637425Y44939509D02*
X55708853Y45082366D01*
X55708853Y45082366D02*
X55780282Y45153795D01*
X55780282Y45153795D02*
X55923139Y45225224D01*
X55923139Y45225224D02*
X56280282Y45225224D01*
X56280282Y45225224D02*
X56423139Y45153795D01*
X56423139Y45153795D02*
X56494568Y45082366D01*
X56494568Y45082366D02*
X56565996Y44939509D01*
X56565996Y44939509D02*
X56565996Y44582366D01*
X56565996Y44582366D02*
X56494568Y44439509D01*
X56494568Y44439509D02*
X56423139Y44368081D01*
X57623769Y32868083D02*
X57552341Y32939511D01*
X57552341Y32939511D02*
X57480912Y33082368D01*
X57480912Y33082368D02*
X57480912Y33439511D01*
X57480912Y33439511D02*
X57552341Y33582368D01*
X57552341Y33582368D02*
X57623769Y33653797D01*
X57623769Y33653797D02*
X57766626Y33725226D01*
X57766626Y33725226D02*
X57909484Y33725226D01*
X57909484Y33725226D02*
X58123769Y33653797D01*
X58123769Y33653797D02*
X58980912Y32796654D01*
X58980912Y32796654D02*
X58980912Y33725226D01*
X58980912Y35153797D02*
X58980912Y34296654D01*
X58980912Y34725225D02*
X57480912Y34725225D01*
X57480912Y34725225D02*
X57695198Y34582368D01*
X57695198Y34582368D02*
X57838055Y34439511D01*
X57838055Y34439511D02*
X57909484Y34296654D01*
X58195198Y36296653D02*
X58266626Y36510939D01*
X58266626Y36510939D02*
X58338055Y36582368D01*
X58338055Y36582368D02*
X58480912Y36653796D01*
X58480912Y36653796D02*
X58695198Y36653796D01*
X58695198Y36653796D02*
X58838055Y36582368D01*
X58838055Y36582368D02*
X58909484Y36510939D01*
X58909484Y36510939D02*
X58980912Y36368082D01*
X58980912Y36368082D02*
X58980912Y35796653D01*
X58980912Y35796653D02*
X57480912Y35796653D01*
X57480912Y35796653D02*
X57480912Y36296653D01*
X57480912Y36296653D02*
X57552341Y36439510D01*
X57552341Y36439510D02*
X57623769Y36510939D01*
X57623769Y36510939D02*
X57766626Y36582368D01*
X57766626Y36582368D02*
X57909484Y36582368D01*
X57909484Y36582368D02*
X58052341Y36510939D01*
X58052341Y36510939D02*
X58123769Y36439510D01*
X58123769Y36439510D02*
X58195198Y36296653D01*
X58195198Y36296653D02*
X58195198Y35796653D01*
X58195198Y37296653D02*
X58195198Y37796653D01*
X58980912Y38010939D02*
X58980912Y37296653D01*
X58980912Y37296653D02*
X57480912Y37296653D01*
X57480912Y37296653D02*
X57480912Y38010939D01*
X58838055Y39510939D02*
X58909484Y39439511D01*
X58909484Y39439511D02*
X58980912Y39225225D01*
X58980912Y39225225D02*
X58980912Y39082368D01*
X58980912Y39082368D02*
X58909484Y38868082D01*
X58909484Y38868082D02*
X58766626Y38725225D01*
X58766626Y38725225D02*
X58623769Y38653796D01*
X58623769Y38653796D02*
X58338055Y38582368D01*
X58338055Y38582368D02*
X58123769Y38582368D01*
X58123769Y38582368D02*
X57838055Y38653796D01*
X57838055Y38653796D02*
X57695198Y38725225D01*
X57695198Y38725225D02*
X57552341Y38868082D01*
X57552341Y38868082D02*
X57480912Y39082368D01*
X57480912Y39082368D02*
X57480912Y39225225D01*
X57480912Y39225225D02*
X57552341Y39439511D01*
X57552341Y39439511D02*
X57623769Y39510939D01*
X58980912Y40939511D02*
X58980912Y40082368D01*
X58980912Y40510939D02*
X57480912Y40510939D01*
X57480912Y40510939D02*
X57695198Y40368082D01*
X57695198Y40368082D02*
X57838055Y40225225D01*
X57838055Y40225225D02*
X57909484Y40082368D01*
X57480912Y41868082D02*
X57480912Y42010939D01*
X57480912Y42010939D02*
X57552341Y42153796D01*
X57552341Y42153796D02*
X57623769Y42225224D01*
X57623769Y42225224D02*
X57766626Y42296653D01*
X57766626Y42296653D02*
X58052341Y42368082D01*
X58052341Y42368082D02*
X58409484Y42368082D01*
X58409484Y42368082D02*
X58695198Y42296653D01*
X58695198Y42296653D02*
X58838055Y42225224D01*
X58838055Y42225224D02*
X58909484Y42153796D01*
X58909484Y42153796D02*
X58980912Y42010939D01*
X58980912Y42010939D02*
X58980912Y41868082D01*
X58980912Y41868082D02*
X58909484Y41725224D01*
X58909484Y41725224D02*
X58838055Y41653796D01*
X58838055Y41653796D02*
X58695198Y41582367D01*
X58695198Y41582367D02*
X58409484Y41510939D01*
X58409484Y41510939D02*
X58052341Y41510939D01*
X58052341Y41510939D02*
X57766626Y41582367D01*
X57766626Y41582367D02*
X57623769Y41653796D01*
X57623769Y41653796D02*
X57552341Y41725224D01*
X57552341Y41725224D02*
X57480912Y41868082D01*
X57623769Y42939510D02*
X57552341Y43010938D01*
X57552341Y43010938D02*
X57480912Y43153795D01*
X57480912Y43153795D02*
X57480912Y43510938D01*
X57480912Y43510938D02*
X57552341Y43653795D01*
X57552341Y43653795D02*
X57623769Y43725224D01*
X57623769Y43725224D02*
X57766626Y43796653D01*
X57766626Y43796653D02*
X57909484Y43796653D01*
X57909484Y43796653D02*
X58123769Y43725224D01*
X58123769Y43725224D02*
X58980912Y42868081D01*
X58980912Y42868081D02*
X58980912Y43796653D01*
X58980912Y45225224D02*
X58980912Y44368081D01*
X58980912Y44796652D02*
X57480912Y44796652D01*
X57480912Y44796652D02*
X57695198Y44653795D01*
X57695198Y44653795D02*
X57838055Y44510938D01*
X57838055Y44510938D02*
X57909484Y44368081D01*
X60038685Y32868083D02*
X59967257Y32939511D01*
X59967257Y32939511D02*
X59895828Y33082368D01*
X59895828Y33082368D02*
X59895828Y33439511D01*
X59895828Y33439511D02*
X59967257Y33582368D01*
X59967257Y33582368D02*
X60038685Y33653797D01*
X60038685Y33653797D02*
X60181542Y33725226D01*
X60181542Y33725226D02*
X60324400Y33725226D01*
X60324400Y33725226D02*
X60538685Y33653797D01*
X60538685Y33653797D02*
X61395828Y32796654D01*
X61395828Y32796654D02*
X61395828Y33725226D01*
X61395828Y35153797D02*
X61395828Y34296654D01*
X61395828Y34725225D02*
X59895828Y34725225D01*
X59895828Y34725225D02*
X60110114Y34582368D01*
X60110114Y34582368D02*
X60252971Y34439511D01*
X60252971Y34439511D02*
X60324400Y34296654D01*
X60610114Y36296653D02*
X60681542Y36510939D01*
X60681542Y36510939D02*
X60752971Y36582368D01*
X60752971Y36582368D02*
X60895828Y36653796D01*
X60895828Y36653796D02*
X61110114Y36653796D01*
X61110114Y36653796D02*
X61252971Y36582368D01*
X61252971Y36582368D02*
X61324400Y36510939D01*
X61324400Y36510939D02*
X61395828Y36368082D01*
X61395828Y36368082D02*
X61395828Y35796653D01*
X61395828Y35796653D02*
X59895828Y35796653D01*
X59895828Y35796653D02*
X59895828Y36296653D01*
X59895828Y36296653D02*
X59967257Y36439510D01*
X59967257Y36439510D02*
X60038685Y36510939D01*
X60038685Y36510939D02*
X60181542Y36582368D01*
X60181542Y36582368D02*
X60324400Y36582368D01*
X60324400Y36582368D02*
X60467257Y36510939D01*
X60467257Y36510939D02*
X60538685Y36439510D01*
X60538685Y36439510D02*
X60610114Y36296653D01*
X60610114Y36296653D02*
X60610114Y35796653D01*
X60610114Y37296653D02*
X60610114Y37796653D01*
X61395828Y38010939D02*
X61395828Y37296653D01*
X61395828Y37296653D02*
X59895828Y37296653D01*
X59895828Y37296653D02*
X59895828Y38010939D01*
X61252971Y39510939D02*
X61324400Y39439511D01*
X61324400Y39439511D02*
X61395828Y39225225D01*
X61395828Y39225225D02*
X61395828Y39082368D01*
X61395828Y39082368D02*
X61324400Y38868082D01*
X61324400Y38868082D02*
X61181542Y38725225D01*
X61181542Y38725225D02*
X61038685Y38653796D01*
X61038685Y38653796D02*
X60752971Y38582368D01*
X60752971Y38582368D02*
X60538685Y38582368D01*
X60538685Y38582368D02*
X60252971Y38653796D01*
X60252971Y38653796D02*
X60110114Y38725225D01*
X60110114Y38725225D02*
X59967257Y38868082D01*
X59967257Y38868082D02*
X59895828Y39082368D01*
X59895828Y39082368D02*
X59895828Y39225225D01*
X59895828Y39225225D02*
X59967257Y39439511D01*
X59967257Y39439511D02*
X60038685Y39510939D01*
X61395828Y40939511D02*
X61395828Y40082368D01*
X61395828Y40510939D02*
X59895828Y40510939D01*
X59895828Y40510939D02*
X60110114Y40368082D01*
X60110114Y40368082D02*
X60252971Y40225225D01*
X60252971Y40225225D02*
X60324400Y40082368D01*
X61395828Y42368082D02*
X61395828Y41510939D01*
X61395828Y41939510D02*
X59895828Y41939510D01*
X59895828Y41939510D02*
X60110114Y41796653D01*
X60110114Y41796653D02*
X60252971Y41653796D01*
X60252971Y41653796D02*
X60324400Y41510939D01*
X60038685Y42939510D02*
X59967257Y43010938D01*
X59967257Y43010938D02*
X59895828Y43153795D01*
X59895828Y43153795D02*
X59895828Y43510938D01*
X59895828Y43510938D02*
X59967257Y43653795D01*
X59967257Y43653795D02*
X60038685Y43725224D01*
X60038685Y43725224D02*
X60181542Y43796653D01*
X60181542Y43796653D02*
X60324400Y43796653D01*
X60324400Y43796653D02*
X60538685Y43725224D01*
X60538685Y43725224D02*
X61395828Y42868081D01*
X61395828Y42868081D02*
X61395828Y43796653D01*
X59895828Y44296652D02*
X59895828Y45296652D01*
X59895828Y45296652D02*
X61395828Y44653795D01*
X26589510Y4644172D02*
X26589510Y6144172D01*
X26589510Y6144172D02*
X27160939Y6144172D01*
X27160939Y6144172D02*
X27303796Y6072743D01*
X27303796Y6072743D02*
X27375225Y6001315D01*
X27375225Y6001315D02*
X27446653Y5858458D01*
X27446653Y5858458D02*
X27446653Y5644172D01*
X27446653Y5644172D02*
X27375225Y5501315D01*
X27375225Y5501315D02*
X27303796Y5429886D01*
X27303796Y5429886D02*
X27160939Y5358458D01*
X27160939Y5358458D02*
X26589510Y5358458D01*
X28375225Y6144172D02*
X28660939Y6144172D01*
X28660939Y6144172D02*
X28803796Y6072743D01*
X28803796Y6072743D02*
X28946653Y5929886D01*
X28946653Y5929886D02*
X29018082Y5644172D01*
X29018082Y5644172D02*
X29018082Y5144172D01*
X29018082Y5144172D02*
X28946653Y4858458D01*
X28946653Y4858458D02*
X28803796Y4715600D01*
X28803796Y4715600D02*
X28660939Y4644172D01*
X28660939Y4644172D02*
X28375225Y4644172D01*
X28375225Y4644172D02*
X28232368Y4715600D01*
X28232368Y4715600D02*
X28089510Y4858458D01*
X28089510Y4858458D02*
X28018082Y5144172D01*
X28018082Y5144172D02*
X28018082Y5644172D01*
X28018082Y5644172D02*
X28089510Y5929886D01*
X28089510Y5929886D02*
X28232368Y6072743D01*
X28232368Y6072743D02*
X28375225Y6144172D01*
X29518082Y6144172D02*
X29875225Y4644172D01*
X29875225Y4644172D02*
X30160939Y5715600D01*
X30160939Y5715600D02*
X30446654Y4644172D01*
X30446654Y4644172D02*
X30803797Y6144172D01*
X31375225Y5429886D02*
X31875225Y5429886D01*
X32089511Y4644172D02*
X31375225Y4644172D01*
X31375225Y4644172D02*
X31375225Y6144172D01*
X31375225Y6144172D02*
X32089511Y6144172D01*
X33589511Y4644172D02*
X33089511Y5358458D01*
X32732368Y4644172D02*
X32732368Y6144172D01*
X32732368Y6144172D02*
X33303797Y6144172D01*
X33303797Y6144172D02*
X33446654Y6072743D01*
X33446654Y6072743D02*
X33518083Y6001315D01*
X33518083Y6001315D02*
X33589511Y5858458D01*
X33589511Y5858458D02*
X33589511Y5644172D01*
X33589511Y5644172D02*
X33518083Y5501315D01*
X33518083Y5501315D02*
X33446654Y5429886D01*
X33446654Y5429886D02*
X33303797Y5358458D01*
X33303797Y5358458D02*
X32732368Y5358458D01*
X35375225Y4644172D02*
X35375225Y6144172D01*
X35375225Y6144172D02*
X35946654Y6144172D01*
X35946654Y6144172D02*
X36089511Y6072743D01*
X36089511Y6072743D02*
X36160940Y6001315D01*
X36160940Y6001315D02*
X36232368Y5858458D01*
X36232368Y5858458D02*
X36232368Y5644172D01*
X36232368Y5644172D02*
X36160940Y5501315D01*
X36160940Y5501315D02*
X36089511Y5429886D01*
X36089511Y5429886D02*
X35946654Y5358458D01*
X35946654Y5358458D02*
X35375225Y5358458D01*
X36875225Y4644172D02*
X36875225Y6144172D01*
X37589511Y4644172D02*
X37589511Y6144172D01*
X37589511Y6144172D02*
X38446654Y4644172D01*
X38446654Y4644172D02*
X38446654Y6144172D01*
X39089512Y4715600D02*
X39303798Y4644172D01*
X39303798Y4644172D02*
X39660940Y4644172D01*
X39660940Y4644172D02*
X39803798Y4715600D01*
X39803798Y4715600D02*
X39875226Y4787029D01*
X39875226Y4787029D02*
X39946655Y4929886D01*
X39946655Y4929886D02*
X39946655Y5072743D01*
X39946655Y5072743D02*
X39875226Y5215600D01*
X39875226Y5215600D02*
X39803798Y5287029D01*
X39803798Y5287029D02*
X39660940Y5358458D01*
X39660940Y5358458D02*
X39375226Y5429886D01*
X39375226Y5429886D02*
X39232369Y5501315D01*
X39232369Y5501315D02*
X39160940Y5572743D01*
X39160940Y5572743D02*
X39089512Y5715600D01*
X39089512Y5715600D02*
X39089512Y5858458D01*
X39089512Y5858458D02*
X39160940Y6001315D01*
X39160940Y6001315D02*
X39232369Y6072743D01*
X39232369Y6072743D02*
X39375226Y6144172D01*
X39375226Y6144172D02*
X39732369Y6144172D01*
X39732369Y6144172D02*
X39946655Y6072743D01*
D11*
X33245588Y10925181D02*
X32674160Y10925181D01*
X32959874Y10925181D02*
X32959874Y11925181D01*
X32959874Y11925181D02*
X32864636Y11782324D01*
X32864636Y11782324D02*
X32769398Y11687086D01*
X32769398Y11687086D02*
X32674160Y11639467D01*
D15*
X30189949Y32115284D02*
X30136377Y32067664D01*
X30136377Y32067664D02*
X29987568Y32020045D01*
X29987568Y32020045D02*
X29892330Y32020045D01*
X29892330Y32020045D02*
X29755425Y32067664D01*
X29755425Y32067664D02*
X29672092Y32162903D01*
X29672092Y32162903D02*
X29636377Y32258141D01*
X29636377Y32258141D02*
X29612568Y32448617D01*
X29612568Y32448617D02*
X29630425Y32591474D01*
X29630425Y32591474D02*
X29701853Y32781950D01*
X29701853Y32781950D02*
X29761377Y32877188D01*
X29761377Y32877188D02*
X29868520Y32972426D01*
X29868520Y32972426D02*
X30017330Y33020045D01*
X30017330Y33020045D02*
X30112568Y33020045D01*
X30112568Y33020045D02*
X30249473Y32972426D01*
X30249473Y32972426D02*
X30291139Y32924807D01*
X30594711Y32305760D02*
X31070901Y32305760D01*
X30463758Y32020045D02*
X30922092Y33020045D01*
X30922092Y33020045D02*
X31130425Y32020045D01*
X31939949Y32020045D02*
X31463758Y32020045D01*
X31463758Y32020045D02*
X31588758Y33020045D01*
X32273282Y32020045D02*
X32398282Y33020045D01*
X33148282Y32543855D02*
X33285187Y32496236D01*
X33285187Y32496236D02*
X33326853Y32448617D01*
X33326853Y32448617D02*
X33362568Y32353379D01*
X33362568Y32353379D02*
X33344710Y32210522D01*
X33344710Y32210522D02*
X33285187Y32115284D01*
X33285187Y32115284D02*
X33231615Y32067664D01*
X33231615Y32067664D02*
X33130425Y32020045D01*
X33130425Y32020045D02*
X32749472Y32020045D01*
X32749472Y32020045D02*
X32874472Y33020045D01*
X32874472Y33020045D02*
X33207806Y33020045D01*
X33207806Y33020045D02*
X33297091Y32972426D01*
X33297091Y32972426D02*
X33338758Y32924807D01*
X33338758Y32924807D02*
X33374472Y32829569D01*
X33374472Y32829569D02*
X33362568Y32734331D01*
X33362568Y32734331D02*
X33303044Y32639093D01*
X33303044Y32639093D02*
X33249472Y32591474D01*
X33249472Y32591474D02*
X33148282Y32543855D01*
X33148282Y32543855D02*
X32814949Y32543855D01*
X34320901Y32020045D02*
X34047091Y32496236D01*
X33749472Y32020045D02*
X33874472Y33020045D01*
X33874472Y33020045D02*
X34255425Y33020045D01*
X34255425Y33020045D02*
X34344710Y32972426D01*
X34344710Y32972426D02*
X34386377Y32924807D01*
X34386377Y32924807D02*
X34422091Y32829569D01*
X34422091Y32829569D02*
X34404234Y32686712D01*
X34404234Y32686712D02*
X34344710Y32591474D01*
X34344710Y32591474D02*
X34291139Y32543855D01*
X34291139Y32543855D02*
X34189949Y32496236D01*
X34189949Y32496236D02*
X33808996Y32496236D01*
X34737568Y32305760D02*
X35213758Y32305760D01*
X34606615Y32020045D02*
X35064949Y33020045D01*
X35064949Y33020045D02*
X35273282Y32020045D01*
X35588758Y33020045D02*
X36160187Y33020045D01*
X35749473Y32020045D02*
X35874473Y33020045D01*
X36433997Y32543855D02*
X36767330Y32543855D01*
X36844711Y32020045D02*
X36368520Y32020045D01*
X36368520Y32020045D02*
X36493520Y33020045D01*
X36493520Y33020045D02*
X36969711Y33020045D01*
X37273282Y32020045D02*
X37398282Y33020045D01*
X37398282Y33020045D02*
X37636378Y33020045D01*
X37636378Y33020045D02*
X37773282Y32972426D01*
X37773282Y32972426D02*
X37856616Y32877188D01*
X37856616Y32877188D02*
X37892330Y32781950D01*
X37892330Y32781950D02*
X37916140Y32591474D01*
X37916140Y32591474D02*
X37898282Y32448617D01*
X37898282Y32448617D02*
X37826854Y32258141D01*
X37826854Y32258141D02*
X37767330Y32162903D01*
X37767330Y32162903D02*
X37660187Y32067664D01*
X37660187Y32067664D02*
X37511378Y32020045D01*
X37511378Y32020045D02*
X37273282Y32020045D01*
X38993521Y32067664D02*
X39130425Y32020045D01*
X39130425Y32020045D02*
X39368521Y32020045D01*
X39368521Y32020045D02*
X39469711Y32067664D01*
X39469711Y32067664D02*
X39523283Y32115284D01*
X39523283Y32115284D02*
X39582806Y32210522D01*
X39582806Y32210522D02*
X39594711Y32305760D01*
X39594711Y32305760D02*
X39558997Y32400998D01*
X39558997Y32400998D02*
X39517330Y32448617D01*
X39517330Y32448617D02*
X39428045Y32496236D01*
X39428045Y32496236D02*
X39243521Y32543855D01*
X39243521Y32543855D02*
X39154235Y32591474D01*
X39154235Y32591474D02*
X39112568Y32639093D01*
X39112568Y32639093D02*
X39076854Y32734331D01*
X39076854Y32734331D02*
X39088759Y32829569D01*
X39088759Y32829569D02*
X39148283Y32924807D01*
X39148283Y32924807D02*
X39201854Y32972426D01*
X39201854Y32972426D02*
X39303045Y33020045D01*
X39303045Y33020045D02*
X39541140Y33020045D01*
X39541140Y33020045D02*
X39678045Y32972426D01*
X40053045Y32543855D02*
X40386378Y32543855D01*
X40463759Y32020045D02*
X39987568Y32020045D01*
X39987568Y32020045D02*
X40112568Y33020045D01*
X40112568Y33020045D02*
X40588759Y33020045D01*
X40892330Y32020045D02*
X41017330Y33020045D01*
X41017330Y33020045D02*
X41463759Y32020045D01*
X41463759Y32020045D02*
X41588759Y33020045D01*
X41898283Y32067664D02*
X42035187Y32020045D01*
X42035187Y32020045D02*
X42273283Y32020045D01*
X42273283Y32020045D02*
X42374473Y32067664D01*
X42374473Y32067664D02*
X42428045Y32115284D01*
X42428045Y32115284D02*
X42487568Y32210522D01*
X42487568Y32210522D02*
X42499473Y32305760D01*
X42499473Y32305760D02*
X42463759Y32400998D01*
X42463759Y32400998D02*
X42422092Y32448617D01*
X42422092Y32448617D02*
X42332807Y32496236D01*
X42332807Y32496236D02*
X42148283Y32543855D01*
X42148283Y32543855D02*
X42058997Y32591474D01*
X42058997Y32591474D02*
X42017330Y32639093D01*
X42017330Y32639093D02*
X41981616Y32734331D01*
X41981616Y32734331D02*
X41993521Y32829569D01*
X41993521Y32829569D02*
X42053045Y32924807D01*
X42053045Y32924807D02*
X42106616Y32972426D01*
X42106616Y32972426D02*
X42207807Y33020045D01*
X42207807Y33020045D02*
X42445902Y33020045D01*
X42445902Y33020045D02*
X42582807Y32972426D01*
X43207807Y33020045D02*
X43398283Y33020045D01*
X43398283Y33020045D02*
X43487568Y32972426D01*
X43487568Y32972426D02*
X43570902Y32877188D01*
X43570902Y32877188D02*
X43594711Y32686712D01*
X43594711Y32686712D02*
X43553045Y32353379D01*
X43553045Y32353379D02*
X43481616Y32162903D01*
X43481616Y32162903D02*
X43374473Y32067664D01*
X43374473Y32067664D02*
X43273283Y32020045D01*
X43273283Y32020045D02*
X43082807Y32020045D01*
X43082807Y32020045D02*
X42993521Y32067664D01*
X42993521Y32067664D02*
X42910188Y32162903D01*
X42910188Y32162903D02*
X42886378Y32353379D01*
X42886378Y32353379D02*
X42928045Y32686712D01*
X42928045Y32686712D02*
X42999473Y32877188D01*
X42999473Y32877188D02*
X43106616Y32972426D01*
X43106616Y32972426D02*
X43207807Y33020045D01*
X44511378Y32020045D02*
X44237568Y32496236D01*
X43939949Y32020045D02*
X44064949Y33020045D01*
X44064949Y33020045D02*
X44445902Y33020045D01*
X44445902Y33020045D02*
X44535187Y32972426D01*
X44535187Y32972426D02*
X44576854Y32924807D01*
X44576854Y32924807D02*
X44612568Y32829569D01*
X44612568Y32829569D02*
X44594711Y32686712D01*
X44594711Y32686712D02*
X44535187Y32591474D01*
X44535187Y32591474D02*
X44481616Y32543855D01*
X44481616Y32543855D02*
X44380426Y32496236D01*
X44380426Y32496236D02*
X43999473Y32496236D01*
X44898283Y32067664D02*
X45035187Y32020045D01*
X45035187Y32020045D02*
X45273283Y32020045D01*
X45273283Y32020045D02*
X45374473Y32067664D01*
X45374473Y32067664D02*
X45428045Y32115284D01*
X45428045Y32115284D02*
X45487568Y32210522D01*
X45487568Y32210522D02*
X45499473Y32305760D01*
X45499473Y32305760D02*
X45463759Y32400998D01*
X45463759Y32400998D02*
X45422092Y32448617D01*
X45422092Y32448617D02*
X45332807Y32496236D01*
X45332807Y32496236D02*
X45148283Y32543855D01*
X45148283Y32543855D02*
X45058997Y32591474D01*
X45058997Y32591474D02*
X45017330Y32639093D01*
X45017330Y32639093D02*
X44981616Y32734331D01*
X44981616Y32734331D02*
X44993521Y32829569D01*
X44993521Y32829569D02*
X45053045Y32924807D01*
X45053045Y32924807D02*
X45106616Y32972426D01*
X45106616Y32972426D02*
X45207807Y33020045D01*
X45207807Y33020045D02*
X45445902Y33020045D01*
X45445902Y33020045D02*
X45582807Y32972426D01*
X30130425Y30410101D02*
X29558996Y30410101D01*
X29844711Y30410101D02*
X29969711Y31410101D01*
X29969711Y31410101D02*
X29856615Y31267244D01*
X29856615Y31267244D02*
X29749473Y31172006D01*
X29749473Y31172006D02*
X29648282Y31124387D01*
X30570901Y30505340D02*
X30612568Y30457720D01*
X30612568Y30457720D02*
X30558996Y30410101D01*
X30558996Y30410101D02*
X30517330Y30457720D01*
X30517330Y30457720D02*
X30570901Y30505340D01*
X30570901Y30505340D02*
X30558996Y30410101D01*
X31035186Y30410101D02*
X31160186Y31410101D01*
X31160186Y31410101D02*
X31541139Y31410101D01*
X31541139Y31410101D02*
X31630424Y31362482D01*
X31630424Y31362482D02*
X31672091Y31314863D01*
X31672091Y31314863D02*
X31707805Y31219625D01*
X31707805Y31219625D02*
X31689948Y31076768D01*
X31689948Y31076768D02*
X31630424Y30981530D01*
X31630424Y30981530D02*
X31576853Y30933911D01*
X31576853Y30933911D02*
X31475663Y30886292D01*
X31475663Y30886292D02*
X31094710Y30886292D01*
X32035186Y30410101D02*
X32160186Y31410101D01*
X32463758Y30410101D02*
X32529234Y30933911D01*
X32529234Y30933911D02*
X32493520Y31029149D01*
X32493520Y31029149D02*
X32404234Y31076768D01*
X32404234Y31076768D02*
X32261377Y31076768D01*
X32261377Y31076768D02*
X32160186Y31029149D01*
X32160186Y31029149D02*
X32106615Y30981530D01*
X29672092Y29704919D02*
X29725663Y29752538D01*
X29725663Y29752538D02*
X29826853Y29800157D01*
X29826853Y29800157D02*
X30064949Y29800157D01*
X30064949Y29800157D02*
X30154234Y29752538D01*
X30154234Y29752538D02*
X30195901Y29704919D01*
X30195901Y29704919D02*
X30231615Y29609681D01*
X30231615Y29609681D02*
X30219711Y29514443D01*
X30219711Y29514443D02*
X30154234Y29371586D01*
X30154234Y29371586D02*
X29511377Y28800157D01*
X29511377Y28800157D02*
X30130425Y28800157D01*
X30570901Y28895396D02*
X30612568Y28847776D01*
X30612568Y28847776D02*
X30558996Y28800157D01*
X30558996Y28800157D02*
X30517330Y28847776D01*
X30517330Y28847776D02*
X30570901Y28895396D01*
X30570901Y28895396D02*
X30558996Y28800157D01*
X31035186Y28800157D02*
X31160186Y29800157D01*
X31160186Y29800157D02*
X31606615Y28800157D01*
X31606615Y28800157D02*
X31731615Y29800157D01*
X32064948Y29800157D02*
X32636377Y29800157D01*
X32225663Y28800157D02*
X32350663Y29800157D01*
X33428044Y28895396D02*
X33374472Y28847776D01*
X33374472Y28847776D02*
X33225663Y28800157D01*
X33225663Y28800157D02*
X33130425Y28800157D01*
X33130425Y28800157D02*
X32993520Y28847776D01*
X32993520Y28847776D02*
X32910187Y28943015D01*
X32910187Y28943015D02*
X32874472Y29038253D01*
X32874472Y29038253D02*
X32850663Y29228729D01*
X32850663Y29228729D02*
X32868520Y29371586D01*
X32868520Y29371586D02*
X32939948Y29562062D01*
X32939948Y29562062D02*
X32999472Y29657300D01*
X32999472Y29657300D02*
X33106615Y29752538D01*
X33106615Y29752538D02*
X33255425Y29800157D01*
X33255425Y29800157D02*
X33350663Y29800157D01*
X33350663Y29800157D02*
X33487568Y29752538D01*
X33487568Y29752538D02*
X33529234Y29704919D01*
X29636377Y28190213D02*
X30255425Y28190213D01*
X30255425Y28190213D02*
X29874473Y27809261D01*
X29874473Y27809261D02*
X30017330Y27809261D01*
X30017330Y27809261D02*
X30106615Y27761642D01*
X30106615Y27761642D02*
X30148282Y27714023D01*
X30148282Y27714023D02*
X30183996Y27618785D01*
X30183996Y27618785D02*
X30154234Y27380690D01*
X30154234Y27380690D02*
X30094711Y27285452D01*
X30094711Y27285452D02*
X30041139Y27237832D01*
X30041139Y27237832D02*
X29939949Y27190213D01*
X29939949Y27190213D02*
X29654234Y27190213D01*
X29654234Y27190213D02*
X29564949Y27237832D01*
X29564949Y27237832D02*
X29523282Y27285452D01*
X30570901Y27285452D02*
X30612568Y27237832D01*
X30612568Y27237832D02*
X30558996Y27190213D01*
X30558996Y27190213D02*
X30517330Y27237832D01*
X30517330Y27237832D02*
X30570901Y27285452D01*
X30570901Y27285452D02*
X30558996Y27190213D01*
X31017329Y28190213D02*
X31588758Y28190213D01*
X31178044Y27190213D02*
X31303044Y28190213D01*
X32112568Y28190213D02*
X32303044Y28190213D01*
X32303044Y28190213D02*
X32392329Y28142594D01*
X32392329Y28142594D02*
X32475663Y28047356D01*
X32475663Y28047356D02*
X32499472Y27856880D01*
X32499472Y27856880D02*
X32457806Y27523547D01*
X32457806Y27523547D02*
X32386377Y27333071D01*
X32386377Y27333071D02*
X32279234Y27237832D01*
X32279234Y27237832D02*
X32178044Y27190213D01*
X32178044Y27190213D02*
X31987568Y27190213D01*
X31987568Y27190213D02*
X31898282Y27237832D01*
X31898282Y27237832D02*
X31814949Y27333071D01*
X31814949Y27333071D02*
X31791139Y27523547D01*
X31791139Y27523547D02*
X31832806Y27856880D01*
X31832806Y27856880D02*
X31904234Y28047356D01*
X31904234Y28047356D02*
X32011377Y28142594D01*
X32011377Y28142594D02*
X32112568Y28190213D01*
X32969710Y28190213D02*
X32868520Y27380690D01*
X32868520Y27380690D02*
X32904234Y27285452D01*
X32904234Y27285452D02*
X32945901Y27237832D01*
X32945901Y27237832D02*
X33035187Y27190213D01*
X33035187Y27190213D02*
X33225663Y27190213D01*
X33225663Y27190213D02*
X33326853Y27237832D01*
X33326853Y27237832D02*
X33380425Y27285452D01*
X33380425Y27285452D02*
X33439948Y27380690D01*
X33439948Y27380690D02*
X33541139Y28190213D01*
X34475663Y27285452D02*
X34422091Y27237832D01*
X34422091Y27237832D02*
X34273282Y27190213D01*
X34273282Y27190213D02*
X34178044Y27190213D01*
X34178044Y27190213D02*
X34041139Y27237832D01*
X34041139Y27237832D02*
X33957806Y27333071D01*
X33957806Y27333071D02*
X33922091Y27428309D01*
X33922091Y27428309D02*
X33898282Y27618785D01*
X33898282Y27618785D02*
X33916139Y27761642D01*
X33916139Y27761642D02*
X33987567Y27952118D01*
X33987567Y27952118D02*
X34047091Y28047356D01*
X34047091Y28047356D02*
X34154234Y28142594D01*
X34154234Y28142594D02*
X34303044Y28190213D01*
X34303044Y28190213D02*
X34398282Y28190213D01*
X34398282Y28190213D02*
X34535187Y28142594D01*
X34535187Y28142594D02*
X34576853Y28094975D01*
X34892329Y27190213D02*
X35017329Y28190213D01*
X34957806Y27714023D02*
X35529234Y27714023D01*
X35463758Y27190213D02*
X35588758Y28190213D01*
X30118520Y26246936D02*
X30035187Y25580269D01*
X29928044Y26627888D02*
X29600663Y25913603D01*
X29600663Y25913603D02*
X30219711Y25913603D01*
X30570901Y25675508D02*
X30612568Y25627888D01*
X30612568Y25627888D02*
X30558996Y25580269D01*
X30558996Y25580269D02*
X30517330Y25627888D01*
X30517330Y25627888D02*
X30570901Y25675508D01*
X30570901Y25675508D02*
X30558996Y25580269D01*
X31035186Y25580269D02*
X31160186Y26580269D01*
X32082805Y25580269D02*
X31808995Y26056460D01*
X31511376Y25580269D02*
X31636376Y26580269D01*
X31636376Y26580269D02*
X32017329Y26580269D01*
X32017329Y26580269D02*
X32106614Y26532650D01*
X32106614Y26532650D02*
X32148281Y26485031D01*
X32148281Y26485031D02*
X32183995Y26389793D01*
X32183995Y26389793D02*
X32166138Y26246936D01*
X32166138Y26246936D02*
X32106614Y26151698D01*
X32106614Y26151698D02*
X32053043Y26104079D01*
X32053043Y26104079D02*
X31951853Y26056460D01*
X31951853Y26056460D02*
X31570900Y26056460D01*
X30207806Y24970325D02*
X29731615Y24970325D01*
X29731615Y24970325D02*
X29624473Y24494135D01*
X29624473Y24494135D02*
X29678044Y24541754D01*
X29678044Y24541754D02*
X29779234Y24589373D01*
X29779234Y24589373D02*
X30017330Y24589373D01*
X30017330Y24589373D02*
X30106615Y24541754D01*
X30106615Y24541754D02*
X30148282Y24494135D01*
X30148282Y24494135D02*
X30183996Y24398897D01*
X30183996Y24398897D02*
X30154234Y24160802D01*
X30154234Y24160802D02*
X30094711Y24065564D01*
X30094711Y24065564D02*
X30041139Y24017944D01*
X30041139Y24017944D02*
X29939949Y23970325D01*
X29939949Y23970325D02*
X29701853Y23970325D01*
X29701853Y23970325D02*
X29612568Y24017944D01*
X29612568Y24017944D02*
X29570901Y24065564D01*
X30570901Y24065564D02*
X30612568Y24017944D01*
X30612568Y24017944D02*
X30558996Y23970325D01*
X30558996Y23970325D02*
X30517330Y24017944D01*
X30517330Y24017944D02*
X30570901Y24065564D01*
X30570901Y24065564D02*
X30558996Y23970325D01*
X31160186Y24970325D02*
X31058996Y24160802D01*
X31058996Y24160802D02*
X31094710Y24065564D01*
X31094710Y24065564D02*
X31136377Y24017944D01*
X31136377Y24017944D02*
X31225663Y23970325D01*
X31225663Y23970325D02*
X31416139Y23970325D01*
X31416139Y23970325D02*
X31517329Y24017944D01*
X31517329Y24017944D02*
X31570901Y24065564D01*
X31570901Y24065564D02*
X31630424Y24160802D01*
X31630424Y24160802D02*
X31731615Y24970325D01*
X32558996Y23970325D02*
X32082805Y23970325D01*
X32082805Y23970325D02*
X32207805Y24970325D01*
X32874472Y24970325D02*
X33445901Y24970325D01*
X33035187Y23970325D02*
X33160187Y24970325D01*
X34225663Y23970325D02*
X33951853Y24446516D01*
X33654234Y23970325D02*
X33779234Y24970325D01*
X33779234Y24970325D02*
X34160187Y24970325D01*
X34160187Y24970325D02*
X34249472Y24922706D01*
X34249472Y24922706D02*
X34291139Y24875087D01*
X34291139Y24875087D02*
X34326853Y24779849D01*
X34326853Y24779849D02*
X34308996Y24636992D01*
X34308996Y24636992D02*
X34249472Y24541754D01*
X34249472Y24541754D02*
X34195901Y24494135D01*
X34195901Y24494135D02*
X34094711Y24446516D01*
X34094711Y24446516D02*
X33713758Y24446516D01*
X34642330Y24256040D02*
X35118520Y24256040D01*
X34511377Y23970325D02*
X34969711Y24970325D01*
X34969711Y24970325D02*
X35178044Y23970325D01*
X35261377Y23875087D02*
X36023282Y23875087D01*
X36231616Y24017944D02*
X36368520Y23970325D01*
X36368520Y23970325D02*
X36606616Y23970325D01*
X36606616Y23970325D02*
X36707806Y24017944D01*
X36707806Y24017944D02*
X36761378Y24065564D01*
X36761378Y24065564D02*
X36820901Y24160802D01*
X36820901Y24160802D02*
X36832806Y24256040D01*
X36832806Y24256040D02*
X36797092Y24351278D01*
X36797092Y24351278D02*
X36755425Y24398897D01*
X36755425Y24398897D02*
X36666140Y24446516D01*
X36666140Y24446516D02*
X36481616Y24494135D01*
X36481616Y24494135D02*
X36392330Y24541754D01*
X36392330Y24541754D02*
X36350663Y24589373D01*
X36350663Y24589373D02*
X36314949Y24684611D01*
X36314949Y24684611D02*
X36326854Y24779849D01*
X36326854Y24779849D02*
X36386378Y24875087D01*
X36386378Y24875087D02*
X36439949Y24922706D01*
X36439949Y24922706D02*
X36541140Y24970325D01*
X36541140Y24970325D02*
X36779235Y24970325D01*
X36779235Y24970325D02*
X36916140Y24922706D01*
X37541140Y24970325D02*
X37731616Y24970325D01*
X37731616Y24970325D02*
X37820901Y24922706D01*
X37820901Y24922706D02*
X37904235Y24827468D01*
X37904235Y24827468D02*
X37928044Y24636992D01*
X37928044Y24636992D02*
X37886378Y24303659D01*
X37886378Y24303659D02*
X37814949Y24113183D01*
X37814949Y24113183D02*
X37707806Y24017944D01*
X37707806Y24017944D02*
X37606616Y23970325D01*
X37606616Y23970325D02*
X37416140Y23970325D01*
X37416140Y23970325D02*
X37326854Y24017944D01*
X37326854Y24017944D02*
X37243521Y24113183D01*
X37243521Y24113183D02*
X37219711Y24303659D01*
X37219711Y24303659D02*
X37261378Y24636992D01*
X37261378Y24636992D02*
X37332806Y24827468D01*
X37332806Y24827468D02*
X37439949Y24922706D01*
X37439949Y24922706D02*
X37541140Y24970325D01*
X38273282Y23970325D02*
X38398282Y24970325D01*
X38398282Y24970325D02*
X38844711Y23970325D01*
X38844711Y23970325D02*
X38969711Y24970325D01*
X39320901Y23970325D02*
X39445901Y24970325D01*
X40380425Y24065564D02*
X40326853Y24017944D01*
X40326853Y24017944D02*
X40178044Y23970325D01*
X40178044Y23970325D02*
X40082806Y23970325D01*
X40082806Y23970325D02*
X39945901Y24017944D01*
X39945901Y24017944D02*
X39862568Y24113183D01*
X39862568Y24113183D02*
X39826853Y24208421D01*
X39826853Y24208421D02*
X39803044Y24398897D01*
X39803044Y24398897D02*
X39820901Y24541754D01*
X39820901Y24541754D02*
X39892329Y24732230D01*
X39892329Y24732230D02*
X39951853Y24827468D01*
X39951853Y24827468D02*
X40058996Y24922706D01*
X40058996Y24922706D02*
X40207806Y24970325D01*
X40207806Y24970325D02*
X40303044Y24970325D01*
X40303044Y24970325D02*
X40439949Y24922706D01*
X40439949Y24922706D02*
X40481615Y24875087D01*
D12*
X50013082Y5072743D02*
X50727368Y5072743D01*
X49870225Y4644172D02*
X50370225Y6144172D01*
X50370225Y6144172D02*
X50870225Y4644172D01*
X51370224Y4644172D02*
X51370224Y6144172D01*
X51370224Y6144172D02*
X52227367Y4644172D01*
X52227367Y4644172D02*
X52227367Y6144172D01*
X52870225Y5072743D02*
X53584511Y5072743D01*
X52727368Y4644172D02*
X53227368Y6144172D01*
X53227368Y6144172D02*
X53727368Y4644172D01*
X54941653Y4644172D02*
X54227367Y4644172D01*
X54227367Y4644172D02*
X54227367Y6144172D01*
X55727368Y6144172D02*
X56013082Y6144172D01*
X56013082Y6144172D02*
X56155939Y6072743D01*
X56155939Y6072743D02*
X56298796Y5929886D01*
X56298796Y5929886D02*
X56370225Y5644172D01*
X56370225Y5644172D02*
X56370225Y5144172D01*
X56370225Y5144172D02*
X56298796Y4858458D01*
X56298796Y4858458D02*
X56155939Y4715600D01*
X56155939Y4715600D02*
X56013082Y4644172D01*
X56013082Y4644172D02*
X55727368Y4644172D01*
X55727368Y4644172D02*
X55584511Y4715600D01*
X55584511Y4715600D02*
X55441653Y4858458D01*
X55441653Y4858458D02*
X55370225Y5144172D01*
X55370225Y5144172D02*
X55370225Y5644172D01*
X55370225Y5644172D02*
X55441653Y5929886D01*
X55441653Y5929886D02*
X55584511Y6072743D01*
X55584511Y6072743D02*
X55727368Y6144172D01*
X57798797Y6072743D02*
X57655940Y6144172D01*
X57655940Y6144172D02*
X57441654Y6144172D01*
X57441654Y6144172D02*
X57227368Y6072743D01*
X57227368Y6072743D02*
X57084511Y5929886D01*
X57084511Y5929886D02*
X57013082Y5787029D01*
X57013082Y5787029D02*
X56941654Y5501315D01*
X56941654Y5501315D02*
X56941654Y5287029D01*
X56941654Y5287029D02*
X57013082Y5001315D01*
X57013082Y5001315D02*
X57084511Y4858458D01*
X57084511Y4858458D02*
X57227368Y4715600D01*
X57227368Y4715600D02*
X57441654Y4644172D01*
X57441654Y4644172D02*
X57584511Y4644172D01*
X57584511Y4644172D02*
X57798797Y4715600D01*
X57798797Y4715600D02*
X57870225Y4787029D01*
X57870225Y4787029D02*
X57870225Y5287029D01*
X57870225Y5287029D02*
X57584511Y5287029D01*
X59655939Y4644172D02*
X59655939Y6144172D01*
X59655939Y6144172D02*
X60227368Y6144172D01*
X60227368Y6144172D02*
X60370225Y6072743D01*
X60370225Y6072743D02*
X60441654Y6001315D01*
X60441654Y6001315D02*
X60513082Y5858458D01*
X60513082Y5858458D02*
X60513082Y5644172D01*
X60513082Y5644172D02*
X60441654Y5501315D01*
X60441654Y5501315D02*
X60370225Y5429886D01*
X60370225Y5429886D02*
X60227368Y5358458D01*
X60227368Y5358458D02*
X59655939Y5358458D01*
X61155939Y4644172D02*
X61155939Y6144172D01*
X61870225Y4644172D02*
X61870225Y6144172D01*
X61870225Y6144172D02*
X62727368Y4644172D01*
X62727368Y4644172D02*
X62727368Y6144172D01*
X63370226Y4715600D02*
X63584512Y4644172D01*
X63584512Y4644172D02*
X63941654Y4644172D01*
X63941654Y4644172D02*
X64084512Y4715600D01*
X64084512Y4715600D02*
X64155940Y4787029D01*
X64155940Y4787029D02*
X64227369Y4929886D01*
X64227369Y4929886D02*
X64227369Y5072743D01*
X64227369Y5072743D02*
X64155940Y5215600D01*
X64155940Y5215600D02*
X64084512Y5287029D01*
X64084512Y5287029D02*
X63941654Y5358458D01*
X63941654Y5358458D02*
X63655940Y5429886D01*
X63655940Y5429886D02*
X63513083Y5501315D01*
X63513083Y5501315D02*
X63441654Y5572743D01*
X63441654Y5572743D02*
X63370226Y5715600D01*
X63370226Y5715600D02*
X63370226Y5858458D01*
X63370226Y5858458D02*
X63441654Y6001315D01*
X63441654Y6001315D02*
X63513083Y6072743D01*
X63513083Y6072743D02*
X63655940Y6144172D01*
X63655940Y6144172D02*
X64013083Y6144172D01*
X64013083Y6144172D02*
X64227369Y6072743D01*
D11*
X61137969Y11925181D02*
X60661779Y11925181D01*
X60661779Y11925181D02*
X60614160Y11448991D01*
X60614160Y11448991D02*
X60661779Y11496610D01*
X60661779Y11496610D02*
X60757017Y11544229D01*
X60757017Y11544229D02*
X60995112Y11544229D01*
X60995112Y11544229D02*
X61090350Y11496610D01*
X61090350Y11496610D02*
X61137969Y11448991D01*
X61137969Y11448991D02*
X61185588Y11353753D01*
X61185588Y11353753D02*
X61185588Y11115658D01*
X61185588Y11115658D02*
X61137969Y11020420D01*
X61137969Y11020420D02*
X61090350Y10972800D01*
X61090350Y10972800D02*
X60995112Y10925181D01*
X60995112Y10925181D02*
X60757017Y10925181D01*
X60757017Y10925181D02*
X60661779Y10972800D01*
X60661779Y10972800D02*
X60614160Y11020420D01*
D12*
X27859510Y46554172D02*
X27859510Y48054172D01*
X27859510Y48054172D02*
X28216653Y48054172D01*
X28216653Y48054172D02*
X28430939Y47982743D01*
X28430939Y47982743D02*
X28573796Y47839886D01*
X28573796Y47839886D02*
X28645225Y47697029D01*
X28645225Y47697029D02*
X28716653Y47411315D01*
X28716653Y47411315D02*
X28716653Y47197029D01*
X28716653Y47197029D02*
X28645225Y46911315D01*
X28645225Y46911315D02*
X28573796Y46768458D01*
X28573796Y46768458D02*
X28430939Y46625600D01*
X28430939Y46625600D02*
X28216653Y46554172D01*
X28216653Y46554172D02*
X27859510Y46554172D01*
X29359510Y46554172D02*
X29359510Y48054172D01*
X30859511Y47982743D02*
X30716654Y48054172D01*
X30716654Y48054172D02*
X30502368Y48054172D01*
X30502368Y48054172D02*
X30288082Y47982743D01*
X30288082Y47982743D02*
X30145225Y47839886D01*
X30145225Y47839886D02*
X30073796Y47697029D01*
X30073796Y47697029D02*
X30002368Y47411315D01*
X30002368Y47411315D02*
X30002368Y47197029D01*
X30002368Y47197029D02*
X30073796Y46911315D01*
X30073796Y46911315D02*
X30145225Y46768458D01*
X30145225Y46768458D02*
X30288082Y46625600D01*
X30288082Y46625600D02*
X30502368Y46554172D01*
X30502368Y46554172D02*
X30645225Y46554172D01*
X30645225Y46554172D02*
X30859511Y46625600D01*
X30859511Y46625600D02*
X30930939Y46697029D01*
X30930939Y46697029D02*
X30930939Y47197029D01*
X30930939Y47197029D02*
X30645225Y47197029D01*
X31573796Y46554172D02*
X31573796Y48054172D01*
X32073797Y48054172D02*
X32930940Y48054172D01*
X32502368Y46554172D02*
X32502368Y48054172D01*
X33359511Y46982743D02*
X34073797Y46982743D01*
X33216654Y46554172D02*
X33716654Y48054172D01*
X33716654Y48054172D02*
X34216654Y46554172D01*
X35430939Y46554172D02*
X34716653Y46554172D01*
X34716653Y46554172D02*
X34716653Y48054172D01*
X37073796Y46554172D02*
X37073796Y48054172D01*
X37073796Y48054172D02*
X37645225Y48054172D01*
X37645225Y48054172D02*
X37788082Y47982743D01*
X37788082Y47982743D02*
X37859511Y47911315D01*
X37859511Y47911315D02*
X37930939Y47768458D01*
X37930939Y47768458D02*
X37930939Y47554172D01*
X37930939Y47554172D02*
X37859511Y47411315D01*
X37859511Y47411315D02*
X37788082Y47339886D01*
X37788082Y47339886D02*
X37645225Y47268458D01*
X37645225Y47268458D02*
X37073796Y47268458D01*
X38573796Y46554172D02*
X38573796Y48054172D01*
X39288082Y46554172D02*
X39288082Y48054172D01*
X39288082Y48054172D02*
X40145225Y46554172D01*
X40145225Y46554172D02*
X40145225Y48054172D01*
X40788083Y46625600D02*
X41002369Y46554172D01*
X41002369Y46554172D02*
X41359511Y46554172D01*
X41359511Y46554172D02*
X41502369Y46625600D01*
X41502369Y46625600D02*
X41573797Y46697029D01*
X41573797Y46697029D02*
X41645226Y46839886D01*
X41645226Y46839886D02*
X41645226Y46982743D01*
X41645226Y46982743D02*
X41573797Y47125600D01*
X41573797Y47125600D02*
X41502369Y47197029D01*
X41502369Y47197029D02*
X41359511Y47268458D01*
X41359511Y47268458D02*
X41073797Y47339886D01*
X41073797Y47339886D02*
X40930940Y47411315D01*
X40930940Y47411315D02*
X40859511Y47482743D01*
X40859511Y47482743D02*
X40788083Y47625600D01*
X40788083Y47625600D02*
X40788083Y47768458D01*
X40788083Y47768458D02*
X40859511Y47911315D01*
X40859511Y47911315D02*
X40930940Y47982743D01*
X40930940Y47982743D02*
X41073797Y48054172D01*
X41073797Y48054172D02*
X41430940Y48054172D01*
X41430940Y48054172D02*
X41645226Y47982743D01*
D16*
%TO.C,J1*%
X26610000Y3870000D02*
X27940000Y3870000D01*
X26610000Y2540000D02*
X26610000Y3870000D01*
X29210000Y3870000D02*
X47050000Y3870000D01*
X29210000Y1210000D02*
X29210000Y3870000D01*
X29210000Y1210000D02*
X47050000Y1210000D01*
X47050000Y1210000D02*
X47050000Y3870000D01*
%TO.C,J3*%
X49470000Y3870000D02*
X50800000Y3870000D01*
X49470000Y2540000D02*
X49470000Y3870000D01*
X52070000Y3870000D02*
X64830000Y3870000D01*
X52070000Y1210000D02*
X52070000Y3870000D01*
X52070000Y1210000D02*
X64830000Y1210000D01*
X64830000Y1210000D02*
X64830000Y3870000D01*
%TO.C,J2*%
X17466000Y52130000D02*
X18796000Y52130000D01*
X17466000Y50800000D02*
X17466000Y52130000D01*
X20066000Y52130000D02*
X42986000Y52130000D01*
X20066000Y49470000D02*
X20066000Y52130000D01*
X20066000Y49470000D02*
X42986000Y49470000D01*
X42986000Y49470000D02*
X42986000Y52130000D01*
%TO.C,J4*%
X44390000Y52130000D02*
X45720000Y52130000D01*
X44390000Y50800000D02*
X44390000Y52130000D01*
X46990000Y52130000D02*
X64830000Y52130000D01*
X46990000Y49470000D02*
X46990000Y52130000D01*
X46990000Y49470000D02*
X64830000Y49470000D01*
X64830000Y49470000D02*
X64830000Y52130000D01*
%TO.C,S6*%
X31665000Y15240000D02*
X31665000Y20380000D01*
X31665000Y12640000D02*
X31665000Y13970000D01*
X32995000Y12640000D02*
X31665000Y12640000D01*
X34325000Y20380000D02*
X31665000Y20380000D01*
X34325000Y15240000D02*
X31665000Y15240000D01*
X34325000Y15240000D02*
X34325000Y20380000D01*
%TO.C,J6*%
X59630000Y15240000D02*
X59630000Y22920000D01*
X59630000Y12640000D02*
X59630000Y13970000D01*
X60960000Y12640000D02*
X59630000Y12640000D01*
X62290000Y22920000D02*
X59630000Y22920000D01*
X62290000Y15240000D02*
X59630000Y15240000D01*
X62290000Y15240000D02*
X62290000Y22920000D01*
%TO.C,S3*%
X52638750Y15240000D02*
X52638750Y20380000D01*
X52638750Y12640000D02*
X52638750Y13970000D01*
X53968750Y12640000D02*
X52638750Y12640000D01*
X55298750Y20380000D02*
X52638750Y20380000D01*
X55298750Y15240000D02*
X52638750Y15240000D01*
X55298750Y15240000D02*
X55298750Y20380000D01*
%TO.C,S1*%
X38656250Y15240000D02*
X38656250Y20380000D01*
X38656250Y12640000D02*
X38656250Y13970000D01*
X39986250Y12640000D02*
X38656250Y12640000D01*
X41316250Y20380000D02*
X38656250Y20380000D01*
X41316250Y15240000D02*
X38656250Y15240000D01*
X41316250Y15240000D02*
X41316250Y20380000D01*
%TO.C,S2*%
X45647500Y15240000D02*
X45647500Y20380000D01*
X45647500Y12640000D02*
X45647500Y13970000D01*
X46977500Y12640000D02*
X45647500Y12640000D01*
X48307500Y20380000D02*
X45647500Y20380000D01*
X48307500Y15240000D02*
X45647500Y15240000D01*
X48307500Y15240000D02*
X48307500Y20380000D01*
%TO.C,J5*%
X2505000Y52130000D02*
X2505000Y49470000D01*
X10185000Y52130000D02*
X2505000Y52130000D01*
X10185000Y52130000D02*
X10185000Y49470000D01*
X10185000Y49470000D02*
X2505000Y49470000D01*
X12785000Y50800000D02*
X12785000Y49470000D01*
X12785000Y49470000D02*
X11455000Y49470000D01*
%TD*%
M02*
