%TF.GenerationSoftware,KiCad,Pcbnew,8.0.1*%
%TF.CreationDate,2024-04-16T15:40:23+05:30*%
%TF.ProjectId,uno shield,756e6f20-7368-4696-956c-642e6b696361,rev?*%
%TF.SameCoordinates,PX5f5e100PY5f5e100*%
%TF.FileFunction,Legend,Bot*%
%TF.FilePolarity,Positive*%
%FSLAX46Y46*%
G04 Gerber Fmt 4.6, Leading zero omitted, Abs format (unit mm)*
G04 Created by KiCad (PCBNEW 8.0.1) date 2024-04-16 15:40:23*
%MOMM*%
%LPD*%
G01*
G04 APERTURE LIST*
%ADD10C,0.100000*%
%ADD11C,0.150000*%
%ADD12C,0.300000*%
%ADD13C,0.400000*%
G04 APERTURE END LIST*
D10*
D11*
X77002200Y-66007200D02*
X185002200Y-66007200D01*
X185002200Y-98007200D01*
X77002200Y-98007200D01*
X77002200Y-66007200D01*
D10*
D11*
X-90000000Y90000000D02*
X187002200Y90000000D01*
X187002200Y-100007200D01*
X-90000000Y-100007200D01*
X-90000000Y90000000D01*
D10*
D11*
X-88000000Y88000000D02*
X185002200Y88000000D01*
X185002200Y-98007200D01*
X-88000000Y-98007200D01*
X-88000000Y88000000D01*
D10*
D11*
X-40000000Y88000000D02*
X-40000000Y90000000D01*
D10*
D11*
X10000000Y88000000D02*
X10000000Y90000000D01*
D10*
D11*
X60000000Y88000000D02*
X60000000Y90000000D01*
D10*
D11*
X110000000Y88000000D02*
X110000000Y90000000D01*
D10*
D11*
X160000000Y88000000D02*
X160000000Y90000000D01*
D10*
D11*
X-63910840Y88406396D02*
X-64653697Y88406396D01*
X-64282269Y88406396D02*
X-64282269Y89706396D01*
X-64282269Y89706396D02*
X-64406078Y89520681D01*
X-64406078Y89520681D02*
X-64529888Y89396872D01*
X-64529888Y89396872D02*
X-64653697Y89334967D01*
D10*
D11*
X-14653697Y89582586D02*
X-14591793Y89644491D01*
X-14591793Y89644491D02*
X-14467983Y89706396D01*
X-14467983Y89706396D02*
X-14158459Y89706396D01*
X-14158459Y89706396D02*
X-14034650Y89644491D01*
X-14034650Y89644491D02*
X-13972745Y89582586D01*
X-13972745Y89582586D02*
X-13910840Y89458777D01*
X-13910840Y89458777D02*
X-13910840Y89334967D01*
X-13910840Y89334967D02*
X-13972745Y89149253D01*
X-13972745Y89149253D02*
X-14715602Y88406396D01*
X-14715602Y88406396D02*
X-13910840Y88406396D01*
D10*
D11*
X35284398Y89706396D02*
X36089160Y89706396D01*
X36089160Y89706396D02*
X35655826Y89211158D01*
X35655826Y89211158D02*
X35841541Y89211158D01*
X35841541Y89211158D02*
X35965350Y89149253D01*
X35965350Y89149253D02*
X36027255Y89087348D01*
X36027255Y89087348D02*
X36089160Y88963539D01*
X36089160Y88963539D02*
X36089160Y88654015D01*
X36089160Y88654015D02*
X36027255Y88530205D01*
X36027255Y88530205D02*
X35965350Y88468300D01*
X35965350Y88468300D02*
X35841541Y88406396D01*
X35841541Y88406396D02*
X35470112Y88406396D01*
X35470112Y88406396D02*
X35346303Y88468300D01*
X35346303Y88468300D02*
X35284398Y88530205D01*
D10*
D11*
X85965350Y89273062D02*
X85965350Y88406396D01*
X85655826Y89768300D02*
X85346303Y88839729D01*
X85346303Y88839729D02*
X86151064Y88839729D01*
D10*
D11*
X136027255Y89706396D02*
X135408207Y89706396D01*
X135408207Y89706396D02*
X135346303Y89087348D01*
X135346303Y89087348D02*
X135408207Y89149253D01*
X135408207Y89149253D02*
X135532017Y89211158D01*
X135532017Y89211158D02*
X135841541Y89211158D01*
X135841541Y89211158D02*
X135965350Y89149253D01*
X135965350Y89149253D02*
X136027255Y89087348D01*
X136027255Y89087348D02*
X136089160Y88963539D01*
X136089160Y88963539D02*
X136089160Y88654015D01*
X136089160Y88654015D02*
X136027255Y88530205D01*
X136027255Y88530205D02*
X135965350Y88468300D01*
X135965350Y88468300D02*
X135841541Y88406396D01*
X135841541Y88406396D02*
X135532017Y88406396D01*
X135532017Y88406396D02*
X135408207Y88468300D01*
X135408207Y88468300D02*
X135346303Y88530205D01*
D10*
D11*
X185965350Y89706396D02*
X185717731Y89706396D01*
X185717731Y89706396D02*
X185593922Y89644491D01*
X185593922Y89644491D02*
X185532017Y89582586D01*
X185532017Y89582586D02*
X185408207Y89396872D01*
X185408207Y89396872D02*
X185346303Y89149253D01*
X185346303Y89149253D02*
X185346303Y88654015D01*
X185346303Y88654015D02*
X185408207Y88530205D01*
X185408207Y88530205D02*
X185470112Y88468300D01*
X185470112Y88468300D02*
X185593922Y88406396D01*
X185593922Y88406396D02*
X185841541Y88406396D01*
X185841541Y88406396D02*
X185965350Y88468300D01*
X185965350Y88468300D02*
X186027255Y88530205D01*
X186027255Y88530205D02*
X186089160Y88654015D01*
X186089160Y88654015D02*
X186089160Y88963539D01*
X186089160Y88963539D02*
X186027255Y89087348D01*
X186027255Y89087348D02*
X185965350Y89149253D01*
X185965350Y89149253D02*
X185841541Y89211158D01*
X185841541Y89211158D02*
X185593922Y89211158D01*
X185593922Y89211158D02*
X185470112Y89149253D01*
X185470112Y89149253D02*
X185408207Y89087348D01*
X185408207Y89087348D02*
X185346303Y88963539D01*
D10*
D11*
X-40000000Y-98007200D02*
X-40000000Y-100007200D01*
D10*
D11*
X10000000Y-98007200D02*
X10000000Y-100007200D01*
D10*
D11*
X60000000Y-98007200D02*
X60000000Y-100007200D01*
D10*
D11*
X110000000Y-98007200D02*
X110000000Y-100007200D01*
D10*
D11*
X160000000Y-98007200D02*
X160000000Y-100007200D01*
D10*
D11*
X-63910840Y-99600804D02*
X-64653697Y-99600804D01*
X-64282269Y-99600804D02*
X-64282269Y-98300804D01*
X-64282269Y-98300804D02*
X-64406078Y-98486519D01*
X-64406078Y-98486519D02*
X-64529888Y-98610328D01*
X-64529888Y-98610328D02*
X-64653697Y-98672233D01*
D10*
D11*
X-14653697Y-98424614D02*
X-14591793Y-98362709D01*
X-14591793Y-98362709D02*
X-14467983Y-98300804D01*
X-14467983Y-98300804D02*
X-14158459Y-98300804D01*
X-14158459Y-98300804D02*
X-14034650Y-98362709D01*
X-14034650Y-98362709D02*
X-13972745Y-98424614D01*
X-13972745Y-98424614D02*
X-13910840Y-98548423D01*
X-13910840Y-98548423D02*
X-13910840Y-98672233D01*
X-13910840Y-98672233D02*
X-13972745Y-98857947D01*
X-13972745Y-98857947D02*
X-14715602Y-99600804D01*
X-14715602Y-99600804D02*
X-13910840Y-99600804D01*
D10*
D11*
X35284398Y-98300804D02*
X36089160Y-98300804D01*
X36089160Y-98300804D02*
X35655826Y-98796042D01*
X35655826Y-98796042D02*
X35841541Y-98796042D01*
X35841541Y-98796042D02*
X35965350Y-98857947D01*
X35965350Y-98857947D02*
X36027255Y-98919852D01*
X36027255Y-98919852D02*
X36089160Y-99043661D01*
X36089160Y-99043661D02*
X36089160Y-99353185D01*
X36089160Y-99353185D02*
X36027255Y-99476995D01*
X36027255Y-99476995D02*
X35965350Y-99538900D01*
X35965350Y-99538900D02*
X35841541Y-99600804D01*
X35841541Y-99600804D02*
X35470112Y-99600804D01*
X35470112Y-99600804D02*
X35346303Y-99538900D01*
X35346303Y-99538900D02*
X35284398Y-99476995D01*
D10*
D11*
X85965350Y-98734138D02*
X85965350Y-99600804D01*
X85655826Y-98238900D02*
X85346303Y-99167471D01*
X85346303Y-99167471D02*
X86151064Y-99167471D01*
D10*
D11*
X136027255Y-98300804D02*
X135408207Y-98300804D01*
X135408207Y-98300804D02*
X135346303Y-98919852D01*
X135346303Y-98919852D02*
X135408207Y-98857947D01*
X135408207Y-98857947D02*
X135532017Y-98796042D01*
X135532017Y-98796042D02*
X135841541Y-98796042D01*
X135841541Y-98796042D02*
X135965350Y-98857947D01*
X135965350Y-98857947D02*
X136027255Y-98919852D01*
X136027255Y-98919852D02*
X136089160Y-99043661D01*
X136089160Y-99043661D02*
X136089160Y-99353185D01*
X136089160Y-99353185D02*
X136027255Y-99476995D01*
X136027255Y-99476995D02*
X135965350Y-99538900D01*
X135965350Y-99538900D02*
X135841541Y-99600804D01*
X135841541Y-99600804D02*
X135532017Y-99600804D01*
X135532017Y-99600804D02*
X135408207Y-99538900D01*
X135408207Y-99538900D02*
X135346303Y-99476995D01*
D10*
D11*
X185965350Y-98300804D02*
X185717731Y-98300804D01*
X185717731Y-98300804D02*
X185593922Y-98362709D01*
X185593922Y-98362709D02*
X185532017Y-98424614D01*
X185532017Y-98424614D02*
X185408207Y-98610328D01*
X185408207Y-98610328D02*
X185346303Y-98857947D01*
X185346303Y-98857947D02*
X185346303Y-99353185D01*
X185346303Y-99353185D02*
X185408207Y-99476995D01*
X185408207Y-99476995D02*
X185470112Y-99538900D01*
X185470112Y-99538900D02*
X185593922Y-99600804D01*
X185593922Y-99600804D02*
X185841541Y-99600804D01*
X185841541Y-99600804D02*
X185965350Y-99538900D01*
X185965350Y-99538900D02*
X186027255Y-99476995D01*
X186027255Y-99476995D02*
X186089160Y-99353185D01*
X186089160Y-99353185D02*
X186089160Y-99043661D01*
X186089160Y-99043661D02*
X186027255Y-98919852D01*
X186027255Y-98919852D02*
X185965350Y-98857947D01*
X185965350Y-98857947D02*
X185841541Y-98796042D01*
X185841541Y-98796042D02*
X185593922Y-98796042D01*
X185593922Y-98796042D02*
X185470112Y-98857947D01*
X185470112Y-98857947D02*
X185408207Y-98919852D01*
X185408207Y-98919852D02*
X185346303Y-99043661D01*
D10*
D11*
X-90000000Y40000000D02*
X-88000000Y40000000D01*
D10*
D11*
X-90000000Y-10000000D02*
X-88000000Y-10000000D01*
D10*
D11*
X-90000000Y-60000000D02*
X-88000000Y-60000000D01*
D10*
D11*
X-89309524Y64777824D02*
X-88690477Y64777824D01*
X-89433334Y64406396D02*
X-89000001Y65706396D01*
X-89000001Y65706396D02*
X-88566667Y64406396D01*
D10*
D11*
X-88907143Y15087348D02*
X-88721429Y15025443D01*
X-88721429Y15025443D02*
X-88659524Y14963539D01*
X-88659524Y14963539D02*
X-88597620Y14839729D01*
X-88597620Y14839729D02*
X-88597620Y14654015D01*
X-88597620Y14654015D02*
X-88659524Y14530205D01*
X-88659524Y14530205D02*
X-88721429Y14468300D01*
X-88721429Y14468300D02*
X-88845239Y14406396D01*
X-88845239Y14406396D02*
X-89340477Y14406396D01*
X-89340477Y14406396D02*
X-89340477Y15706396D01*
X-89340477Y15706396D02*
X-88907143Y15706396D01*
X-88907143Y15706396D02*
X-88783334Y15644491D01*
X-88783334Y15644491D02*
X-88721429Y15582586D01*
X-88721429Y15582586D02*
X-88659524Y15458777D01*
X-88659524Y15458777D02*
X-88659524Y15334967D01*
X-88659524Y15334967D02*
X-88721429Y15211158D01*
X-88721429Y15211158D02*
X-88783334Y15149253D01*
X-88783334Y15149253D02*
X-88907143Y15087348D01*
X-88907143Y15087348D02*
X-89340477Y15087348D01*
D10*
D11*
X-88597620Y-35469795D02*
X-88659524Y-35531700D01*
X-88659524Y-35531700D02*
X-88845239Y-35593604D01*
X-88845239Y-35593604D02*
X-88969048Y-35593604D01*
X-88969048Y-35593604D02*
X-89154762Y-35531700D01*
X-89154762Y-35531700D02*
X-89278572Y-35407890D01*
X-89278572Y-35407890D02*
X-89340477Y-35284080D01*
X-89340477Y-35284080D02*
X-89402381Y-35036461D01*
X-89402381Y-35036461D02*
X-89402381Y-34850747D01*
X-89402381Y-34850747D02*
X-89340477Y-34603128D01*
X-89340477Y-34603128D02*
X-89278572Y-34479319D01*
X-89278572Y-34479319D02*
X-89154762Y-34355509D01*
X-89154762Y-34355509D02*
X-88969048Y-34293604D01*
X-88969048Y-34293604D02*
X-88845239Y-34293604D01*
X-88845239Y-34293604D02*
X-88659524Y-34355509D01*
X-88659524Y-34355509D02*
X-88597620Y-34417414D01*
D10*
D11*
X-89340477Y-85593604D02*
X-89340477Y-84293604D01*
X-89340477Y-84293604D02*
X-89030953Y-84293604D01*
X-89030953Y-84293604D02*
X-88845239Y-84355509D01*
X-88845239Y-84355509D02*
X-88721429Y-84479319D01*
X-88721429Y-84479319D02*
X-88659524Y-84603128D01*
X-88659524Y-84603128D02*
X-88597620Y-84850747D01*
X-88597620Y-84850747D02*
X-88597620Y-85036461D01*
X-88597620Y-85036461D02*
X-88659524Y-85284080D01*
X-88659524Y-85284080D02*
X-88721429Y-85407890D01*
X-88721429Y-85407890D02*
X-88845239Y-85531700D01*
X-88845239Y-85531700D02*
X-89030953Y-85593604D01*
X-89030953Y-85593604D02*
X-89340477Y-85593604D01*
D10*
D11*
X187002200Y40000000D02*
X185002200Y40000000D01*
D10*
D11*
X187002200Y-10000000D02*
X185002200Y-10000000D01*
D10*
D11*
X187002200Y-60000000D02*
X185002200Y-60000000D01*
D10*
D11*
X185692676Y64777824D02*
X186311723Y64777824D01*
X185568866Y64406396D02*
X186002199Y65706396D01*
X186002199Y65706396D02*
X186435533Y64406396D01*
D10*
D11*
X186095057Y15087348D02*
X186280771Y15025443D01*
X186280771Y15025443D02*
X186342676Y14963539D01*
X186342676Y14963539D02*
X186404580Y14839729D01*
X186404580Y14839729D02*
X186404580Y14654015D01*
X186404580Y14654015D02*
X186342676Y14530205D01*
X186342676Y14530205D02*
X186280771Y14468300D01*
X186280771Y14468300D02*
X186156961Y14406396D01*
X186156961Y14406396D02*
X185661723Y14406396D01*
X185661723Y14406396D02*
X185661723Y15706396D01*
X185661723Y15706396D02*
X186095057Y15706396D01*
X186095057Y15706396D02*
X186218866Y15644491D01*
X186218866Y15644491D02*
X186280771Y15582586D01*
X186280771Y15582586D02*
X186342676Y15458777D01*
X186342676Y15458777D02*
X186342676Y15334967D01*
X186342676Y15334967D02*
X186280771Y15211158D01*
X186280771Y15211158D02*
X186218866Y15149253D01*
X186218866Y15149253D02*
X186095057Y15087348D01*
X186095057Y15087348D02*
X185661723Y15087348D01*
D10*
D11*
X186404580Y-35469795D02*
X186342676Y-35531700D01*
X186342676Y-35531700D02*
X186156961Y-35593604D01*
X186156961Y-35593604D02*
X186033152Y-35593604D01*
X186033152Y-35593604D02*
X185847438Y-35531700D01*
X185847438Y-35531700D02*
X185723628Y-35407890D01*
X185723628Y-35407890D02*
X185661723Y-35284080D01*
X185661723Y-35284080D02*
X185599819Y-35036461D01*
X185599819Y-35036461D02*
X185599819Y-34850747D01*
X185599819Y-34850747D02*
X185661723Y-34603128D01*
X185661723Y-34603128D02*
X185723628Y-34479319D01*
X185723628Y-34479319D02*
X185847438Y-34355509D01*
X185847438Y-34355509D02*
X186033152Y-34293604D01*
X186033152Y-34293604D02*
X186156961Y-34293604D01*
X186156961Y-34293604D02*
X186342676Y-34355509D01*
X186342676Y-34355509D02*
X186404580Y-34417414D01*
D10*
D11*
X185661723Y-85593604D02*
X185661723Y-84293604D01*
X185661723Y-84293604D02*
X185971247Y-84293604D01*
X185971247Y-84293604D02*
X186156961Y-84355509D01*
X186156961Y-84355509D02*
X186280771Y-84479319D01*
X186280771Y-84479319D02*
X186342676Y-84603128D01*
X186342676Y-84603128D02*
X186404580Y-84850747D01*
X186404580Y-84850747D02*
X186404580Y-85036461D01*
X186404580Y-85036461D02*
X186342676Y-85284080D01*
X186342676Y-85284080D02*
X186280771Y-85407890D01*
X186280771Y-85407890D02*
X186156961Y-85531700D01*
X186156961Y-85531700D02*
X185971247Y-85593604D01*
X185971247Y-85593604D02*
X185661723Y-85593604D01*
D10*
D11*
X100458026Y-93793328D02*
X100458026Y-92293328D01*
X100458026Y-92293328D02*
X100815169Y-92293328D01*
X100815169Y-92293328D02*
X101029455Y-92364757D01*
X101029455Y-92364757D02*
X101172312Y-92507614D01*
X101172312Y-92507614D02*
X101243741Y-92650471D01*
X101243741Y-92650471D02*
X101315169Y-92936185D01*
X101315169Y-92936185D02*
X101315169Y-93150471D01*
X101315169Y-93150471D02*
X101243741Y-93436185D01*
X101243741Y-93436185D02*
X101172312Y-93579042D01*
X101172312Y-93579042D02*
X101029455Y-93721900D01*
X101029455Y-93721900D02*
X100815169Y-93793328D01*
X100815169Y-93793328D02*
X100458026Y-93793328D01*
X102600884Y-93793328D02*
X102600884Y-93007614D01*
X102600884Y-93007614D02*
X102529455Y-92864757D01*
X102529455Y-92864757D02*
X102386598Y-92793328D01*
X102386598Y-92793328D02*
X102100884Y-92793328D01*
X102100884Y-92793328D02*
X101958026Y-92864757D01*
X102600884Y-93721900D02*
X102458026Y-93793328D01*
X102458026Y-93793328D02*
X102100884Y-93793328D01*
X102100884Y-93793328D02*
X101958026Y-93721900D01*
X101958026Y-93721900D02*
X101886598Y-93579042D01*
X101886598Y-93579042D02*
X101886598Y-93436185D01*
X101886598Y-93436185D02*
X101958026Y-93293328D01*
X101958026Y-93293328D02*
X102100884Y-93221900D01*
X102100884Y-93221900D02*
X102458026Y-93221900D01*
X102458026Y-93221900D02*
X102600884Y-93150471D01*
X103100884Y-92793328D02*
X103672312Y-92793328D01*
X103315169Y-92293328D02*
X103315169Y-93579042D01*
X103315169Y-93579042D02*
X103386598Y-93721900D01*
X103386598Y-93721900D02*
X103529455Y-93793328D01*
X103529455Y-93793328D02*
X103672312Y-93793328D01*
X104743741Y-93721900D02*
X104600884Y-93793328D01*
X104600884Y-93793328D02*
X104315170Y-93793328D01*
X104315170Y-93793328D02*
X104172312Y-93721900D01*
X104172312Y-93721900D02*
X104100884Y-93579042D01*
X104100884Y-93579042D02*
X104100884Y-93007614D01*
X104100884Y-93007614D02*
X104172312Y-92864757D01*
X104172312Y-92864757D02*
X104315170Y-92793328D01*
X104315170Y-92793328D02*
X104600884Y-92793328D01*
X104600884Y-92793328D02*
X104743741Y-92864757D01*
X104743741Y-92864757D02*
X104815170Y-93007614D01*
X104815170Y-93007614D02*
X104815170Y-93150471D01*
X104815170Y-93150471D02*
X104100884Y-93293328D01*
X105458026Y-93650471D02*
X105529455Y-93721900D01*
X105529455Y-93721900D02*
X105458026Y-93793328D01*
X105458026Y-93793328D02*
X105386598Y-93721900D01*
X105386598Y-93721900D02*
X105458026Y-93650471D01*
X105458026Y-93650471D02*
X105458026Y-93793328D01*
X105458026Y-92864757D02*
X105529455Y-92936185D01*
X105529455Y-92936185D02*
X105458026Y-93007614D01*
X105458026Y-93007614D02*
X105386598Y-92936185D01*
X105386598Y-92936185D02*
X105458026Y-92864757D01*
X105458026Y-92864757D02*
X105458026Y-93007614D01*
X107315169Y-93793328D02*
X107315169Y-92793328D01*
X107315169Y-92936185D02*
X107386598Y-92864757D01*
X107386598Y-92864757D02*
X107529455Y-92793328D01*
X107529455Y-92793328D02*
X107743741Y-92793328D01*
X107743741Y-92793328D02*
X107886598Y-92864757D01*
X107886598Y-92864757D02*
X107958027Y-93007614D01*
X107958027Y-93007614D02*
X107958027Y-93793328D01*
X107958027Y-93007614D02*
X108029455Y-92864757D01*
X108029455Y-92864757D02*
X108172312Y-92793328D01*
X108172312Y-92793328D02*
X108386598Y-92793328D01*
X108386598Y-92793328D02*
X108529455Y-92864757D01*
X108529455Y-92864757D02*
X108600884Y-93007614D01*
X108600884Y-93007614D02*
X108600884Y-93793328D01*
X109958027Y-93793328D02*
X109958027Y-93007614D01*
X109958027Y-93007614D02*
X109886598Y-92864757D01*
X109886598Y-92864757D02*
X109743741Y-92793328D01*
X109743741Y-92793328D02*
X109458027Y-92793328D01*
X109458027Y-92793328D02*
X109315169Y-92864757D01*
X109958027Y-93721900D02*
X109815169Y-93793328D01*
X109815169Y-93793328D02*
X109458027Y-93793328D01*
X109458027Y-93793328D02*
X109315169Y-93721900D01*
X109315169Y-93721900D02*
X109243741Y-93579042D01*
X109243741Y-93579042D02*
X109243741Y-93436185D01*
X109243741Y-93436185D02*
X109315169Y-93293328D01*
X109315169Y-93293328D02*
X109458027Y-93221900D01*
X109458027Y-93221900D02*
X109815169Y-93221900D01*
X109815169Y-93221900D02*
X109958027Y-93150471D01*
X110672312Y-93793328D02*
X110672312Y-92793328D01*
X110672312Y-93079042D02*
X110743741Y-92936185D01*
X110743741Y-92936185D02*
X110815170Y-92864757D01*
X110815170Y-92864757D02*
X110958027Y-92793328D01*
X110958027Y-92793328D02*
X111100884Y-92793328D01*
X111600883Y-93650471D02*
X111672312Y-93721900D01*
X111672312Y-93721900D02*
X111600883Y-93793328D01*
X111600883Y-93793328D02*
X111529455Y-93721900D01*
X111529455Y-93721900D02*
X111600883Y-93650471D01*
X111600883Y-93650471D02*
X111600883Y-93793328D01*
X113315169Y-92293328D02*
X114243741Y-92293328D01*
X114243741Y-92293328D02*
X113743741Y-92864757D01*
X113743741Y-92864757D02*
X113958026Y-92864757D01*
X113958026Y-92864757D02*
X114100884Y-92936185D01*
X114100884Y-92936185D02*
X114172312Y-93007614D01*
X114172312Y-93007614D02*
X114243741Y-93150471D01*
X114243741Y-93150471D02*
X114243741Y-93507614D01*
X114243741Y-93507614D02*
X114172312Y-93650471D01*
X114172312Y-93650471D02*
X114100884Y-93721900D01*
X114100884Y-93721900D02*
X113958026Y-93793328D01*
X113958026Y-93793328D02*
X113529455Y-93793328D01*
X113529455Y-93793328D02*
X113386598Y-93721900D01*
X113386598Y-93721900D02*
X113315169Y-93650471D01*
X115672312Y-93793328D02*
X114815169Y-93793328D01*
X115243740Y-93793328D02*
X115243740Y-92293328D01*
X115243740Y-92293328D02*
X115100883Y-92507614D01*
X115100883Y-92507614D02*
X114958026Y-92650471D01*
X114958026Y-92650471D02*
X114815169Y-92721900D01*
X117458025Y-93793328D02*
X117458025Y-92793328D01*
X117458025Y-92936185D02*
X117529454Y-92864757D01*
X117529454Y-92864757D02*
X117672311Y-92793328D01*
X117672311Y-92793328D02*
X117886597Y-92793328D01*
X117886597Y-92793328D02*
X118029454Y-92864757D01*
X118029454Y-92864757D02*
X118100883Y-93007614D01*
X118100883Y-93007614D02*
X118100883Y-93793328D01*
X118100883Y-93007614D02*
X118172311Y-92864757D01*
X118172311Y-92864757D02*
X118315168Y-92793328D01*
X118315168Y-92793328D02*
X118529454Y-92793328D01*
X118529454Y-92793328D02*
X118672311Y-92864757D01*
X118672311Y-92864757D02*
X118743740Y-93007614D01*
X118743740Y-93007614D02*
X118743740Y-93793328D01*
X120100883Y-93793328D02*
X120100883Y-93007614D01*
X120100883Y-93007614D02*
X120029454Y-92864757D01*
X120029454Y-92864757D02*
X119886597Y-92793328D01*
X119886597Y-92793328D02*
X119600883Y-92793328D01*
X119600883Y-92793328D02*
X119458025Y-92864757D01*
X120100883Y-93721900D02*
X119958025Y-93793328D01*
X119958025Y-93793328D02*
X119600883Y-93793328D01*
X119600883Y-93793328D02*
X119458025Y-93721900D01*
X119458025Y-93721900D02*
X119386597Y-93579042D01*
X119386597Y-93579042D02*
X119386597Y-93436185D01*
X119386597Y-93436185D02*
X119458025Y-93293328D01*
X119458025Y-93293328D02*
X119600883Y-93221900D01*
X119600883Y-93221900D02*
X119958025Y-93221900D01*
X119958025Y-93221900D02*
X120100883Y-93150471D01*
X120815168Y-93793328D02*
X120815168Y-92793328D01*
X120815168Y-93079042D02*
X120886597Y-92936185D01*
X120886597Y-92936185D02*
X120958026Y-92864757D01*
X120958026Y-92864757D02*
X121100883Y-92793328D01*
X121100883Y-92793328D02*
X121243740Y-92793328D01*
X121672311Y-93721900D02*
X121815168Y-93793328D01*
X121815168Y-93793328D02*
X122100882Y-93793328D01*
X122100882Y-93793328D02*
X122243739Y-93721900D01*
X122243739Y-93721900D02*
X122315168Y-93579042D01*
X122315168Y-93579042D02*
X122315168Y-93507614D01*
X122315168Y-93507614D02*
X122243739Y-93364757D01*
X122243739Y-93364757D02*
X122100882Y-93293328D01*
X122100882Y-93293328D02*
X121886597Y-93293328D01*
X121886597Y-93293328D02*
X121743739Y-93221900D01*
X121743739Y-93221900D02*
X121672311Y-93079042D01*
X121672311Y-93079042D02*
X121672311Y-93007614D01*
X121672311Y-93007614D02*
X121743739Y-92864757D01*
X121743739Y-92864757D02*
X121886597Y-92793328D01*
X121886597Y-92793328D02*
X122100882Y-92793328D01*
X122100882Y-92793328D02*
X122243739Y-92864757D01*
X124029454Y-92436185D02*
X124100882Y-92364757D01*
X124100882Y-92364757D02*
X124243740Y-92293328D01*
X124243740Y-92293328D02*
X124600882Y-92293328D01*
X124600882Y-92293328D02*
X124743740Y-92364757D01*
X124743740Y-92364757D02*
X124815168Y-92436185D01*
X124815168Y-92436185D02*
X124886597Y-92579042D01*
X124886597Y-92579042D02*
X124886597Y-92721900D01*
X124886597Y-92721900D02*
X124815168Y-92936185D01*
X124815168Y-92936185D02*
X123958025Y-93793328D01*
X123958025Y-93793328D02*
X124886597Y-93793328D01*
X125815168Y-92293328D02*
X125958025Y-92293328D01*
X125958025Y-92293328D02*
X126100882Y-92364757D01*
X126100882Y-92364757D02*
X126172311Y-92436185D01*
X126172311Y-92436185D02*
X126243739Y-92579042D01*
X126243739Y-92579042D02*
X126315168Y-92864757D01*
X126315168Y-92864757D02*
X126315168Y-93221900D01*
X126315168Y-93221900D02*
X126243739Y-93507614D01*
X126243739Y-93507614D02*
X126172311Y-93650471D01*
X126172311Y-93650471D02*
X126100882Y-93721900D01*
X126100882Y-93721900D02*
X125958025Y-93793328D01*
X125958025Y-93793328D02*
X125815168Y-93793328D01*
X125815168Y-93793328D02*
X125672311Y-93721900D01*
X125672311Y-93721900D02*
X125600882Y-93650471D01*
X125600882Y-93650471D02*
X125529453Y-93507614D01*
X125529453Y-93507614D02*
X125458025Y-93221900D01*
X125458025Y-93221900D02*
X125458025Y-92864757D01*
X125458025Y-92864757D02*
X125529453Y-92579042D01*
X125529453Y-92579042D02*
X125600882Y-92436185D01*
X125600882Y-92436185D02*
X125672311Y-92364757D01*
X125672311Y-92364757D02*
X125815168Y-92293328D01*
X127743739Y-93793328D02*
X126886596Y-93793328D01*
X127315167Y-93793328D02*
X127315167Y-92293328D01*
X127315167Y-92293328D02*
X127172310Y-92507614D01*
X127172310Y-92507614D02*
X127029453Y-92650471D01*
X127029453Y-92650471D02*
X126886596Y-92721900D01*
X129100881Y-92293328D02*
X128386595Y-92293328D01*
X128386595Y-92293328D02*
X128315167Y-93007614D01*
X128315167Y-93007614D02*
X128386595Y-92936185D01*
X128386595Y-92936185D02*
X128529453Y-92864757D01*
X128529453Y-92864757D02*
X128886595Y-92864757D01*
X128886595Y-92864757D02*
X129029453Y-92936185D01*
X129029453Y-92936185D02*
X129100881Y-93007614D01*
X129100881Y-93007614D02*
X129172310Y-93150471D01*
X129172310Y-93150471D02*
X129172310Y-93507614D01*
X129172310Y-93507614D02*
X129100881Y-93650471D01*
X129100881Y-93650471D02*
X129029453Y-93721900D01*
X129029453Y-93721900D02*
X128886595Y-93793328D01*
X128886595Y-93793328D02*
X128529453Y-93793328D01*
X128529453Y-93793328D02*
X128386595Y-93721900D01*
X128386595Y-93721900D02*
X128315167Y-93650471D01*
D10*
D11*
X77002200Y-94507200D02*
X185002200Y-94507200D01*
D10*
D11*
X78458026Y-96593328D02*
X78458026Y-95093328D01*
X79315169Y-96593328D02*
X78672312Y-95736185D01*
X79315169Y-95093328D02*
X78458026Y-95950471D01*
X79958026Y-96593328D02*
X79958026Y-95593328D01*
X79958026Y-95093328D02*
X79886598Y-95164757D01*
X79886598Y-95164757D02*
X79958026Y-95236185D01*
X79958026Y-95236185D02*
X80029455Y-95164757D01*
X80029455Y-95164757D02*
X79958026Y-95093328D01*
X79958026Y-95093328D02*
X79958026Y-95236185D01*
X81529455Y-96450471D02*
X81458027Y-96521900D01*
X81458027Y-96521900D02*
X81243741Y-96593328D01*
X81243741Y-96593328D02*
X81100884Y-96593328D01*
X81100884Y-96593328D02*
X80886598Y-96521900D01*
X80886598Y-96521900D02*
X80743741Y-96379042D01*
X80743741Y-96379042D02*
X80672312Y-96236185D01*
X80672312Y-96236185D02*
X80600884Y-95950471D01*
X80600884Y-95950471D02*
X80600884Y-95736185D01*
X80600884Y-95736185D02*
X80672312Y-95450471D01*
X80672312Y-95450471D02*
X80743741Y-95307614D01*
X80743741Y-95307614D02*
X80886598Y-95164757D01*
X80886598Y-95164757D02*
X81100884Y-95093328D01*
X81100884Y-95093328D02*
X81243741Y-95093328D01*
X81243741Y-95093328D02*
X81458027Y-95164757D01*
X81458027Y-95164757D02*
X81529455Y-95236185D01*
X82815170Y-96593328D02*
X82815170Y-95807614D01*
X82815170Y-95807614D02*
X82743741Y-95664757D01*
X82743741Y-95664757D02*
X82600884Y-95593328D01*
X82600884Y-95593328D02*
X82315170Y-95593328D01*
X82315170Y-95593328D02*
X82172312Y-95664757D01*
X82815170Y-96521900D02*
X82672312Y-96593328D01*
X82672312Y-96593328D02*
X82315170Y-96593328D01*
X82315170Y-96593328D02*
X82172312Y-96521900D01*
X82172312Y-96521900D02*
X82100884Y-96379042D01*
X82100884Y-96379042D02*
X82100884Y-96236185D01*
X82100884Y-96236185D02*
X82172312Y-96093328D01*
X82172312Y-96093328D02*
X82315170Y-96021900D01*
X82315170Y-96021900D02*
X82672312Y-96021900D01*
X82672312Y-96021900D02*
X82815170Y-95950471D01*
X84172313Y-96593328D02*
X84172313Y-95093328D01*
X84172313Y-96521900D02*
X84029455Y-96593328D01*
X84029455Y-96593328D02*
X83743741Y-96593328D01*
X83743741Y-96593328D02*
X83600884Y-96521900D01*
X83600884Y-96521900D02*
X83529455Y-96450471D01*
X83529455Y-96450471D02*
X83458027Y-96307614D01*
X83458027Y-96307614D02*
X83458027Y-95879042D01*
X83458027Y-95879042D02*
X83529455Y-95736185D01*
X83529455Y-95736185D02*
X83600884Y-95664757D01*
X83600884Y-95664757D02*
X83743741Y-95593328D01*
X83743741Y-95593328D02*
X84029455Y-95593328D01*
X84029455Y-95593328D02*
X84172313Y-95664757D01*
X86029455Y-95807614D02*
X86529455Y-95807614D01*
X86743741Y-96593328D02*
X86029455Y-96593328D01*
X86029455Y-96593328D02*
X86029455Y-95093328D01*
X86029455Y-95093328D02*
X86743741Y-95093328D01*
X87386598Y-96450471D02*
X87458027Y-96521900D01*
X87458027Y-96521900D02*
X87386598Y-96593328D01*
X87386598Y-96593328D02*
X87315170Y-96521900D01*
X87315170Y-96521900D02*
X87386598Y-96450471D01*
X87386598Y-96450471D02*
X87386598Y-96593328D01*
X88100884Y-96593328D02*
X88100884Y-95093328D01*
X88100884Y-95093328D02*
X88458027Y-95093328D01*
X88458027Y-95093328D02*
X88672313Y-95164757D01*
X88672313Y-95164757D02*
X88815170Y-95307614D01*
X88815170Y-95307614D02*
X88886599Y-95450471D01*
X88886599Y-95450471D02*
X88958027Y-95736185D01*
X88958027Y-95736185D02*
X88958027Y-95950471D01*
X88958027Y-95950471D02*
X88886599Y-96236185D01*
X88886599Y-96236185D02*
X88815170Y-96379042D01*
X88815170Y-96379042D02*
X88672313Y-96521900D01*
X88672313Y-96521900D02*
X88458027Y-96593328D01*
X88458027Y-96593328D02*
X88100884Y-96593328D01*
X89600884Y-96450471D02*
X89672313Y-96521900D01*
X89672313Y-96521900D02*
X89600884Y-96593328D01*
X89600884Y-96593328D02*
X89529456Y-96521900D01*
X89529456Y-96521900D02*
X89600884Y-96450471D01*
X89600884Y-96450471D02*
X89600884Y-96593328D01*
X90243742Y-96164757D02*
X90958028Y-96164757D01*
X90100885Y-96593328D02*
X90600885Y-95093328D01*
X90600885Y-95093328D02*
X91100885Y-96593328D01*
X91600884Y-96450471D02*
X91672313Y-96521900D01*
X91672313Y-96521900D02*
X91600884Y-96593328D01*
X91600884Y-96593328D02*
X91529456Y-96521900D01*
X91529456Y-96521900D02*
X91600884Y-96450471D01*
X91600884Y-96450471D02*
X91600884Y-96593328D01*
X93672313Y-95736185D02*
X93529456Y-95664757D01*
X93529456Y-95664757D02*
X93458027Y-95593328D01*
X93458027Y-95593328D02*
X93386599Y-95450471D01*
X93386599Y-95450471D02*
X93386599Y-95379042D01*
X93386599Y-95379042D02*
X93458027Y-95236185D01*
X93458027Y-95236185D02*
X93529456Y-95164757D01*
X93529456Y-95164757D02*
X93672313Y-95093328D01*
X93672313Y-95093328D02*
X93958027Y-95093328D01*
X93958027Y-95093328D02*
X94100885Y-95164757D01*
X94100885Y-95164757D02*
X94172313Y-95236185D01*
X94172313Y-95236185D02*
X94243742Y-95379042D01*
X94243742Y-95379042D02*
X94243742Y-95450471D01*
X94243742Y-95450471D02*
X94172313Y-95593328D01*
X94172313Y-95593328D02*
X94100885Y-95664757D01*
X94100885Y-95664757D02*
X93958027Y-95736185D01*
X93958027Y-95736185D02*
X93672313Y-95736185D01*
X93672313Y-95736185D02*
X93529456Y-95807614D01*
X93529456Y-95807614D02*
X93458027Y-95879042D01*
X93458027Y-95879042D02*
X93386599Y-96021900D01*
X93386599Y-96021900D02*
X93386599Y-96307614D01*
X93386599Y-96307614D02*
X93458027Y-96450471D01*
X93458027Y-96450471D02*
X93529456Y-96521900D01*
X93529456Y-96521900D02*
X93672313Y-96593328D01*
X93672313Y-96593328D02*
X93958027Y-96593328D01*
X93958027Y-96593328D02*
X94100885Y-96521900D01*
X94100885Y-96521900D02*
X94172313Y-96450471D01*
X94172313Y-96450471D02*
X94243742Y-96307614D01*
X94243742Y-96307614D02*
X94243742Y-96021900D01*
X94243742Y-96021900D02*
X94172313Y-95879042D01*
X94172313Y-95879042D02*
X94100885Y-95807614D01*
X94100885Y-95807614D02*
X93958027Y-95736185D01*
X94886598Y-96450471D02*
X94958027Y-96521900D01*
X94958027Y-96521900D02*
X94886598Y-96593328D01*
X94886598Y-96593328D02*
X94815170Y-96521900D01*
X94815170Y-96521900D02*
X94886598Y-96450471D01*
X94886598Y-96450471D02*
X94886598Y-96593328D01*
X95886599Y-95093328D02*
X96029456Y-95093328D01*
X96029456Y-95093328D02*
X96172313Y-95164757D01*
X96172313Y-95164757D02*
X96243742Y-95236185D01*
X96243742Y-95236185D02*
X96315170Y-95379042D01*
X96315170Y-95379042D02*
X96386599Y-95664757D01*
X96386599Y-95664757D02*
X96386599Y-96021900D01*
X96386599Y-96021900D02*
X96315170Y-96307614D01*
X96315170Y-96307614D02*
X96243742Y-96450471D01*
X96243742Y-96450471D02*
X96172313Y-96521900D01*
X96172313Y-96521900D02*
X96029456Y-96593328D01*
X96029456Y-96593328D02*
X95886599Y-96593328D01*
X95886599Y-96593328D02*
X95743742Y-96521900D01*
X95743742Y-96521900D02*
X95672313Y-96450471D01*
X95672313Y-96450471D02*
X95600884Y-96307614D01*
X95600884Y-96307614D02*
X95529456Y-96021900D01*
X95529456Y-96021900D02*
X95529456Y-95664757D01*
X95529456Y-95664757D02*
X95600884Y-95379042D01*
X95600884Y-95379042D02*
X95672313Y-95236185D01*
X95672313Y-95236185D02*
X95743742Y-95164757D01*
X95743742Y-95164757D02*
X95886599Y-95093328D01*
X97029455Y-96450471D02*
X97100884Y-96521900D01*
X97100884Y-96521900D02*
X97029455Y-96593328D01*
X97029455Y-96593328D02*
X96958027Y-96521900D01*
X96958027Y-96521900D02*
X97029455Y-96450471D01*
X97029455Y-96450471D02*
X97029455Y-96593328D01*
X98529456Y-96593328D02*
X97672313Y-96593328D01*
X98100884Y-96593328D02*
X98100884Y-95093328D01*
X98100884Y-95093328D02*
X97958027Y-95307614D01*
X97958027Y-95307614D02*
X97815170Y-95450471D01*
X97815170Y-95450471D02*
X97672313Y-95521900D01*
D10*
D11*
X77002200Y-91507200D02*
X185002200Y-91507200D01*
D10*
D12*
X164413853Y-93785528D02*
X163913853Y-93071242D01*
X163556710Y-93785528D02*
X163556710Y-92285528D01*
X163556710Y-92285528D02*
X164128139Y-92285528D01*
X164128139Y-92285528D02*
X164270996Y-92356957D01*
X164270996Y-92356957D02*
X164342425Y-92428385D01*
X164342425Y-92428385D02*
X164413853Y-92571242D01*
X164413853Y-92571242D02*
X164413853Y-92785528D01*
X164413853Y-92785528D02*
X164342425Y-92928385D01*
X164342425Y-92928385D02*
X164270996Y-92999814D01*
X164270996Y-92999814D02*
X164128139Y-93071242D01*
X164128139Y-93071242D02*
X163556710Y-93071242D01*
X165628139Y-93714100D02*
X165485282Y-93785528D01*
X165485282Y-93785528D02*
X165199568Y-93785528D01*
X165199568Y-93785528D02*
X165056710Y-93714100D01*
X165056710Y-93714100D02*
X164985282Y-93571242D01*
X164985282Y-93571242D02*
X164985282Y-92999814D01*
X164985282Y-92999814D02*
X165056710Y-92856957D01*
X165056710Y-92856957D02*
X165199568Y-92785528D01*
X165199568Y-92785528D02*
X165485282Y-92785528D01*
X165485282Y-92785528D02*
X165628139Y-92856957D01*
X165628139Y-92856957D02*
X165699568Y-92999814D01*
X165699568Y-92999814D02*
X165699568Y-93142671D01*
X165699568Y-93142671D02*
X164985282Y-93285528D01*
X166199567Y-92785528D02*
X166556710Y-93785528D01*
X166556710Y-93785528D02*
X166913853Y-92785528D01*
X167485281Y-93642671D02*
X167556710Y-93714100D01*
X167556710Y-93714100D02*
X167485281Y-93785528D01*
X167485281Y-93785528D02*
X167413853Y-93714100D01*
X167413853Y-93714100D02*
X167485281Y-93642671D01*
X167485281Y-93642671D02*
X167485281Y-93785528D01*
X167485281Y-92856957D02*
X167556710Y-92928385D01*
X167556710Y-92928385D02*
X167485281Y-92999814D01*
X167485281Y-92999814D02*
X167413853Y-92928385D01*
X167413853Y-92928385D02*
X167485281Y-92856957D01*
X167485281Y-92856957D02*
X167485281Y-92999814D01*
D10*
D11*
X78386598Y-93721900D02*
X78600884Y-93793328D01*
X78600884Y-93793328D02*
X78958026Y-93793328D01*
X78958026Y-93793328D02*
X79100884Y-93721900D01*
X79100884Y-93721900D02*
X79172312Y-93650471D01*
X79172312Y-93650471D02*
X79243741Y-93507614D01*
X79243741Y-93507614D02*
X79243741Y-93364757D01*
X79243741Y-93364757D02*
X79172312Y-93221900D01*
X79172312Y-93221900D02*
X79100884Y-93150471D01*
X79100884Y-93150471D02*
X78958026Y-93079042D01*
X78958026Y-93079042D02*
X78672312Y-93007614D01*
X78672312Y-93007614D02*
X78529455Y-92936185D01*
X78529455Y-92936185D02*
X78458026Y-92864757D01*
X78458026Y-92864757D02*
X78386598Y-92721900D01*
X78386598Y-92721900D02*
X78386598Y-92579042D01*
X78386598Y-92579042D02*
X78458026Y-92436185D01*
X78458026Y-92436185D02*
X78529455Y-92364757D01*
X78529455Y-92364757D02*
X78672312Y-92293328D01*
X78672312Y-92293328D02*
X79029455Y-92293328D01*
X79029455Y-92293328D02*
X79243741Y-92364757D01*
X79886597Y-93793328D02*
X79886597Y-92793328D01*
X79886597Y-92293328D02*
X79815169Y-92364757D01*
X79815169Y-92364757D02*
X79886597Y-92436185D01*
X79886597Y-92436185D02*
X79958026Y-92364757D01*
X79958026Y-92364757D02*
X79886597Y-92293328D01*
X79886597Y-92293328D02*
X79886597Y-92436185D01*
X80458026Y-92793328D02*
X81243741Y-92793328D01*
X81243741Y-92793328D02*
X80458026Y-93793328D01*
X80458026Y-93793328D02*
X81243741Y-93793328D01*
X82386598Y-93721900D02*
X82243741Y-93793328D01*
X82243741Y-93793328D02*
X81958027Y-93793328D01*
X81958027Y-93793328D02*
X81815169Y-93721900D01*
X81815169Y-93721900D02*
X81743741Y-93579042D01*
X81743741Y-93579042D02*
X81743741Y-93007614D01*
X81743741Y-93007614D02*
X81815169Y-92864757D01*
X81815169Y-92864757D02*
X81958027Y-92793328D01*
X81958027Y-92793328D02*
X82243741Y-92793328D01*
X82243741Y-92793328D02*
X82386598Y-92864757D01*
X82386598Y-92864757D02*
X82458027Y-93007614D01*
X82458027Y-93007614D02*
X82458027Y-93150471D01*
X82458027Y-93150471D02*
X81743741Y-93293328D01*
X83100883Y-93650471D02*
X83172312Y-93721900D01*
X83172312Y-93721900D02*
X83100883Y-93793328D01*
X83100883Y-93793328D02*
X83029455Y-93721900D01*
X83029455Y-93721900D02*
X83100883Y-93650471D01*
X83100883Y-93650471D02*
X83100883Y-93793328D01*
X83100883Y-92864757D02*
X83172312Y-92936185D01*
X83172312Y-92936185D02*
X83100883Y-93007614D01*
X83100883Y-93007614D02*
X83029455Y-92936185D01*
X83029455Y-92936185D02*
X83100883Y-92864757D01*
X83100883Y-92864757D02*
X83100883Y-93007614D01*
X84886598Y-93364757D02*
X85600884Y-93364757D01*
X84743741Y-93793328D02*
X85243741Y-92293328D01*
X85243741Y-92293328D02*
X85743741Y-93793328D01*
X86886598Y-92793328D02*
X86886598Y-93793328D01*
X86529455Y-92221900D02*
X86172312Y-93293328D01*
X86172312Y-93293328D02*
X87100883Y-93293328D01*
D10*
D11*
X163458026Y-96593328D02*
X163458026Y-95093328D01*
X164815170Y-96593328D02*
X164815170Y-95093328D01*
X164815170Y-96521900D02*
X164672312Y-96593328D01*
X164672312Y-96593328D02*
X164386598Y-96593328D01*
X164386598Y-96593328D02*
X164243741Y-96521900D01*
X164243741Y-96521900D02*
X164172312Y-96450471D01*
X164172312Y-96450471D02*
X164100884Y-96307614D01*
X164100884Y-96307614D02*
X164100884Y-95879042D01*
X164100884Y-95879042D02*
X164172312Y-95736185D01*
X164172312Y-95736185D02*
X164243741Y-95664757D01*
X164243741Y-95664757D02*
X164386598Y-95593328D01*
X164386598Y-95593328D02*
X164672312Y-95593328D01*
X164672312Y-95593328D02*
X164815170Y-95664757D01*
X165529455Y-96450471D02*
X165600884Y-96521900D01*
X165600884Y-96521900D02*
X165529455Y-96593328D01*
X165529455Y-96593328D02*
X165458027Y-96521900D01*
X165458027Y-96521900D02*
X165529455Y-96450471D01*
X165529455Y-96450471D02*
X165529455Y-96593328D01*
X165529455Y-95664757D02*
X165600884Y-95736185D01*
X165600884Y-95736185D02*
X165529455Y-95807614D01*
X165529455Y-95807614D02*
X165458027Y-95736185D01*
X165458027Y-95736185D02*
X165529455Y-95664757D01*
X165529455Y-95664757D02*
X165529455Y-95807614D01*
X168172313Y-96593328D02*
X167315170Y-96593328D01*
X167743741Y-96593328D02*
X167743741Y-95093328D01*
X167743741Y-95093328D02*
X167600884Y-95307614D01*
X167600884Y-95307614D02*
X167458027Y-95450471D01*
X167458027Y-95450471D02*
X167315170Y-95521900D01*
X169886598Y-95021900D02*
X168600884Y-96950471D01*
X171172313Y-96593328D02*
X170315170Y-96593328D01*
X170743741Y-96593328D02*
X170743741Y-95093328D01*
X170743741Y-95093328D02*
X170600884Y-95307614D01*
X170600884Y-95307614D02*
X170458027Y-95450471D01*
X170458027Y-95450471D02*
X170315170Y-95521900D01*
D10*
D11*
X77002200Y-87507200D02*
X185002200Y-87507200D01*
D10*
D13*
X78693928Y-88211638D02*
X79836785Y-88211638D01*
X79015357Y-90211638D02*
X79265357Y-88211638D01*
X80253452Y-90211638D02*
X80420119Y-88878304D01*
X80503452Y-88211638D02*
X80396309Y-88306876D01*
X80396309Y-88306876D02*
X80479643Y-88402114D01*
X80479643Y-88402114D02*
X80586786Y-88306876D01*
X80586786Y-88306876D02*
X80503452Y-88211638D01*
X80503452Y-88211638D02*
X80479643Y-88402114D01*
X81086786Y-88878304D02*
X81848690Y-88878304D01*
X81455833Y-88211638D02*
X81241548Y-89925923D01*
X81241548Y-89925923D02*
X81312976Y-90116400D01*
X81312976Y-90116400D02*
X81491548Y-90211638D01*
X81491548Y-90211638D02*
X81682024Y-90211638D01*
X82634405Y-90211638D02*
X82455833Y-90116400D01*
X82455833Y-90116400D02*
X82384405Y-89925923D01*
X82384405Y-89925923D02*
X82598690Y-88211638D01*
X84170119Y-90116400D02*
X83967738Y-90211638D01*
X83967738Y-90211638D02*
X83586785Y-90211638D01*
X83586785Y-90211638D02*
X83408214Y-90116400D01*
X83408214Y-90116400D02*
X83336785Y-89925923D01*
X83336785Y-89925923D02*
X83432024Y-89164019D01*
X83432024Y-89164019D02*
X83551071Y-88973542D01*
X83551071Y-88973542D02*
X83753452Y-88878304D01*
X83753452Y-88878304D02*
X84134404Y-88878304D01*
X84134404Y-88878304D02*
X84312976Y-88973542D01*
X84312976Y-88973542D02*
X84384404Y-89164019D01*
X84384404Y-89164019D02*
X84360595Y-89354495D01*
X84360595Y-89354495D02*
X83384404Y-89544971D01*
X85134405Y-90021161D02*
X85217738Y-90116400D01*
X85217738Y-90116400D02*
X85110595Y-90211638D01*
X85110595Y-90211638D02*
X85027262Y-90116400D01*
X85027262Y-90116400D02*
X85134405Y-90021161D01*
X85134405Y-90021161D02*
X85110595Y-90211638D01*
X85265357Y-88973542D02*
X85348690Y-89068780D01*
X85348690Y-89068780D02*
X85241548Y-89164019D01*
X85241548Y-89164019D02*
X85158214Y-89068780D01*
X85158214Y-89068780D02*
X85265357Y-88973542D01*
X85265357Y-88973542D02*
X85241548Y-89164019D01*
X87551072Y-88211638D02*
X87967739Y-90211638D01*
X87967739Y-90211638D02*
X88884405Y-88211638D01*
X89301072Y-90211638D02*
X89467739Y-88878304D01*
X89551072Y-88211638D02*
X89443929Y-88306876D01*
X89443929Y-88306876D02*
X89527263Y-88402114D01*
X89527263Y-88402114D02*
X89634406Y-88306876D01*
X89634406Y-88306876D02*
X89551072Y-88211638D01*
X89551072Y-88211638D02*
X89527263Y-88402114D01*
X90420120Y-88878304D02*
X90253453Y-90211638D01*
X90396310Y-89068780D02*
X90503453Y-88973542D01*
X90503453Y-88973542D02*
X90705834Y-88878304D01*
X90705834Y-88878304D02*
X90991548Y-88878304D01*
X90991548Y-88878304D02*
X91170120Y-88973542D01*
X91170120Y-88973542D02*
X91241548Y-89164019D01*
X91241548Y-89164019D02*
X91110596Y-90211638D01*
X92920120Y-90211638D02*
X93051072Y-89164019D01*
X93051072Y-89164019D02*
X92979644Y-88973542D01*
X92979644Y-88973542D02*
X92801072Y-88878304D01*
X92801072Y-88878304D02*
X92420120Y-88878304D01*
X92420120Y-88878304D02*
X92217739Y-88973542D01*
X92932025Y-90116400D02*
X92729644Y-90211638D01*
X92729644Y-90211638D02*
X92253453Y-90211638D01*
X92253453Y-90211638D02*
X92074882Y-90116400D01*
X92074882Y-90116400D02*
X92003453Y-89925923D01*
X92003453Y-89925923D02*
X92027263Y-89735447D01*
X92027263Y-89735447D02*
X92146311Y-89544971D01*
X92146311Y-89544971D02*
X92348692Y-89449733D01*
X92348692Y-89449733D02*
X92824882Y-89449733D01*
X92824882Y-89449733D02*
X93027263Y-89354495D01*
X93848692Y-88878304D02*
X94158216Y-90211638D01*
X94801073Y-88878304D02*
X94158216Y-90211638D01*
X94158216Y-90211638D02*
X93908216Y-90687828D01*
X93908216Y-90687828D02*
X93801073Y-90783066D01*
X93801073Y-90783066D02*
X93598692Y-90878304D01*
X97741550Y-88211638D02*
X97562978Y-89640209D01*
X97562978Y-89640209D02*
X97432026Y-89925923D01*
X97432026Y-89925923D02*
X97217740Y-90116400D01*
X97217740Y-90116400D02*
X96920121Y-90211638D01*
X96920121Y-90211638D02*
X96729645Y-90211638D01*
X99301074Y-90211638D02*
X99432026Y-89164019D01*
X99432026Y-89164019D02*
X99360598Y-88973542D01*
X99360598Y-88973542D02*
X99182026Y-88878304D01*
X99182026Y-88878304D02*
X98801074Y-88878304D01*
X98801074Y-88878304D02*
X98598693Y-88973542D01*
X99312979Y-90116400D02*
X99110598Y-90211638D01*
X99110598Y-90211638D02*
X98634407Y-90211638D01*
X98634407Y-90211638D02*
X98455836Y-90116400D01*
X98455836Y-90116400D02*
X98384407Y-89925923D01*
X98384407Y-89925923D02*
X98408217Y-89735447D01*
X98408217Y-89735447D02*
X98527265Y-89544971D01*
X98527265Y-89544971D02*
X98729646Y-89449733D01*
X98729646Y-89449733D02*
X99205836Y-89449733D01*
X99205836Y-89449733D02*
X99408217Y-89354495D01*
X100420122Y-88878304D02*
X100253455Y-90211638D01*
X100396312Y-89068780D02*
X100503455Y-88973542D01*
X100503455Y-88973542D02*
X100705836Y-88878304D01*
X100705836Y-88878304D02*
X100991550Y-88878304D01*
X100991550Y-88878304D02*
X101170122Y-88973542D01*
X101170122Y-88973542D02*
X101241550Y-89164019D01*
X101241550Y-89164019D02*
X101110598Y-90211638D01*
X103086789Y-88878304D02*
X102884408Y-90497352D01*
X102884408Y-90497352D02*
X102765360Y-90687828D01*
X102765360Y-90687828D02*
X102658217Y-90783066D01*
X102658217Y-90783066D02*
X102455836Y-90878304D01*
X102455836Y-90878304D02*
X102170122Y-90878304D01*
X102170122Y-90878304D02*
X101991551Y-90783066D01*
X102932027Y-90116400D02*
X102729646Y-90211638D01*
X102729646Y-90211638D02*
X102348694Y-90211638D01*
X102348694Y-90211638D02*
X102170122Y-90116400D01*
X102170122Y-90116400D02*
X102086789Y-90021161D01*
X102086789Y-90021161D02*
X102015360Y-89830685D01*
X102015360Y-89830685D02*
X102086789Y-89259257D01*
X102086789Y-89259257D02*
X102205836Y-89068780D01*
X102205836Y-89068780D02*
X102312979Y-88973542D01*
X102312979Y-88973542D02*
X102515360Y-88878304D01*
X102515360Y-88878304D02*
X102896313Y-88878304D01*
X102896313Y-88878304D02*
X103074884Y-88973542D01*
X103872503Y-90211638D02*
X104039170Y-88878304D01*
X104122503Y-88211638D02*
X104015360Y-88306876D01*
X104015360Y-88306876D02*
X104098694Y-88402114D01*
X104098694Y-88402114D02*
X104205837Y-88306876D01*
X104205837Y-88306876D02*
X104122503Y-88211638D01*
X104122503Y-88211638D02*
X104098694Y-88402114D01*
X105682027Y-90211638D02*
X105932027Y-88211638D01*
X105693932Y-90116400D02*
X105491551Y-90211638D01*
X105491551Y-90211638D02*
X105110599Y-90211638D01*
X105110599Y-90211638D02*
X104932027Y-90116400D01*
X104932027Y-90116400D02*
X104848694Y-90021161D01*
X104848694Y-90021161D02*
X104777265Y-89830685D01*
X104777265Y-89830685D02*
X104848694Y-89259257D01*
X104848694Y-89259257D02*
X104967741Y-89068780D01*
X104967741Y-89068780D02*
X105074884Y-88973542D01*
X105074884Y-88973542D02*
X105277265Y-88878304D01*
X105277265Y-88878304D02*
X105658218Y-88878304D01*
X105658218Y-88878304D02*
X105836789Y-88973542D01*
D10*
D11*
X78958026Y-85607614D02*
X78458026Y-85607614D01*
X78458026Y-86393328D02*
X78458026Y-84893328D01*
X78458026Y-84893328D02*
X79172312Y-84893328D01*
X79743740Y-86393328D02*
X79743740Y-85393328D01*
X79743740Y-84893328D02*
X79672312Y-84964757D01*
X79672312Y-84964757D02*
X79743740Y-85036185D01*
X79743740Y-85036185D02*
X79815169Y-84964757D01*
X79815169Y-84964757D02*
X79743740Y-84893328D01*
X79743740Y-84893328D02*
X79743740Y-85036185D01*
X80672312Y-86393328D02*
X80529455Y-86321900D01*
X80529455Y-86321900D02*
X80458026Y-86179042D01*
X80458026Y-86179042D02*
X80458026Y-84893328D01*
X81815169Y-86321900D02*
X81672312Y-86393328D01*
X81672312Y-86393328D02*
X81386598Y-86393328D01*
X81386598Y-86393328D02*
X81243740Y-86321900D01*
X81243740Y-86321900D02*
X81172312Y-86179042D01*
X81172312Y-86179042D02*
X81172312Y-85607614D01*
X81172312Y-85607614D02*
X81243740Y-85464757D01*
X81243740Y-85464757D02*
X81386598Y-85393328D01*
X81386598Y-85393328D02*
X81672312Y-85393328D01*
X81672312Y-85393328D02*
X81815169Y-85464757D01*
X81815169Y-85464757D02*
X81886598Y-85607614D01*
X81886598Y-85607614D02*
X81886598Y-85750471D01*
X81886598Y-85750471D02*
X81172312Y-85893328D01*
X82529454Y-86250471D02*
X82600883Y-86321900D01*
X82600883Y-86321900D02*
X82529454Y-86393328D01*
X82529454Y-86393328D02*
X82458026Y-86321900D01*
X82458026Y-86321900D02*
X82529454Y-86250471D01*
X82529454Y-86250471D02*
X82529454Y-86393328D01*
X82529454Y-85464757D02*
X82600883Y-85536185D01*
X82600883Y-85536185D02*
X82529454Y-85607614D01*
X82529454Y-85607614D02*
X82458026Y-85536185D01*
X82458026Y-85536185D02*
X82529454Y-85464757D01*
X82529454Y-85464757D02*
X82529454Y-85607614D01*
X85029455Y-85393328D02*
X85029455Y-86393328D01*
X84386597Y-85393328D02*
X84386597Y-86179042D01*
X84386597Y-86179042D02*
X84458026Y-86321900D01*
X84458026Y-86321900D02*
X84600883Y-86393328D01*
X84600883Y-86393328D02*
X84815169Y-86393328D01*
X84815169Y-86393328D02*
X84958026Y-86321900D01*
X84958026Y-86321900D02*
X85029455Y-86250471D01*
X85743740Y-85393328D02*
X85743740Y-86393328D01*
X85743740Y-85536185D02*
X85815169Y-85464757D01*
X85815169Y-85464757D02*
X85958026Y-85393328D01*
X85958026Y-85393328D02*
X86172312Y-85393328D01*
X86172312Y-85393328D02*
X86315169Y-85464757D01*
X86315169Y-85464757D02*
X86386598Y-85607614D01*
X86386598Y-85607614D02*
X86386598Y-86393328D01*
X87315169Y-86393328D02*
X87172312Y-86321900D01*
X87172312Y-86321900D02*
X87100883Y-86250471D01*
X87100883Y-86250471D02*
X87029455Y-86107614D01*
X87029455Y-86107614D02*
X87029455Y-85679042D01*
X87029455Y-85679042D02*
X87100883Y-85536185D01*
X87100883Y-85536185D02*
X87172312Y-85464757D01*
X87172312Y-85464757D02*
X87315169Y-85393328D01*
X87315169Y-85393328D02*
X87529455Y-85393328D01*
X87529455Y-85393328D02*
X87672312Y-85464757D01*
X87672312Y-85464757D02*
X87743741Y-85536185D01*
X87743741Y-85536185D02*
X87815169Y-85679042D01*
X87815169Y-85679042D02*
X87815169Y-86107614D01*
X87815169Y-86107614D02*
X87743741Y-86250471D01*
X87743741Y-86250471D02*
X87672312Y-86321900D01*
X87672312Y-86321900D02*
X87529455Y-86393328D01*
X87529455Y-86393328D02*
X87315169Y-86393328D01*
X89529455Y-86321900D02*
X89672312Y-86393328D01*
X89672312Y-86393328D02*
X89958026Y-86393328D01*
X89958026Y-86393328D02*
X90100883Y-86321900D01*
X90100883Y-86321900D02*
X90172312Y-86179042D01*
X90172312Y-86179042D02*
X90172312Y-86107614D01*
X90172312Y-86107614D02*
X90100883Y-85964757D01*
X90100883Y-85964757D02*
X89958026Y-85893328D01*
X89958026Y-85893328D02*
X89743741Y-85893328D01*
X89743741Y-85893328D02*
X89600883Y-85821900D01*
X89600883Y-85821900D02*
X89529455Y-85679042D01*
X89529455Y-85679042D02*
X89529455Y-85607614D01*
X89529455Y-85607614D02*
X89600883Y-85464757D01*
X89600883Y-85464757D02*
X89743741Y-85393328D01*
X89743741Y-85393328D02*
X89958026Y-85393328D01*
X89958026Y-85393328D02*
X90100883Y-85464757D01*
X90815169Y-86393328D02*
X90815169Y-84893328D01*
X91458027Y-86393328D02*
X91458027Y-85607614D01*
X91458027Y-85607614D02*
X91386598Y-85464757D01*
X91386598Y-85464757D02*
X91243741Y-85393328D01*
X91243741Y-85393328D02*
X91029455Y-85393328D01*
X91029455Y-85393328D02*
X90886598Y-85464757D01*
X90886598Y-85464757D02*
X90815169Y-85536185D01*
X92172312Y-86393328D02*
X92172312Y-85393328D01*
X92172312Y-84893328D02*
X92100884Y-84964757D01*
X92100884Y-84964757D02*
X92172312Y-85036185D01*
X92172312Y-85036185D02*
X92243741Y-84964757D01*
X92243741Y-84964757D02*
X92172312Y-84893328D01*
X92172312Y-84893328D02*
X92172312Y-85036185D01*
X93458027Y-86321900D02*
X93315170Y-86393328D01*
X93315170Y-86393328D02*
X93029456Y-86393328D01*
X93029456Y-86393328D02*
X92886598Y-86321900D01*
X92886598Y-86321900D02*
X92815170Y-86179042D01*
X92815170Y-86179042D02*
X92815170Y-85607614D01*
X92815170Y-85607614D02*
X92886598Y-85464757D01*
X92886598Y-85464757D02*
X93029456Y-85393328D01*
X93029456Y-85393328D02*
X93315170Y-85393328D01*
X93315170Y-85393328D02*
X93458027Y-85464757D01*
X93458027Y-85464757D02*
X93529456Y-85607614D01*
X93529456Y-85607614D02*
X93529456Y-85750471D01*
X93529456Y-85750471D02*
X92815170Y-85893328D01*
X94386598Y-86393328D02*
X94243741Y-86321900D01*
X94243741Y-86321900D02*
X94172312Y-86179042D01*
X94172312Y-86179042D02*
X94172312Y-84893328D01*
X95600884Y-86393328D02*
X95600884Y-84893328D01*
X95600884Y-86321900D02*
X95458026Y-86393328D01*
X95458026Y-86393328D02*
X95172312Y-86393328D01*
X95172312Y-86393328D02*
X95029455Y-86321900D01*
X95029455Y-86321900D02*
X94958026Y-86250471D01*
X94958026Y-86250471D02*
X94886598Y-86107614D01*
X94886598Y-86107614D02*
X94886598Y-85679042D01*
X94886598Y-85679042D02*
X94958026Y-85536185D01*
X94958026Y-85536185D02*
X95029455Y-85464757D01*
X95029455Y-85464757D02*
X95172312Y-85393328D01*
X95172312Y-85393328D02*
X95458026Y-85393328D01*
X95458026Y-85393328D02*
X95600884Y-85464757D01*
X96315169Y-86250471D02*
X96386598Y-86321900D01*
X96386598Y-86321900D02*
X96315169Y-86393328D01*
X96315169Y-86393328D02*
X96243741Y-86321900D01*
X96243741Y-86321900D02*
X96315169Y-86250471D01*
X96315169Y-86250471D02*
X96315169Y-86393328D01*
X97029455Y-86393328D02*
X97029455Y-84893328D01*
X97172313Y-85821900D02*
X97600884Y-86393328D01*
X97600884Y-85393328D02*
X97029455Y-85964757D01*
X98243741Y-86393328D02*
X98243741Y-85393328D01*
X98243741Y-84893328D02*
X98172313Y-84964757D01*
X98172313Y-84964757D02*
X98243741Y-85036185D01*
X98243741Y-85036185D02*
X98315170Y-84964757D01*
X98315170Y-84964757D02*
X98243741Y-84893328D01*
X98243741Y-84893328D02*
X98243741Y-85036185D01*
X99600885Y-86321900D02*
X99458027Y-86393328D01*
X99458027Y-86393328D02*
X99172313Y-86393328D01*
X99172313Y-86393328D02*
X99029456Y-86321900D01*
X99029456Y-86321900D02*
X98958027Y-86250471D01*
X98958027Y-86250471D02*
X98886599Y-86107614D01*
X98886599Y-86107614D02*
X98886599Y-85679042D01*
X98886599Y-85679042D02*
X98958027Y-85536185D01*
X98958027Y-85536185D02*
X99029456Y-85464757D01*
X99029456Y-85464757D02*
X99172313Y-85393328D01*
X99172313Y-85393328D02*
X99458027Y-85393328D01*
X99458027Y-85393328D02*
X99600885Y-85464757D01*
X100886599Y-86393328D02*
X100886599Y-85607614D01*
X100886599Y-85607614D02*
X100815170Y-85464757D01*
X100815170Y-85464757D02*
X100672313Y-85393328D01*
X100672313Y-85393328D02*
X100386599Y-85393328D01*
X100386599Y-85393328D02*
X100243741Y-85464757D01*
X100886599Y-86321900D02*
X100743741Y-86393328D01*
X100743741Y-86393328D02*
X100386599Y-86393328D01*
X100386599Y-86393328D02*
X100243741Y-86321900D01*
X100243741Y-86321900D02*
X100172313Y-86179042D01*
X100172313Y-86179042D02*
X100172313Y-86036185D01*
X100172313Y-86036185D02*
X100243741Y-85893328D01*
X100243741Y-85893328D02*
X100386599Y-85821900D01*
X100386599Y-85821900D02*
X100743741Y-85821900D01*
X100743741Y-85821900D02*
X100886599Y-85750471D01*
X102243742Y-86393328D02*
X102243742Y-84893328D01*
X102243742Y-86321900D02*
X102100884Y-86393328D01*
X102100884Y-86393328D02*
X101815170Y-86393328D01*
X101815170Y-86393328D02*
X101672313Y-86321900D01*
X101672313Y-86321900D02*
X101600884Y-86250471D01*
X101600884Y-86250471D02*
X101529456Y-86107614D01*
X101529456Y-86107614D02*
X101529456Y-85679042D01*
X101529456Y-85679042D02*
X101600884Y-85536185D01*
X101600884Y-85536185D02*
X101672313Y-85464757D01*
X101672313Y-85464757D02*
X101815170Y-85393328D01*
X101815170Y-85393328D02*
X102100884Y-85393328D01*
X102100884Y-85393328D02*
X102243742Y-85464757D01*
X102600885Y-86536185D02*
X103743742Y-86536185D01*
X104100884Y-85393328D02*
X104100884Y-86893328D01*
X104100884Y-85464757D02*
X104243742Y-85393328D01*
X104243742Y-85393328D02*
X104529456Y-85393328D01*
X104529456Y-85393328D02*
X104672313Y-85464757D01*
X104672313Y-85464757D02*
X104743742Y-85536185D01*
X104743742Y-85536185D02*
X104815170Y-85679042D01*
X104815170Y-85679042D02*
X104815170Y-86107614D01*
X104815170Y-86107614D02*
X104743742Y-86250471D01*
X104743742Y-86250471D02*
X104672313Y-86321900D01*
X104672313Y-86321900D02*
X104529456Y-86393328D01*
X104529456Y-86393328D02*
X104243742Y-86393328D01*
X104243742Y-86393328D02*
X104100884Y-86321900D01*
X106100885Y-86321900D02*
X105958027Y-86393328D01*
X105958027Y-86393328D02*
X105672313Y-86393328D01*
X105672313Y-86393328D02*
X105529456Y-86321900D01*
X105529456Y-86321900D02*
X105458027Y-86250471D01*
X105458027Y-86250471D02*
X105386599Y-86107614D01*
X105386599Y-86107614D02*
X105386599Y-85679042D01*
X105386599Y-85679042D02*
X105458027Y-85536185D01*
X105458027Y-85536185D02*
X105529456Y-85464757D01*
X105529456Y-85464757D02*
X105672313Y-85393328D01*
X105672313Y-85393328D02*
X105958027Y-85393328D01*
X105958027Y-85393328D02*
X106100885Y-85464757D01*
X106743741Y-86393328D02*
X106743741Y-84893328D01*
X106743741Y-85464757D02*
X106886599Y-85393328D01*
X106886599Y-85393328D02*
X107172313Y-85393328D01*
X107172313Y-85393328D02*
X107315170Y-85464757D01*
X107315170Y-85464757D02*
X107386599Y-85536185D01*
X107386599Y-85536185D02*
X107458027Y-85679042D01*
X107458027Y-85679042D02*
X107458027Y-86107614D01*
X107458027Y-86107614D02*
X107386599Y-86250471D01*
X107386599Y-86250471D02*
X107315170Y-86321900D01*
X107315170Y-86321900D02*
X107172313Y-86393328D01*
X107172313Y-86393328D02*
X106886599Y-86393328D01*
X106886599Y-86393328D02*
X106743741Y-86321900D01*
D10*
D11*
X77002200Y-81507200D02*
X185002200Y-81507200D01*
D10*
D11*
X78386598Y-83621900D02*
X78600884Y-83693328D01*
X78600884Y-83693328D02*
X78958026Y-83693328D01*
X78958026Y-83693328D02*
X79100884Y-83621900D01*
X79100884Y-83621900D02*
X79172312Y-83550471D01*
X79172312Y-83550471D02*
X79243741Y-83407614D01*
X79243741Y-83407614D02*
X79243741Y-83264757D01*
X79243741Y-83264757D02*
X79172312Y-83121900D01*
X79172312Y-83121900D02*
X79100884Y-83050471D01*
X79100884Y-83050471D02*
X78958026Y-82979042D01*
X78958026Y-82979042D02*
X78672312Y-82907614D01*
X78672312Y-82907614D02*
X78529455Y-82836185D01*
X78529455Y-82836185D02*
X78458026Y-82764757D01*
X78458026Y-82764757D02*
X78386598Y-82621900D01*
X78386598Y-82621900D02*
X78386598Y-82479042D01*
X78386598Y-82479042D02*
X78458026Y-82336185D01*
X78458026Y-82336185D02*
X78529455Y-82264757D01*
X78529455Y-82264757D02*
X78672312Y-82193328D01*
X78672312Y-82193328D02*
X79029455Y-82193328D01*
X79029455Y-82193328D02*
X79243741Y-82264757D01*
X79886597Y-83693328D02*
X79886597Y-82193328D01*
X80529455Y-83693328D02*
X80529455Y-82907614D01*
X80529455Y-82907614D02*
X80458026Y-82764757D01*
X80458026Y-82764757D02*
X80315169Y-82693328D01*
X80315169Y-82693328D02*
X80100883Y-82693328D01*
X80100883Y-82693328D02*
X79958026Y-82764757D01*
X79958026Y-82764757D02*
X79886597Y-82836185D01*
X81815169Y-83621900D02*
X81672312Y-83693328D01*
X81672312Y-83693328D02*
X81386598Y-83693328D01*
X81386598Y-83693328D02*
X81243740Y-83621900D01*
X81243740Y-83621900D02*
X81172312Y-83479042D01*
X81172312Y-83479042D02*
X81172312Y-82907614D01*
X81172312Y-82907614D02*
X81243740Y-82764757D01*
X81243740Y-82764757D02*
X81386598Y-82693328D01*
X81386598Y-82693328D02*
X81672312Y-82693328D01*
X81672312Y-82693328D02*
X81815169Y-82764757D01*
X81815169Y-82764757D02*
X81886598Y-82907614D01*
X81886598Y-82907614D02*
X81886598Y-83050471D01*
X81886598Y-83050471D02*
X81172312Y-83193328D01*
X83100883Y-83621900D02*
X82958026Y-83693328D01*
X82958026Y-83693328D02*
X82672312Y-83693328D01*
X82672312Y-83693328D02*
X82529454Y-83621900D01*
X82529454Y-83621900D02*
X82458026Y-83479042D01*
X82458026Y-83479042D02*
X82458026Y-82907614D01*
X82458026Y-82907614D02*
X82529454Y-82764757D01*
X82529454Y-82764757D02*
X82672312Y-82693328D01*
X82672312Y-82693328D02*
X82958026Y-82693328D01*
X82958026Y-82693328D02*
X83100883Y-82764757D01*
X83100883Y-82764757D02*
X83172312Y-82907614D01*
X83172312Y-82907614D02*
X83172312Y-83050471D01*
X83172312Y-83050471D02*
X82458026Y-83193328D01*
X83600883Y-82693328D02*
X84172311Y-82693328D01*
X83815168Y-82193328D02*
X83815168Y-83479042D01*
X83815168Y-83479042D02*
X83886597Y-83621900D01*
X83886597Y-83621900D02*
X84029454Y-83693328D01*
X84029454Y-83693328D02*
X84172311Y-83693328D01*
X84672311Y-83550471D02*
X84743740Y-83621900D01*
X84743740Y-83621900D02*
X84672311Y-83693328D01*
X84672311Y-83693328D02*
X84600883Y-83621900D01*
X84600883Y-83621900D02*
X84672311Y-83550471D01*
X84672311Y-83550471D02*
X84672311Y-83693328D01*
X84672311Y-82764757D02*
X84743740Y-82836185D01*
X84743740Y-82836185D02*
X84672311Y-82907614D01*
X84672311Y-82907614D02*
X84600883Y-82836185D01*
X84600883Y-82836185D02*
X84672311Y-82764757D01*
X84672311Y-82764757D02*
X84672311Y-82907614D01*
D10*
D12*
D10*
D11*
D10*
D11*
D10*
D11*
D10*
D11*
D10*
D11*
X97002200Y-91507200D02*
X97002200Y-94507200D01*
D10*
D11*
X161002200Y-91507200D02*
X161002200Y-98007200D01*
D12*
X52793937Y45236918D02*
X52722509Y45165490D01*
X52722509Y45165490D02*
X52651080Y45022632D01*
X52651080Y45022632D02*
X52651080Y44665490D01*
X52651080Y44665490D02*
X52722509Y44522632D01*
X52722509Y44522632D02*
X52793937Y44451204D01*
X52793937Y44451204D02*
X52936794Y44379775D01*
X52936794Y44379775D02*
X53079652Y44379775D01*
X53079652Y44379775D02*
X53293937Y44451204D01*
X53293937Y44451204D02*
X54151080Y45308347D01*
X54151080Y45308347D02*
X54151080Y44379775D01*
X54151080Y42951204D02*
X54151080Y43808347D01*
X54151080Y43379776D02*
X52651080Y43379776D01*
X52651080Y43379776D02*
X52865366Y43522633D01*
X52865366Y43522633D02*
X53008223Y43665490D01*
X53008223Y43665490D02*
X53079652Y43808347D01*
X53365366Y41808348D02*
X53436794Y41594062D01*
X53436794Y41594062D02*
X53508223Y41522633D01*
X53508223Y41522633D02*
X53651080Y41451205D01*
X53651080Y41451205D02*
X53865366Y41451205D01*
X53865366Y41451205D02*
X54008223Y41522633D01*
X54008223Y41522633D02*
X54079652Y41594062D01*
X54079652Y41594062D02*
X54151080Y41736919D01*
X54151080Y41736919D02*
X54151080Y42308348D01*
X54151080Y42308348D02*
X52651080Y42308348D01*
X52651080Y42308348D02*
X52651080Y41808348D01*
X52651080Y41808348D02*
X52722509Y41665490D01*
X52722509Y41665490D02*
X52793937Y41594062D01*
X52793937Y41594062D02*
X52936794Y41522633D01*
X52936794Y41522633D02*
X53079652Y41522633D01*
X53079652Y41522633D02*
X53222509Y41594062D01*
X53222509Y41594062D02*
X53293937Y41665490D01*
X53293937Y41665490D02*
X53365366Y41808348D01*
X53365366Y41808348D02*
X53365366Y42308348D01*
X53365366Y40808348D02*
X53365366Y40308348D01*
X54151080Y40094062D02*
X54151080Y40808348D01*
X54151080Y40808348D02*
X52651080Y40808348D01*
X52651080Y40808348D02*
X52651080Y40094062D01*
X54008223Y38594062D02*
X54079652Y38665490D01*
X54079652Y38665490D02*
X54151080Y38879776D01*
X54151080Y38879776D02*
X54151080Y39022633D01*
X54151080Y39022633D02*
X54079652Y39236919D01*
X54079652Y39236919D02*
X53936794Y39379776D01*
X53936794Y39379776D02*
X53793937Y39451205D01*
X53793937Y39451205D02*
X53508223Y39522633D01*
X53508223Y39522633D02*
X53293937Y39522633D01*
X53293937Y39522633D02*
X53008223Y39451205D01*
X53008223Y39451205D02*
X52865366Y39379776D01*
X52865366Y39379776D02*
X52722509Y39236919D01*
X52722509Y39236919D02*
X52651080Y39022633D01*
X52651080Y39022633D02*
X52651080Y38879776D01*
X52651080Y38879776D02*
X52722509Y38665490D01*
X52722509Y38665490D02*
X52793937Y38594062D01*
X54151080Y37165490D02*
X54151080Y38022633D01*
X54151080Y37594062D02*
X52651080Y37594062D01*
X52651080Y37594062D02*
X52865366Y37736919D01*
X52865366Y37736919D02*
X53008223Y37879776D01*
X53008223Y37879776D02*
X53079652Y38022633D01*
X52651080Y36236919D02*
X52651080Y36094062D01*
X52651080Y36094062D02*
X52722509Y35951205D01*
X52722509Y35951205D02*
X52793937Y35879776D01*
X52793937Y35879776D02*
X52936794Y35808348D01*
X52936794Y35808348D02*
X53222509Y35736919D01*
X53222509Y35736919D02*
X53579652Y35736919D01*
X53579652Y35736919D02*
X53865366Y35808348D01*
X53865366Y35808348D02*
X54008223Y35879776D01*
X54008223Y35879776D02*
X54079652Y35951205D01*
X54079652Y35951205D02*
X54151080Y36094062D01*
X54151080Y36094062D02*
X54151080Y36236919D01*
X54151080Y36236919D02*
X54079652Y36379776D01*
X54079652Y36379776D02*
X54008223Y36451205D01*
X54008223Y36451205D02*
X53865366Y36522634D01*
X53865366Y36522634D02*
X53579652Y36594062D01*
X53579652Y36594062D02*
X53222509Y36594062D01*
X53222509Y36594062D02*
X52936794Y36522634D01*
X52936794Y36522634D02*
X52793937Y36451205D01*
X52793937Y36451205D02*
X52722509Y36379776D01*
X52722509Y36379776D02*
X52651080Y36236919D01*
X54151080Y34308348D02*
X54151080Y35165491D01*
X54151080Y34736920D02*
X52651080Y34736920D01*
X52651080Y34736920D02*
X52865366Y34879777D01*
X52865366Y34879777D02*
X53008223Y35022634D01*
X53008223Y35022634D02*
X53079652Y35165491D01*
X52651080Y33808349D02*
X52651080Y32808349D01*
X52651080Y32808349D02*
X54151080Y33451206D01*
X55208853Y45236918D02*
X55137425Y45165490D01*
X55137425Y45165490D02*
X55065996Y45022632D01*
X55065996Y45022632D02*
X55065996Y44665490D01*
X55065996Y44665490D02*
X55137425Y44522632D01*
X55137425Y44522632D02*
X55208853Y44451204D01*
X55208853Y44451204D02*
X55351710Y44379775D01*
X55351710Y44379775D02*
X55494568Y44379775D01*
X55494568Y44379775D02*
X55708853Y44451204D01*
X55708853Y44451204D02*
X56565996Y45308347D01*
X56565996Y45308347D02*
X56565996Y44379775D01*
X56565996Y42951204D02*
X56565996Y43808347D01*
X56565996Y43379776D02*
X55065996Y43379776D01*
X55065996Y43379776D02*
X55280282Y43522633D01*
X55280282Y43522633D02*
X55423139Y43665490D01*
X55423139Y43665490D02*
X55494568Y43808347D01*
X55780282Y41808348D02*
X55851710Y41594062D01*
X55851710Y41594062D02*
X55923139Y41522633D01*
X55923139Y41522633D02*
X56065996Y41451205D01*
X56065996Y41451205D02*
X56280282Y41451205D01*
X56280282Y41451205D02*
X56423139Y41522633D01*
X56423139Y41522633D02*
X56494568Y41594062D01*
X56494568Y41594062D02*
X56565996Y41736919D01*
X56565996Y41736919D02*
X56565996Y42308348D01*
X56565996Y42308348D02*
X55065996Y42308348D01*
X55065996Y42308348D02*
X55065996Y41808348D01*
X55065996Y41808348D02*
X55137425Y41665490D01*
X55137425Y41665490D02*
X55208853Y41594062D01*
X55208853Y41594062D02*
X55351710Y41522633D01*
X55351710Y41522633D02*
X55494568Y41522633D01*
X55494568Y41522633D02*
X55637425Y41594062D01*
X55637425Y41594062D02*
X55708853Y41665490D01*
X55708853Y41665490D02*
X55780282Y41808348D01*
X55780282Y41808348D02*
X55780282Y42308348D01*
X55780282Y40808348D02*
X55780282Y40308348D01*
X56565996Y40094062D02*
X56565996Y40808348D01*
X56565996Y40808348D02*
X55065996Y40808348D01*
X55065996Y40808348D02*
X55065996Y40094062D01*
X56423139Y38594062D02*
X56494568Y38665490D01*
X56494568Y38665490D02*
X56565996Y38879776D01*
X56565996Y38879776D02*
X56565996Y39022633D01*
X56565996Y39022633D02*
X56494568Y39236919D01*
X56494568Y39236919D02*
X56351710Y39379776D01*
X56351710Y39379776D02*
X56208853Y39451205D01*
X56208853Y39451205D02*
X55923139Y39522633D01*
X55923139Y39522633D02*
X55708853Y39522633D01*
X55708853Y39522633D02*
X55423139Y39451205D01*
X55423139Y39451205D02*
X55280282Y39379776D01*
X55280282Y39379776D02*
X55137425Y39236919D01*
X55137425Y39236919D02*
X55065996Y39022633D01*
X55065996Y39022633D02*
X55065996Y38879776D01*
X55065996Y38879776D02*
X55137425Y38665490D01*
X55137425Y38665490D02*
X55208853Y38594062D01*
X56565996Y37165490D02*
X56565996Y38022633D01*
X56565996Y37594062D02*
X55065996Y37594062D01*
X55065996Y37594062D02*
X55280282Y37736919D01*
X55280282Y37736919D02*
X55423139Y37879776D01*
X55423139Y37879776D02*
X55494568Y38022633D01*
X55065996Y36236919D02*
X55065996Y36094062D01*
X55065996Y36094062D02*
X55137425Y35951205D01*
X55137425Y35951205D02*
X55208853Y35879776D01*
X55208853Y35879776D02*
X55351710Y35808348D01*
X55351710Y35808348D02*
X55637425Y35736919D01*
X55637425Y35736919D02*
X55994568Y35736919D01*
X55994568Y35736919D02*
X56280282Y35808348D01*
X56280282Y35808348D02*
X56423139Y35879776D01*
X56423139Y35879776D02*
X56494568Y35951205D01*
X56494568Y35951205D02*
X56565996Y36094062D01*
X56565996Y36094062D02*
X56565996Y36236919D01*
X56565996Y36236919D02*
X56494568Y36379776D01*
X56494568Y36379776D02*
X56423139Y36451205D01*
X56423139Y36451205D02*
X56280282Y36522634D01*
X56280282Y36522634D02*
X55994568Y36594062D01*
X55994568Y36594062D02*
X55637425Y36594062D01*
X55637425Y36594062D02*
X55351710Y36522634D01*
X55351710Y36522634D02*
X55208853Y36451205D01*
X55208853Y36451205D02*
X55137425Y36379776D01*
X55137425Y36379776D02*
X55065996Y36236919D01*
X56565996Y34308348D02*
X56565996Y35165491D01*
X56565996Y34736920D02*
X55065996Y34736920D01*
X55065996Y34736920D02*
X55280282Y34879777D01*
X55280282Y34879777D02*
X55423139Y35022634D01*
X55423139Y35022634D02*
X55494568Y35165491D01*
X55065996Y32951206D02*
X55065996Y33665492D01*
X55065996Y33665492D02*
X55780282Y33736920D01*
X55780282Y33736920D02*
X55708853Y33665492D01*
X55708853Y33665492D02*
X55637425Y33522634D01*
X55637425Y33522634D02*
X55637425Y33165492D01*
X55637425Y33165492D02*
X55708853Y33022634D01*
X55708853Y33022634D02*
X55780282Y32951206D01*
X55780282Y32951206D02*
X55923139Y32879777D01*
X55923139Y32879777D02*
X56280282Y32879777D01*
X56280282Y32879777D02*
X56423139Y32951206D01*
X56423139Y32951206D02*
X56494568Y33022634D01*
X56494568Y33022634D02*
X56565996Y33165492D01*
X56565996Y33165492D02*
X56565996Y33522634D01*
X56565996Y33522634D02*
X56494568Y33665492D01*
X56494568Y33665492D02*
X56423139Y33736920D01*
X57623769Y45236918D02*
X57552341Y45165490D01*
X57552341Y45165490D02*
X57480912Y45022632D01*
X57480912Y45022632D02*
X57480912Y44665490D01*
X57480912Y44665490D02*
X57552341Y44522632D01*
X57552341Y44522632D02*
X57623769Y44451204D01*
X57623769Y44451204D02*
X57766626Y44379775D01*
X57766626Y44379775D02*
X57909484Y44379775D01*
X57909484Y44379775D02*
X58123769Y44451204D01*
X58123769Y44451204D02*
X58980912Y45308347D01*
X58980912Y45308347D02*
X58980912Y44379775D01*
X58980912Y42951204D02*
X58980912Y43808347D01*
X58980912Y43379776D02*
X57480912Y43379776D01*
X57480912Y43379776D02*
X57695198Y43522633D01*
X57695198Y43522633D02*
X57838055Y43665490D01*
X57838055Y43665490D02*
X57909484Y43808347D01*
X58195198Y41808348D02*
X58266626Y41594062D01*
X58266626Y41594062D02*
X58338055Y41522633D01*
X58338055Y41522633D02*
X58480912Y41451205D01*
X58480912Y41451205D02*
X58695198Y41451205D01*
X58695198Y41451205D02*
X58838055Y41522633D01*
X58838055Y41522633D02*
X58909484Y41594062D01*
X58909484Y41594062D02*
X58980912Y41736919D01*
X58980912Y41736919D02*
X58980912Y42308348D01*
X58980912Y42308348D02*
X57480912Y42308348D01*
X57480912Y42308348D02*
X57480912Y41808348D01*
X57480912Y41808348D02*
X57552341Y41665490D01*
X57552341Y41665490D02*
X57623769Y41594062D01*
X57623769Y41594062D02*
X57766626Y41522633D01*
X57766626Y41522633D02*
X57909484Y41522633D01*
X57909484Y41522633D02*
X58052341Y41594062D01*
X58052341Y41594062D02*
X58123769Y41665490D01*
X58123769Y41665490D02*
X58195198Y41808348D01*
X58195198Y41808348D02*
X58195198Y42308348D01*
X58195198Y40808348D02*
X58195198Y40308348D01*
X58980912Y40094062D02*
X58980912Y40808348D01*
X58980912Y40808348D02*
X57480912Y40808348D01*
X57480912Y40808348D02*
X57480912Y40094062D01*
X58838055Y38594062D02*
X58909484Y38665490D01*
X58909484Y38665490D02*
X58980912Y38879776D01*
X58980912Y38879776D02*
X58980912Y39022633D01*
X58980912Y39022633D02*
X58909484Y39236919D01*
X58909484Y39236919D02*
X58766626Y39379776D01*
X58766626Y39379776D02*
X58623769Y39451205D01*
X58623769Y39451205D02*
X58338055Y39522633D01*
X58338055Y39522633D02*
X58123769Y39522633D01*
X58123769Y39522633D02*
X57838055Y39451205D01*
X57838055Y39451205D02*
X57695198Y39379776D01*
X57695198Y39379776D02*
X57552341Y39236919D01*
X57552341Y39236919D02*
X57480912Y39022633D01*
X57480912Y39022633D02*
X57480912Y38879776D01*
X57480912Y38879776D02*
X57552341Y38665490D01*
X57552341Y38665490D02*
X57623769Y38594062D01*
X58980912Y37165490D02*
X58980912Y38022633D01*
X58980912Y37594062D02*
X57480912Y37594062D01*
X57480912Y37594062D02*
X57695198Y37736919D01*
X57695198Y37736919D02*
X57838055Y37879776D01*
X57838055Y37879776D02*
X57909484Y38022633D01*
X57480912Y36236919D02*
X57480912Y36094062D01*
X57480912Y36094062D02*
X57552341Y35951205D01*
X57552341Y35951205D02*
X57623769Y35879776D01*
X57623769Y35879776D02*
X57766626Y35808348D01*
X57766626Y35808348D02*
X58052341Y35736919D01*
X58052341Y35736919D02*
X58409484Y35736919D01*
X58409484Y35736919D02*
X58695198Y35808348D01*
X58695198Y35808348D02*
X58838055Y35879776D01*
X58838055Y35879776D02*
X58909484Y35951205D01*
X58909484Y35951205D02*
X58980912Y36094062D01*
X58980912Y36094062D02*
X58980912Y36236919D01*
X58980912Y36236919D02*
X58909484Y36379776D01*
X58909484Y36379776D02*
X58838055Y36451205D01*
X58838055Y36451205D02*
X58695198Y36522634D01*
X58695198Y36522634D02*
X58409484Y36594062D01*
X58409484Y36594062D02*
X58052341Y36594062D01*
X58052341Y36594062D02*
X57766626Y36522634D01*
X57766626Y36522634D02*
X57623769Y36451205D01*
X57623769Y36451205D02*
X57552341Y36379776D01*
X57552341Y36379776D02*
X57480912Y36236919D01*
X57623769Y35165491D02*
X57552341Y35094063D01*
X57552341Y35094063D02*
X57480912Y34951205D01*
X57480912Y34951205D02*
X57480912Y34594063D01*
X57480912Y34594063D02*
X57552341Y34451205D01*
X57552341Y34451205D02*
X57623769Y34379777D01*
X57623769Y34379777D02*
X57766626Y34308348D01*
X57766626Y34308348D02*
X57909484Y34308348D01*
X57909484Y34308348D02*
X58123769Y34379777D01*
X58123769Y34379777D02*
X58980912Y35236920D01*
X58980912Y35236920D02*
X58980912Y34308348D01*
X58980912Y32879777D02*
X58980912Y33736920D01*
X58980912Y33308349D02*
X57480912Y33308349D01*
X57480912Y33308349D02*
X57695198Y33451206D01*
X57695198Y33451206D02*
X57838055Y33594063D01*
X57838055Y33594063D02*
X57909484Y33736920D01*
X60038685Y45236918D02*
X59967257Y45165490D01*
X59967257Y45165490D02*
X59895828Y45022632D01*
X59895828Y45022632D02*
X59895828Y44665490D01*
X59895828Y44665490D02*
X59967257Y44522632D01*
X59967257Y44522632D02*
X60038685Y44451204D01*
X60038685Y44451204D02*
X60181542Y44379775D01*
X60181542Y44379775D02*
X60324400Y44379775D01*
X60324400Y44379775D02*
X60538685Y44451204D01*
X60538685Y44451204D02*
X61395828Y45308347D01*
X61395828Y45308347D02*
X61395828Y44379775D01*
X61395828Y42951204D02*
X61395828Y43808347D01*
X61395828Y43379776D02*
X59895828Y43379776D01*
X59895828Y43379776D02*
X60110114Y43522633D01*
X60110114Y43522633D02*
X60252971Y43665490D01*
X60252971Y43665490D02*
X60324400Y43808347D01*
X60610114Y41808348D02*
X60681542Y41594062D01*
X60681542Y41594062D02*
X60752971Y41522633D01*
X60752971Y41522633D02*
X60895828Y41451205D01*
X60895828Y41451205D02*
X61110114Y41451205D01*
X61110114Y41451205D02*
X61252971Y41522633D01*
X61252971Y41522633D02*
X61324400Y41594062D01*
X61324400Y41594062D02*
X61395828Y41736919D01*
X61395828Y41736919D02*
X61395828Y42308348D01*
X61395828Y42308348D02*
X59895828Y42308348D01*
X59895828Y42308348D02*
X59895828Y41808348D01*
X59895828Y41808348D02*
X59967257Y41665490D01*
X59967257Y41665490D02*
X60038685Y41594062D01*
X60038685Y41594062D02*
X60181542Y41522633D01*
X60181542Y41522633D02*
X60324400Y41522633D01*
X60324400Y41522633D02*
X60467257Y41594062D01*
X60467257Y41594062D02*
X60538685Y41665490D01*
X60538685Y41665490D02*
X60610114Y41808348D01*
X60610114Y41808348D02*
X60610114Y42308348D01*
X60610114Y40808348D02*
X60610114Y40308348D01*
X61395828Y40094062D02*
X61395828Y40808348D01*
X61395828Y40808348D02*
X59895828Y40808348D01*
X59895828Y40808348D02*
X59895828Y40094062D01*
X61252971Y38594062D02*
X61324400Y38665490D01*
X61324400Y38665490D02*
X61395828Y38879776D01*
X61395828Y38879776D02*
X61395828Y39022633D01*
X61395828Y39022633D02*
X61324400Y39236919D01*
X61324400Y39236919D02*
X61181542Y39379776D01*
X61181542Y39379776D02*
X61038685Y39451205D01*
X61038685Y39451205D02*
X60752971Y39522633D01*
X60752971Y39522633D02*
X60538685Y39522633D01*
X60538685Y39522633D02*
X60252971Y39451205D01*
X60252971Y39451205D02*
X60110114Y39379776D01*
X60110114Y39379776D02*
X59967257Y39236919D01*
X59967257Y39236919D02*
X59895828Y39022633D01*
X59895828Y39022633D02*
X59895828Y38879776D01*
X59895828Y38879776D02*
X59967257Y38665490D01*
X59967257Y38665490D02*
X60038685Y38594062D01*
X61395828Y37165490D02*
X61395828Y38022633D01*
X61395828Y37594062D02*
X59895828Y37594062D01*
X59895828Y37594062D02*
X60110114Y37736919D01*
X60110114Y37736919D02*
X60252971Y37879776D01*
X60252971Y37879776D02*
X60324400Y38022633D01*
X61395828Y35736919D02*
X61395828Y36594062D01*
X61395828Y36165491D02*
X59895828Y36165491D01*
X59895828Y36165491D02*
X60110114Y36308348D01*
X60110114Y36308348D02*
X60252971Y36451205D01*
X60252971Y36451205D02*
X60324400Y36594062D01*
X60038685Y35165491D02*
X59967257Y35094063D01*
X59967257Y35094063D02*
X59895828Y34951205D01*
X59895828Y34951205D02*
X59895828Y34594063D01*
X59895828Y34594063D02*
X59967257Y34451205D01*
X59967257Y34451205D02*
X60038685Y34379777D01*
X60038685Y34379777D02*
X60181542Y34308348D01*
X60181542Y34308348D02*
X60324400Y34308348D01*
X60324400Y34308348D02*
X60538685Y34379777D01*
X60538685Y34379777D02*
X61395828Y35236920D01*
X61395828Y35236920D02*
X61395828Y34308348D01*
X59895828Y33808349D02*
X59895828Y32808349D01*
X59895828Y32808349D02*
X61395828Y33451206D01*
M02*
