M48
; DRILL file {KiCad 8.0.1} date 2024-04-10T16:57:43+0530
; FORMAT={-:-/ absolute / metric / decimal}
; #@! TF.CreationDate,2024-04-10T16:57:43+05:30
; #@! TF.GenerationSoftware,Kicad,Pcbnew,8.0.1
; #@! TF.FileFunction,Plated,1,2,PTH
FMAT,2
METRIC
; #@! TA.AperFunction,Plated,PTH,ViaDrill
T1C0.400
; #@! TA.AperFunction,Plated,PTH,ComponentDrill
T2C1.000
%
G90
G05
T1
X40.64Y8.89
X44.45Y25.4
X44.45Y10.16
X49.53Y25.4
T2
X3.835Y50.8
X6.375Y50.8
X8.915Y50.8
X11.455Y50.8
X18.796Y50.8
X21.336Y50.8
X23.876Y50.8
X26.416Y50.8
X27.94Y2.54
X28.956Y50.8
X30.48Y2.54
X31.496Y50.8
X32.995Y19.05
X32.995Y16.51
X32.995Y13.97
X33.02Y2.54
X34.036Y50.8
X35.56Y2.54
X36.576Y50.8
X38.1Y2.54
X39.116Y50.8
X39.986Y19.05
X39.986Y16.51
X39.986Y13.97
X40.64Y2.54
X41.656Y50.8
X43.18Y2.54
X45.72Y50.8
X45.72Y2.54
X46.977Y19.05
X46.977Y16.51
X46.977Y13.97
X48.26Y50.8
X50.8Y50.8
X50.8Y2.54
X53.34Y50.8
X53.34Y2.54
X53.969Y19.05
X53.969Y16.51
X53.969Y13.97
X55.88Y50.8
X55.88Y2.54
X58.42Y50.8
X58.42Y2.54
X60.96Y50.8
X60.96Y21.59
X60.96Y19.05
X60.96Y16.51
X60.96Y13.97
X60.96Y2.54
X63.5Y50.8
X63.5Y2.54
M30
